<svg width="237" height="267" viewBox="0 0 237 267" fill="none" xmlns="http://www.w3.org/2000/svg">
<g filter="url(#filter0_iii_1_603)">
<path fill-rule="evenodd" clip-rule="evenodd" d="M74.6989 174.386C63.9759 165.321 57.5207 151.942 54.5844 136.434C53.2995 129.648 52.6885 122.455 52.6885 115.036C52.6885 83.3791 70.3155 55.4397 94.5857 46.0146C94.6151 46.0032 94.6445 45.9919 94.6739 45.9808C99.9386 43.962 104.534 43.9769 110.687 43.9969L110.687 43.9969L110.688 43.9969L110.688 43.9969L110.688 43.9969L110.688 43.9969L110.688 43.9969L110.688 43.9969L110.688 43.9969L110.688 43.9969L110.688 43.9969C111.078 43.9982 111.474 43.9995 111.877 44.0002L111.877 44.0001C118.592 41.362 126.602 44.2399 133.005 47.1418C144.445 52.3219 154.248 61.6751 161.191 73.5434C167.155 83.739 171.009 95.7909 171.977 108.648C172.136 110.757 172.217 112.888 172.217 115.036C172.217 147.335 160.634 175.372 132.291 184.049C130.496 189.653 123.199 193.848 114.47 193.848C106.366 193.848 99.497 190.233 97.1183 185.232C88.1903 183.259 80.7623 179.512 74.6989 174.386Z" fill="url(#paint0_radial_1_603)"/>
</g>
<ellipse cx="68.1979" cy="84.1421" rx="3.59182" ry="2.44077" transform="rotate(-39.6655 68.1979 84.1421)" fill="#B77D00" fill-opacity="0.37"/>
<ellipse cx="78.7741" cy="74.4308" rx="3.59182" ry="2.44077" transform="rotate(-39.6655 78.7741 74.4308)" fill="#B77D00" fill-opacity="0.37"/>
<ellipse cx="88.1881" cy="64.0267" rx="3.59182" ry="2.44077" transform="rotate(-39.6655 88.1881 64.0267)" fill="#B77D00" fill-opacity="0.37"/>
<ellipse cx="76.8434" cy="62.5393" rx="3.59182" ry="2.44077" transform="rotate(-39.6655 76.8434 62.5393)" fill="#B77D00" fill-opacity="0.37"/>
<g filter="url(#filter1_di_1_603)">
<path fill-rule="evenodd" clip-rule="evenodd" d="M139.183 122.996C142.925 120.355 145.368 115.998 145.368 111.071C145.368 103.015 138.838 96.4843 130.782 96.4843C122.726 96.4843 116.195 103.015 116.195 111.071C116.195 115.895 118.537 120.172 122.146 122.827C124.351 120.76 127.316 119.494 130.576 119.494C133.925 119.494 136.962 120.829 139.183 122.996Z" fill="#FAFAFA"/>
</g>
<g filter="url(#filter2_i_1_603)">
<rect x="123.022" y="103.312" width="15.5097" height="15.5097" rx="7.75485" fill="#2C2F36"/>
</g>
<g filter="url(#filter3_di_1_603)">
<path fill-rule="evenodd" clip-rule="evenodd" d="M101.792 122.996C105.533 120.355 107.976 115.998 107.976 111.071C107.976 103.015 101.446 96.4842 93.3901 96.4842C85.3343 96.4842 78.8037 103.015 78.8037 111.071C78.8037 115.895 81.1457 120.172 84.7547 122.827C86.9593 120.76 89.9243 119.494 93.1851 119.494C96.5336 119.494 99.5702 120.829 101.792 122.996Z" fill="#FAFAFA"/>
</g>
<g filter="url(#filter4_i_1_603)">
<rect x="85.6309" y="103.312" width="15.5097" height="15.5097" rx="7.75485" fill="#2C2F36"/>
</g>
<g filter="url(#filter5_diiii_1_603)">
<mask id="path-10-inside-1_1_603" fill="white">
<path d="M135.285 122.575C137.223 122.575 138.82 124.155 138.53 126.07C138.218 128.133 137.63 130.155 136.776 132.088C135.444 135.104 133.492 137.845 131.031 140.153C128.57 142.461 125.648 144.292 122.433 145.542C119.218 146.791 115.771 147.434 112.291 147.434C108.811 147.434 105.365 146.791 102.149 145.542C98.9338 144.292 96.0123 142.461 93.5513 140.153C91.0904 137.845 89.1383 135.104 87.8064 132.088C86.9527 130.155 86.3645 128.133 86.0523 126.07C85.7623 124.155 87.3597 122.575 89.2971 122.575C91.2345 122.575 92.7696 124.162 93.1623 126.059C93.4107 127.259 93.7873 128.435 94.2884 129.57C95.2676 131.787 96.703 133.802 98.5124 135.499C100.322 137.197 102.47 138.543 104.834 139.462C107.198 140.38 109.732 140.853 112.291 140.853C114.85 140.853 117.384 140.38 119.748 139.462C122.112 138.543 124.26 137.197 126.07 135.499C127.879 133.802 129.315 131.787 130.294 129.57C130.795 128.435 131.172 127.259 131.42 126.059C131.813 124.162 133.348 122.575 135.285 122.575Z"/>
</mask>
<path d="M135.285 122.575C137.223 122.575 138.82 124.155 138.53 126.07C138.218 128.133 137.63 130.155 136.776 132.088C135.444 135.104 133.492 137.845 131.031 140.153C128.57 142.461 125.648 144.292 122.433 145.542C119.218 146.791 115.771 147.434 112.291 147.434C108.811 147.434 105.365 146.791 102.149 145.542C98.9338 144.292 96.0123 142.461 93.5513 140.153C91.0904 137.845 89.1383 135.104 87.8064 132.088C86.9527 130.155 86.3645 128.133 86.0523 126.07C85.7623 124.155 87.3597 122.575 89.2971 122.575C91.2345 122.575 92.7696 124.162 93.1623 126.059C93.4107 127.259 93.7873 128.435 94.2884 129.57C95.2676 131.787 96.703 133.802 98.5124 135.499C100.322 137.197 102.47 138.543 104.834 139.462C107.198 140.38 109.732 140.853 112.291 140.853C114.85 140.853 117.384 140.38 119.748 139.462C122.112 138.543 124.26 137.197 126.07 135.499C127.879 133.802 129.315 131.787 130.294 129.57C130.795 128.435 131.172 127.259 131.42 126.059C131.813 124.162 133.348 122.575 135.285 122.575Z" fill="url(#paint1_linear_1_603)"/>
<path d="M135.285 122.575C137.223 122.575 138.82 124.155 138.53 126.07C138.218 128.133 137.63 130.155 136.776 132.088C135.444 135.104 133.492 137.845 131.031 140.153C128.57 142.461 125.648 144.292 122.433 145.542C119.218 146.791 115.771 147.434 112.291 147.434C108.811 147.434 105.365 146.791 102.149 145.542C98.9338 144.292 96.0123 142.461 93.5513 140.153C91.0904 137.845 89.1383 135.104 87.8064 132.088C86.9527 130.155 86.3645 128.133 86.0523 126.07C85.7623 124.155 87.3597 122.575 89.2971 122.575C91.2345 122.575 92.7696 124.162 93.1623 126.059C93.4107 127.259 93.7873 128.435 94.2884 129.57C95.2676 131.787 96.703 133.802 98.5124 135.499C100.322 137.197 102.47 138.543 104.834 139.462C107.198 140.38 109.732 140.853 112.291 140.853C114.85 140.853 117.384 140.38 119.748 139.462C122.112 138.543 124.26 137.197 126.07 135.499C127.879 133.802 129.315 131.787 130.294 129.57C130.795 128.435 131.172 127.259 131.42 126.059C131.813 124.162 133.348 122.575 135.285 122.575Z" stroke="url(#paint2_linear_1_603)" stroke-width="9.03945" stroke-linejoin="round" mask="url(#path-10-inside-1_1_603)"/>
</g>
<g filter="url(#filter6_i_1_603)">
<path d="M107.561 39.7839C115.259 34.3706 112.104 22.0936 104.892 15.7397C97.6872 9.36494 87.1742 6.07119 86.1784 6.77596C85.1827 7.48073 82.5539 21.4143 88.7401 31.1539C94.9263 40.8935 102.856 43.0966 107.561 39.7839Z" fill="url(#paint3_linear_1_603)"/>
</g>
<path d="M107.273 39.5653L108.351 38.7487C111.786 43.32 113.747 45.0624 113.768 45.0691L112.88 46.0842C112.796 46.0229 110.807 44.2601 107.273 39.5653Z" fill="#318C1C"/>
<path d="M98.5103 15.2668C98.4323 15.1153 98.4369 14.9214 98.532 14.7678C98.6884 14.5304 98.9992 14.4574 99.2295 14.6C100.716 15.5239 102.876 17.1461 104.777 19.6512C107.065 22.671 108.375 26.1945 108.679 30.132C108.704 30.4157 108.492 30.6469 108.208 30.6711C107.924 30.6954 107.693 30.4834 107.669 30.1997C107.04 21.8124 101.784 17.3603 98.7135 15.4583C98.6159 15.404 98.5458 15.3356 98.5103 15.2668Z" fill="url(#paint4_linear_1_603)"/>
<g filter="url(#filter7_f_1_603)">
<ellipse cx="113.624" cy="45.7927" rx="4.54204" ry="1.20565" fill="#744500" fill-opacity="0.6"/>
</g>
<path d="M172.086 131.924C171.415 131.924 170.791 131.493 170.575 130.797C170.336 129.958 170.791 129.094 171.631 128.831C185.061 124.778 193.91 110.22 197.963 85.5184C198.107 84.655 198.923 84.0795 199.786 84.2233C200.649 84.3672 201.225 85.1826 201.081 86.046C198.851 99.716 195.133 110.532 190.049 118.206C185.421 125.161 179.545 129.766 172.566 131.876C172.398 131.9 172.254 131.924 172.086 131.924Z" fill="#1D1D1D"/>
<path d="M198.732 94.2239C198.468 94.2239 198.204 94.1999 197.965 94.1519C195.447 93.7202 192.76 91.0342 193.48 84.8468C193.576 83.9834 194.367 83.3598 195.231 83.4558C196.094 83.5517 196.718 84.3431 196.622 85.2065C196.19 88.9238 197.293 90.8184 198.492 91.0342C199.859 91.274 201.73 89.4993 202.473 86.1658C202.665 85.3264 203.505 84.7748 204.344 84.9667C205.183 85.1585 205.735 85.9979 205.543 86.8373C204.392 92.0415 201.346 94.2239 198.732 94.2239Z" fill="#1D1D1D"/>
<path d="M52.5592 131.924C52.4153 131.924 52.2474 131.9 52.1035 131.852C45.1246 129.742 39.225 125.137 34.6203 118.182C29.5361 110.508 25.8188 99.6918 23.5884 86.0218C23.4445 85.1584 24.0201 84.343 24.8835 84.1992C25.7468 84.0553 26.5623 84.6308 26.7062 85.4942C30.7592 110.196 39.6087 124.753 53.0388 128.806C53.8782 129.046 54.3339 129.934 54.094 130.773C53.8542 131.468 53.2307 131.924 52.5592 131.924Z" fill="#1D1D1D"/>
<path d="M25.9144 94.2235C23.3003 94.2235 20.2305 92.0411 19.0794 86.8609C18.8875 86.0215 19.4151 85.1581 20.2785 84.9902C21.1179 84.7984 21.9812 85.326 22.1491 86.1894C22.8926 89.5469 24.7632 91.2976 26.1302 91.0578C27.3293 90.8419 28.4325 88.9473 28.0008 85.2301C27.9049 84.3667 28.5284 83.5753 29.3918 83.4794C30.2552 83.3834 31.0466 84.007 31.1425 84.8703C31.862 91.0578 29.176 93.7438 26.6578 94.1755C26.442 94.1995 26.1782 94.2235 25.9144 94.2235Z" fill="#1D1D1D"/>
<g filter="url(#filter8_f_1_603)">
<path d="M95.0527 184.225C97.6285 191.044 108.349 193.659 113.387 194.114C126.411 194.114 132.341 186.616 133.678 182.867C158.473 176.135 167.312 148.056 169.881 136.761C149.611 162.751 95.2904 171.046 69.415 170.041C70.0767 174.91 86.7825 181.526 95.0527 184.225Z" fill="#EBAD1E"/>
</g>
<path d="M13.7287 227.508C13.7287 228.121 13.6153 228.744 13.3887 229.378C13.162 230.011 12.8187 230.598 12.3587 231.138C11.8987 231.678 11.3187 232.114 10.6187 232.448C9.91867 232.774 9.09534 232.938 8.14867 232.938C6.86201 232.938 5.76534 232.614 4.85867 231.968C3.95867 231.314 3.27201 230.418 2.79867 229.278C2.32534 228.138 2.08867 226.831 2.08867 225.358C2.08867 223.878 2.32534 222.571 2.79867 221.438C3.27201 220.298 3.95867 219.404 4.85867 218.758C5.76534 218.111 6.86201 217.788 8.14867 217.788C9.22201 217.788 10.1353 217.998 10.8887 218.418C11.6487 218.838 12.252 219.378 12.6987 220.038C13.152 220.698 13.452 221.384 13.5987 222.098C13.6853 222.484 13.7287 222.851 13.7287 223.198H11.5487C11.5487 223.011 11.532 222.808 11.4987 222.588C11.4253 222.054 11.2453 221.564 10.9587 221.118C10.6787 220.671 10.302 220.314 9.82867 220.048C9.36201 219.781 8.80201 219.648 8.14867 219.648C7.38867 219.648 6.71867 219.861 6.13867 220.288C5.55867 220.708 5.10534 221.341 4.77867 222.188C4.45867 223.034 4.29867 224.091 4.29867 225.358C4.29867 226.618 4.45867 227.674 4.77867 228.528C5.10534 229.374 5.55867 230.014 6.13867 230.448C6.71867 230.874 7.38867 231.088 8.14867 231.088C8.70201 231.088 9.18867 230.988 9.60867 230.788C10.0287 230.588 10.382 230.318 10.6687 229.978C10.9553 229.638 11.172 229.254 11.3187 228.828C11.472 228.401 11.5487 227.961 11.5487 227.508H13.7287ZM19.7738 232.938C18.9738 232.938 18.2705 232.811 17.6638 232.558C17.0638 232.304 16.5972 231.941 16.2638 231.468C15.9305 230.994 15.7638 230.424 15.7638 229.758C15.7638 229.044 15.9505 228.454 16.3238 227.988C16.7038 227.521 17.2238 227.161 17.8838 226.908C18.5505 226.648 19.3072 226.478 20.1538 226.398C21.4138 226.271 22.3005 226.148 22.8138 226.028C23.3338 225.908 23.5938 225.711 23.5938 225.438C23.5938 225.431 23.5938 225.424 23.5938 225.418C23.5938 224.878 23.3638 224.468 22.9038 224.188C22.4438 223.908 21.7872 223.768 20.9338 223.768C20.0338 223.768 19.3372 223.928 18.8438 224.248C18.3572 224.561 18.1138 225.061 18.1138 225.748H15.9838C15.9838 224.934 16.1938 224.244 16.6138 223.678C17.0405 223.111 17.6272 222.681 18.3738 222.388C19.1205 222.088 19.9772 221.938 20.9438 221.938C21.8305 221.938 22.6372 222.074 23.3638 222.348C24.0972 222.614 24.6805 223.014 25.1138 223.548C25.5472 224.081 25.7638 224.744 25.7638 225.538C25.7638 225.678 25.7638 225.818 25.7638 225.958C25.7638 226.091 25.7638 226.228 25.7638 226.368V230.608C25.7638 230.854 25.7738 231.094 25.7938 231.328C25.8138 231.554 25.8505 231.758 25.9038 231.938C25.9638 232.144 26.0338 232.314 26.1138 232.448C26.2005 232.581 26.2705 232.674 26.3238 232.728H24.1638C24.1238 232.688 24.0638 232.604 23.9838 232.478C23.9105 232.344 23.8438 232.191 23.7838 232.018C23.7238 231.851 23.6772 231.661 23.6438 231.448C23.6172 231.228 23.6038 230.991 23.6038 230.738L24.0038 231.018C23.8038 231.404 23.5005 231.741 23.0938 232.028C22.6938 232.314 22.2105 232.538 21.6438 232.698C21.0838 232.858 20.4605 232.938 19.7738 232.938ZM20.2238 231.138C20.8438 231.138 21.4072 231.041 21.9138 230.848C22.4272 230.648 22.8372 230.348 23.1438 229.948C23.4505 229.541 23.6038 229.031 23.6038 228.418V226.658L24.1138 227.328C23.6872 227.494 23.1638 227.631 22.5438 227.738C21.9305 227.838 21.2972 227.921 20.6438 227.988C19.7438 228.068 19.0672 228.224 18.6138 228.458C18.1605 228.684 17.9338 229.064 17.9338 229.598C17.9338 230.111 18.1205 230.498 18.4938 230.758C18.8738 231.011 19.4505 231.138 20.2238 231.138ZM32.2685 232.918C31.5152 232.918 30.8885 232.791 30.3885 232.538C29.8885 232.278 29.4918 231.941 29.1985 231.528C28.9052 231.108 28.6985 230.651 28.5785 230.158C28.4585 229.658 28.3985 229.171 28.3985 228.698C28.3985 228.451 28.3985 228.194 28.3985 227.928C28.3985 227.654 28.3985 227.381 28.3985 227.108V222.108H30.5785V226.798C30.5785 227.038 30.5785 227.274 30.5785 227.508C30.5785 227.734 30.5785 227.948 30.5785 228.148C30.5785 228.661 30.6452 229.134 30.7785 229.568C30.9118 229.994 31.1452 230.341 31.4785 230.608C31.8185 230.868 32.2918 230.998 32.8985 230.998C33.4652 230.998 33.9585 230.831 34.3785 230.498C34.7985 230.158 35.1252 229.731 35.3585 229.218C35.5918 228.698 35.7085 228.178 35.7085 227.658L36.6585 228.168C36.6585 228.781 36.5552 229.371 36.3485 229.938C36.1485 230.504 35.8585 231.014 35.4785 231.468C35.0985 231.914 34.6352 232.268 34.0885 232.528C33.5485 232.788 32.9418 232.918 32.2685 232.918ZM35.7085 232.728V222.108H37.8785V232.728H35.7085ZM45.1651 232.908C44.8117 232.908 44.4584 232.871 44.1051 232.798C43.7584 232.724 43.4384 232.591 43.1451 232.398C42.8584 232.198 42.6284 231.914 42.4551 231.548C42.2817 231.181 42.1951 230.701 42.1951 230.108C42.1951 229.968 42.1951 229.821 42.1951 229.668C42.1951 229.514 42.1951 229.358 42.1951 229.198V223.908H39.6451V222.108H40.9851C41.2717 222.108 41.4951 222.098 41.6551 222.078C41.8217 222.051 41.9417 221.994 42.0151 221.908C42.0951 221.814 42.1451 221.668 42.1651 221.468C42.1851 221.268 42.1951 220.994 42.1951 220.648V218.598H44.3651V222.108H47.6151V223.908H44.3651V228.618C44.3651 228.751 44.3651 228.884 44.3651 229.018C44.3651 229.151 44.3651 229.274 44.3651 229.388C44.3651 229.921 44.4284 230.341 44.5551 230.648C44.6884 230.954 44.9884 231.108 45.4551 231.108C45.6551 231.108 45.8451 231.091 46.0251 231.058C46.2051 231.024 46.3417 230.988 46.4351 230.948V232.718C46.3151 232.764 46.1451 232.808 45.9251 232.848C45.7051 232.888 45.4517 232.908 45.1651 232.908ZM49.7176 232.728V222.108H51.8576V232.728H49.7176ZM50.7976 219.908C50.4242 219.908 50.1009 219.808 49.8276 219.608C49.5609 219.401 49.4276 219.118 49.4276 218.758C49.4276 218.404 49.5609 218.128 49.8276 217.928C50.1009 217.721 50.4242 217.618 50.7976 217.618C51.1642 217.618 51.4809 217.721 51.7476 217.928C52.0209 218.128 52.1576 218.404 52.1576 218.758C52.1576 219.118 52.0209 219.401 51.7476 219.608C51.4809 219.808 51.1642 219.908 50.7976 219.908ZM59.8762 232.928C58.7828 232.928 57.8162 232.691 56.9762 232.218C56.1428 231.744 55.4895 231.094 55.0162 230.268C54.5495 229.434 54.3162 228.481 54.3162 227.408C54.3162 226.341 54.5495 225.398 55.0162 224.578C55.4895 223.751 56.1428 223.108 56.9762 222.648C57.8162 222.181 58.7828 221.948 59.8762 221.948C60.9695 221.948 61.9328 222.181 62.7662 222.648C63.6062 223.108 64.2595 223.751 64.7262 224.578C65.1995 225.398 65.4362 226.341 65.4362 227.408C65.4362 228.481 65.1995 229.434 64.7262 230.268C64.2595 231.094 63.6062 231.744 62.7662 232.218C61.9328 232.691 60.9695 232.928 59.8762 232.928ZM59.8762 231.068C60.5428 231.068 61.1295 230.918 61.6362 230.618C62.1428 230.318 62.5395 229.894 62.8262 229.348C63.1128 228.794 63.2562 228.148 63.2562 227.408C63.2562 226.674 63.1128 226.038 62.8262 225.498C62.5395 224.958 62.1428 224.541 61.6362 224.248C61.1295 223.954 60.5428 223.808 59.8762 223.808C59.2162 223.808 58.6295 223.954 58.1162 224.248C57.6095 224.541 57.2128 224.958 56.9262 225.498C56.6395 226.038 56.4962 226.674 56.4962 227.408C56.4962 228.148 56.6395 228.794 56.9262 229.348C57.2128 229.894 57.6095 230.318 58.1162 230.618C58.6295 230.918 59.2162 231.068 59.8762 231.068ZM71.7216 232.918C70.9683 232.918 70.3416 232.791 69.8416 232.538C69.3416 232.278 68.945 231.941 68.6516 231.528C68.3583 231.108 68.1516 230.651 68.0316 230.158C67.9116 229.658 67.8516 229.171 67.8516 228.698C67.8516 228.451 67.8516 228.194 67.8516 227.928C67.8516 227.654 67.8516 227.381 67.8516 227.108V222.108H70.0316V226.798C70.0316 227.038 70.0316 227.274 70.0316 227.508C70.0316 227.734 70.0316 227.948 70.0316 228.148C70.0316 228.661 70.0983 229.134 70.2316 229.568C70.365 229.994 70.5983 230.341 70.9316 230.608C71.2716 230.868 71.745 230.998 72.3516 230.998C72.9183 230.998 73.4116 230.831 73.8316 230.498C74.2516 230.158 74.5783 229.731 74.8116 229.218C75.045 228.698 75.1616 228.178 75.1616 227.658L76.1116 228.168C76.1116 228.781 76.0083 229.371 75.8016 229.938C75.6016 230.504 75.3116 231.014 74.9316 231.468C74.5516 231.914 74.0883 232.268 73.5416 232.528C73.0016 232.788 72.395 232.918 71.7216 232.918ZM75.1616 232.728V222.108H77.3316V232.728H75.1616ZM84.2582 232.938C83.6249 232.938 83.0282 232.868 82.4682 232.728C81.9082 232.588 81.4149 232.384 80.9882 232.118C80.5682 231.844 80.2382 231.508 79.9982 231.108C79.7649 230.708 79.6482 230.244 79.6482 229.718C79.6482 229.671 79.6482 229.624 79.6482 229.578C79.6482 229.524 79.6482 229.481 79.6482 229.448H81.8082C81.8082 229.481 81.8082 229.511 81.8082 229.538C81.8082 229.564 81.8082 229.601 81.8082 229.648C81.8082 230.134 82.0315 230.504 82.4782 230.758C82.9315 231.004 83.5449 231.128 84.3182 231.128C84.7715 231.128 85.1849 231.081 85.5582 230.988C85.9382 230.894 86.2382 230.751 86.4582 230.558C86.6849 230.364 86.7982 230.118 86.7982 229.818C86.7982 229.331 86.5582 228.984 86.0782 228.778C85.6049 228.571 84.8849 228.388 83.9182 228.228C83.3915 228.134 82.8815 228.014 82.3882 227.868C81.9015 227.721 81.4615 227.528 81.0682 227.288C80.6815 227.041 80.3715 226.738 80.1382 226.378C79.9115 226.011 79.7982 225.571 79.7982 225.058C79.7982 224.391 79.9982 223.824 80.3982 223.358C80.7982 222.891 81.3382 222.538 82.0182 222.298C82.6982 222.058 83.4482 221.938 84.2682 221.938C85.0615 221.938 85.7949 222.068 86.4682 222.328C87.1482 222.581 87.6949 222.951 88.1082 223.438C88.5215 223.918 88.7282 224.508 88.7282 225.208C88.7282 225.234 88.7282 225.264 88.7282 225.298C88.7282 225.331 88.7282 225.361 88.7282 225.388H86.5782C86.5782 225.361 86.5782 225.338 86.5782 225.318C86.5782 225.298 86.5782 225.274 86.5782 225.248C86.5782 224.901 86.4682 224.618 86.2482 224.398C86.0282 224.178 85.7415 224.014 85.3882 223.908C85.0415 223.794 84.6715 223.738 84.2782 223.738C83.9182 223.738 83.5549 223.778 83.1882 223.858C82.8282 223.931 82.5282 224.061 82.2882 224.248C82.0482 224.428 81.9282 224.674 81.9282 224.988C81.9282 225.308 82.0449 225.564 82.2782 225.758C82.5115 225.944 82.8415 226.101 83.2682 226.228C83.6949 226.348 84.1915 226.458 84.7582 226.558C85.2782 226.651 85.7849 226.771 86.2782 226.918C86.7715 227.058 87.2149 227.244 87.6082 227.478C88.0082 227.711 88.3249 228.011 88.5582 228.378C88.7982 228.744 88.9182 229.194 88.9182 229.728C88.9182 230.281 88.7915 230.758 88.5382 231.158C88.2849 231.558 87.9382 231.891 87.4982 232.158C87.0649 232.418 86.5682 232.611 86.0082 232.738C85.4549 232.871 84.8715 232.938 84.2582 232.938ZM93.5987 217.098V232.728H91.4587V217.098H93.5987ZM97.014 237.248C96.7273 237.248 96.464 237.231 96.224 237.198C95.9907 237.171 95.8473 237.144 95.794 237.118V235.348C95.8807 235.388 96.024 235.421 96.224 235.448C96.4307 235.474 96.644 235.488 96.864 235.488C97.2573 235.488 97.594 235.408 97.874 235.248C98.1607 235.088 98.4007 234.864 98.594 234.578C98.794 234.298 98.954 233.978 99.074 233.618L99.344 232.818L95.684 222.108H97.944L100.674 231.108H100.394L103.054 222.108H105.284L101.474 233.508C101.241 234.221 100.954 234.858 100.614 235.418C100.274 235.984 99.8207 236.431 99.254 236.758C98.6873 237.084 97.9407 237.248 97.014 237.248ZM117.858 232.938C116.978 232.938 116.164 232.771 115.418 232.438C114.678 232.098 114.028 231.604 113.468 230.958C112.914 230.304 112.484 229.508 112.178 228.568C111.871 227.621 111.718 226.544 111.718 225.338C111.718 224.124 111.871 223.051 112.178 222.118C112.484 221.178 112.914 220.388 113.468 219.748C114.028 219.101 114.681 218.614 115.428 218.288C116.174 217.954 116.984 217.788 117.858 217.788C118.738 217.788 119.551 217.954 120.298 218.288C121.051 218.614 121.704 219.101 122.258 219.748C122.811 220.388 123.241 221.178 123.548 222.118C123.854 223.051 124.008 224.124 124.008 225.338C124.008 226.544 123.854 227.621 123.548 228.568C123.241 229.508 122.808 230.304 122.248 230.958C121.694 231.604 121.044 232.098 120.298 232.438C119.551 232.771 118.738 232.938 117.858 232.938ZM117.858 231.088C118.611 231.088 119.284 230.881 119.878 230.468C120.478 230.054 120.948 229.424 121.288 228.578C121.628 227.724 121.798 226.644 121.798 225.338C121.798 224.024 121.624 222.948 121.278 222.108C120.938 221.268 120.471 220.648 119.878 220.248C119.284 219.848 118.611 219.648 117.858 219.648C117.118 219.648 116.448 219.848 115.848 220.248C115.254 220.648 114.784 221.268 114.438 222.108C114.091 222.948 113.918 224.024 113.918 225.338C113.918 226.651 114.091 227.734 114.438 228.588C114.784 229.434 115.254 230.064 115.848 230.478C116.448 230.884 117.118 231.088 117.858 231.088ZM126.387 237.098V222.108H128.557V237.098H126.387ZM131.977 232.938C131.15 232.938 130.383 232.731 129.677 232.318C128.97 231.898 128.397 231.324 127.957 230.598C127.523 229.871 127.307 229.048 127.307 228.128C127.307 228.101 127.307 228.081 127.307 228.068C127.307 228.048 127.307 228.028 127.307 228.008L128.567 227.978C128.567 227.991 128.567 228.008 128.567 228.028C128.567 228.041 128.567 228.058 128.567 228.078C128.567 228.624 128.707 229.118 128.987 229.558C129.273 229.991 129.643 230.334 130.097 230.588C130.55 230.841 131.037 230.968 131.557 230.968C132.41 230.968 133.127 230.678 133.707 230.098C134.293 229.511 134.587 228.611 134.587 227.398C134.587 226.178 134.297 225.281 133.717 224.708C133.137 224.128 132.417 223.838 131.557 223.838C131.037 223.838 130.55 223.964 130.097 224.218C129.643 224.464 129.273 224.804 128.987 225.238C128.707 225.664 128.567 226.154 128.567 226.708L127.307 226.658C127.307 225.731 127.523 224.914 127.957 224.208C128.397 223.494 128.97 222.938 129.677 222.538C130.383 222.138 131.15 221.938 131.977 221.938C132.837 221.938 133.633 222.151 134.367 222.578C135.1 222.998 135.69 223.614 136.137 224.428C136.59 225.241 136.817 226.231 136.817 227.398C136.817 228.591 136.597 229.601 136.157 230.428C135.717 231.254 135.13 231.881 134.397 232.308C133.663 232.728 132.857 232.938 131.977 232.938ZM143.583 232.908C143.23 232.908 142.876 232.871 142.523 232.798C142.176 232.724 141.856 232.591 141.563 232.398C141.276 232.198 141.046 231.914 140.873 231.548C140.7 231.181 140.613 230.701 140.613 230.108C140.613 229.968 140.613 229.821 140.613 229.668C140.613 229.514 140.613 229.358 140.613 229.198V223.908H138.063V222.108H139.403C139.69 222.108 139.913 222.098 140.073 222.078C140.24 222.051 140.36 221.994 140.433 221.908C140.513 221.814 140.563 221.668 140.583 221.468C140.603 221.268 140.613 220.994 140.613 220.648V218.598H142.783V222.108H146.033V223.908H142.783V228.618C142.783 228.751 142.783 228.884 142.783 229.018C142.783 229.151 142.783 229.274 142.783 229.388C142.783 229.921 142.846 230.341 142.973 230.648C143.106 230.954 143.406 231.108 143.873 231.108C144.073 231.108 144.263 231.091 144.443 231.058C144.623 231.024 144.76 230.988 144.853 230.948V232.718C144.733 232.764 144.563 232.808 144.343 232.848C144.123 232.888 143.87 232.908 143.583 232.908ZM148.136 232.728V222.108H150.276V232.728H148.136ZM149.216 219.908C148.842 219.908 148.519 219.808 148.246 219.608C147.979 219.401 147.846 219.118 147.846 218.758C147.846 218.404 147.979 218.128 148.246 217.928C148.519 217.721 148.842 217.618 149.216 217.618C149.582 217.618 149.899 217.721 150.166 217.928C150.439 218.128 150.576 218.404 150.576 218.758C150.576 219.118 150.439 219.401 150.166 219.608C149.899 219.808 149.582 219.908 149.216 219.908ZM159.734 232.728V228.228C159.734 227.821 159.734 227.471 159.734 227.178C159.734 226.878 159.734 226.624 159.734 226.418C159.734 226.158 159.714 225.881 159.674 225.588C159.641 225.294 159.561 225.021 159.434 224.768C159.314 224.508 159.124 224.298 158.864 224.138C158.604 223.978 158.247 223.898 157.794 223.898C157.341 223.898 156.957 223.988 156.644 224.168C156.331 224.348 156.077 224.588 155.884 224.888C155.691 225.181 155.551 225.511 155.464 225.878C155.377 226.238 155.334 226.601 155.334 226.968L154.414 226.468C154.414 225.634 154.577 224.878 154.904 224.198C155.237 223.511 155.704 222.964 156.304 222.558C156.911 222.144 157.624 221.938 158.444 221.938C159.277 221.938 159.944 222.111 160.444 222.458C160.951 222.798 161.317 223.264 161.544 223.858C161.771 224.444 161.884 225.111 161.884 225.858C161.884 226.131 161.884 226.488 161.884 226.928C161.884 227.368 161.884 227.878 161.884 228.458V232.728H159.734ZM153.164 232.728V222.108H155.334V232.728H153.164ZM166.274 232.728V228.238C166.274 227.798 166.274 227.431 166.274 227.138C166.274 226.838 166.274 226.588 166.274 226.388C166.274 226.114 166.257 225.834 166.224 225.548C166.191 225.254 166.111 224.984 165.984 224.738C165.857 224.491 165.661 224.291 165.394 224.138C165.134 223.978 164.771 223.898 164.304 223.898C163.844 223.898 163.457 223.988 163.144 224.168C162.837 224.341 162.591 224.574 162.404 224.868C162.217 225.154 162.084 225.471 162.004 225.818C161.924 226.164 161.884 226.508 161.884 226.848L160.964 226.368C160.964 225.568 161.124 224.831 161.444 224.158C161.771 223.484 162.231 222.948 162.824 222.548C163.424 222.141 164.134 221.938 164.954 221.938C165.754 221.938 166.411 222.098 166.924 222.418C167.437 222.738 167.817 223.181 168.064 223.748C168.311 224.314 168.434 224.971 168.434 225.718C168.434 226.004 168.434 226.364 168.434 226.798C168.434 227.231 168.434 227.734 168.434 228.308V232.728H166.274ZM171.221 232.728V222.108H173.361V232.728H171.221ZM172.301 219.908C171.928 219.908 171.605 219.808 171.331 219.608C171.065 219.401 170.931 219.118 170.931 218.758C170.931 218.404 171.065 218.128 171.331 217.928C171.605 217.721 171.928 217.618 172.301 217.618C172.668 217.618 172.985 217.721 173.251 217.928C173.525 218.128 173.661 218.404 173.661 218.758C173.661 219.118 173.525 219.401 173.251 219.608C172.985 219.808 172.668 219.908 172.301 219.908ZM180.43 232.938C179.797 232.938 179.2 232.868 178.64 232.728C178.08 232.588 177.587 232.384 177.16 232.118C176.74 231.844 176.41 231.508 176.17 231.108C175.937 230.708 175.82 230.244 175.82 229.718C175.82 229.671 175.82 229.624 175.82 229.578C175.82 229.524 175.82 229.481 175.82 229.448H177.98C177.98 229.481 177.98 229.511 177.98 229.538C177.98 229.564 177.98 229.601 177.98 229.648C177.98 230.134 178.203 230.504 178.65 230.758C179.103 231.004 179.717 231.128 180.49 231.128C180.943 231.128 181.357 231.081 181.73 230.988C182.11 230.894 182.41 230.751 182.63 230.558C182.857 230.364 182.97 230.118 182.97 229.818C182.97 229.331 182.73 228.984 182.25 228.778C181.777 228.571 181.057 228.388 180.09 228.228C179.563 228.134 179.053 228.014 178.56 227.868C178.073 227.721 177.633 227.528 177.24 227.288C176.853 227.041 176.543 226.738 176.31 226.378C176.083 226.011 175.97 225.571 175.97 225.058C175.97 224.391 176.17 223.824 176.57 223.358C176.97 222.891 177.51 222.538 178.19 222.298C178.87 222.058 179.62 221.938 180.44 221.938C181.233 221.938 181.967 222.068 182.64 222.328C183.32 222.581 183.867 222.951 184.28 223.438C184.693 223.918 184.9 224.508 184.9 225.208C184.9 225.234 184.9 225.264 184.9 225.298C184.9 225.331 184.9 225.361 184.9 225.388H182.75C182.75 225.361 182.75 225.338 182.75 225.318C182.75 225.298 182.75 225.274 182.75 225.248C182.75 224.901 182.64 224.618 182.42 224.398C182.2 224.178 181.913 224.014 181.56 223.908C181.213 223.794 180.843 223.738 180.45 223.738C180.09 223.738 179.727 223.778 179.36 223.858C179 223.931 178.7 224.061 178.46 224.248C178.22 224.428 178.1 224.674 178.1 224.988C178.1 225.308 178.217 225.564 178.45 225.758C178.683 225.944 179.013 226.101 179.44 226.228C179.867 226.348 180.363 226.458 180.93 226.558C181.45 226.651 181.957 226.771 182.45 226.918C182.943 227.058 183.387 227.244 183.78 227.478C184.18 227.711 184.497 228.011 184.73 228.378C184.97 228.744 185.09 229.194 185.09 229.728C185.09 230.281 184.963 230.758 184.71 231.158C184.457 231.558 184.11 231.891 183.67 232.158C183.237 232.418 182.74 232.611 182.18 232.738C181.627 232.871 181.043 232.938 180.43 232.938ZM191.845 232.908C191.491 232.908 191.138 232.871 190.785 232.798C190.438 232.724 190.118 232.591 189.825 232.398C189.538 232.198 189.308 231.914 189.135 231.548C188.961 231.181 188.875 230.701 188.875 230.108C188.875 229.968 188.875 229.821 188.875 229.668C188.875 229.514 188.875 229.358 188.875 229.198V223.908H186.325V222.108H187.665C187.951 222.108 188.175 222.098 188.335 222.078C188.501 222.051 188.621 221.994 188.695 221.908C188.775 221.814 188.825 221.668 188.845 221.468C188.865 221.268 188.875 220.994 188.875 220.648V218.598H191.045V222.108H194.295V223.908H191.045V228.618C191.045 228.751 191.045 228.884 191.045 229.018C191.045 229.151 191.045 229.274 191.045 229.388C191.045 229.921 191.108 230.341 191.235 230.648C191.368 230.954 191.668 231.108 192.135 231.108C192.335 231.108 192.525 231.091 192.705 231.058C192.885 231.024 193.021 230.988 193.115 230.948V232.718C192.995 232.764 192.825 232.808 192.605 232.848C192.385 232.888 192.131 232.908 191.845 232.908ZM196.397 232.728V222.108H198.537V232.728H196.397ZM197.477 219.908C197.104 219.908 196.781 219.808 196.507 219.608C196.241 219.401 196.107 219.118 196.107 218.758C196.107 218.404 196.241 218.128 196.507 217.928C196.781 217.721 197.104 217.618 197.477 217.618C197.844 217.618 198.161 217.721 198.427 217.928C198.701 218.128 198.837 218.404 198.837 218.758C198.837 219.118 198.701 219.401 198.427 219.608C198.161 219.808 197.844 219.908 197.477 219.908ZM206.576 232.938C205.509 232.938 204.553 232.714 203.706 232.268C202.866 231.814 202.203 231.171 201.716 230.338C201.236 229.504 200.996 228.524 200.996 227.398C200.996 226.271 201.236 225.301 201.716 224.488C202.203 223.668 202.866 223.038 203.706 222.598C204.553 222.158 205.509 221.938 206.576 221.938C207.383 221.938 208.099 222.061 208.726 222.308C209.353 222.548 209.883 222.868 210.316 223.268C210.749 223.668 211.079 224.108 211.306 224.588C211.533 225.068 211.646 225.548 211.646 226.028C211.646 226.034 211.646 226.044 211.646 226.058C211.646 226.071 211.646 226.084 211.646 226.098H209.496C209.496 226.064 209.493 226.028 209.486 225.988C209.479 225.941 209.473 225.898 209.466 225.858C209.413 225.464 209.259 225.114 209.006 224.808C208.753 224.501 208.419 224.258 208.006 224.078C207.593 223.898 207.109 223.808 206.556 223.808C205.949 223.808 205.389 223.941 204.876 224.208C204.369 224.468 203.963 224.864 203.656 225.398C203.349 225.931 203.196 226.598 203.196 227.398C203.196 228.198 203.346 228.871 203.646 229.418C203.953 229.958 204.359 230.368 204.866 230.648C205.379 230.928 205.943 231.068 206.556 231.068C207.216 231.068 207.756 230.968 208.176 230.768C208.596 230.561 208.913 230.288 209.126 229.948C209.339 229.601 209.463 229.228 209.496 228.828H211.646C211.646 229.308 211.536 229.794 211.316 230.288C211.096 230.774 210.773 231.218 210.346 231.618C209.919 232.018 209.389 232.338 208.756 232.578C208.129 232.818 207.403 232.938 206.576 232.938Z" fill="black"/>
<defs>
<filter id="filter0_iii_1_603" x="48.963" y="36.8646" width="130.366" height="162.402" filterUnits="userSpaceOnUse" color-interpolation-filters="sRGB">
<feFlood flood-opacity="0" result="BackgroundImageFix"/>
<feBlend mode="normal" in="SourceGraphic" in2="BackgroundImageFix" result="shape"/>
<feColorMatrix in="SourceAlpha" type="matrix" values="0 0 0 0 0 0 0 0 0 0 0 0 0 0 0 0 0 0 127 0" result="hardAlpha"/>
<feMorphology radius="2.70941" operator="erode" in="SourceAlpha" result="effect1_innerShadow_1_603"/>
<feOffset dx="7.11221" dy="4.40279"/>
<feGaussianBlur stdDeviation="8.12823"/>
<feComposite in2="hardAlpha" operator="arithmetic" k2="-1" k3="1"/>
<feColorMatrix type="matrix" values="0 0 0 0 0.682806 0 0 0 0 0.0652778 0 0 0 0 0.783333 0 0 0 0.14 0"/>
<feBlend mode="normal" in2="shape" result="effect1_innerShadow_1_603"/>
<feColorMatrix in="SourceAlpha" type="matrix" values="0 0 0 0 0 0 0 0 0 0 0 0 0 0 0 0 0 0 127 0" result="hardAlpha"/>
<feOffset dy="-6.09618"/>
<feGaussianBlur stdDeviation="5.24949"/>
<feComposite in2="hardAlpha" operator="arithmetic" k2="-1" k3="1"/>
<feColorMatrix type="matrix" values="0 0 0 0 0.943639 0 0 0 0 0.223611 0 0 0 0 0.958333 0 0 0 0.44 0"/>
<feBlend mode="normal" in2="effect1_innerShadow_1_603" result="effect2_innerShadow_1_603"/>
<feColorMatrix in="SourceAlpha" type="matrix" values="0 0 0 0 0 0 0 0 0 0 0 0 0 0 0 0 0 0 127 0" result="hardAlpha"/>
<feOffset dx="-3.72544" dy="5.41882"/>
<feGaussianBlur stdDeviation="5.24949"/>
<feComposite in2="hardAlpha" operator="arithmetic" k2="-1" k3="1"/>
<feColorMatrix type="matrix" values="0 0 0 0 1 0 0 0 0 1 0 0 0 0 1 0 0 0 0.59 0"/>
<feBlend mode="normal" in2="effect2_innerShadow_1_603" result="effect3_innerShadow_1_603"/>
</filter>
<filter id="filter1_di_1_603" x="109.621" y="91.5537" width="42.3211" height="39.6601" filterUnits="userSpaceOnUse" color-interpolation-filters="sRGB">
<feFlood flood-opacity="0" result="BackgroundImageFix"/>
<feColorMatrix in="SourceAlpha" type="matrix" values="0 0 0 0 0 0 0 0 0 0 0 0 0 0 0 0 0 0 127 0" result="hardAlpha"/>
<feOffset dy="1.64354"/>
<feGaussianBlur stdDeviation="3.28707"/>
<feColorMatrix type="matrix" values="0 0 0 0 0 0 0 0 0 0 0 0 0 0 0 0 0 0 0.25 0"/>
<feBlend mode="normal" in2="BackgroundImageFix" result="effect1_dropShadow_1_603"/>
<feBlend mode="normal" in="SourceGraphic" in2="effect1_dropShadow_1_603" result="shape"/>
<feColorMatrix in="SourceAlpha" type="matrix" values="0 0 0 0 0 0 0 0 0 0 0 0 0 0 0 0 0 0 127 0" result="hardAlpha"/>
<feOffset dy="-1.45864"/>
<feGaussianBlur stdDeviation="3.6466"/>
<feComposite in2="hardAlpha" operator="arithmetic" k2="-1" k3="1"/>
<feColorMatrix type="matrix" values="0 0 0 0 0 0 0 0 0 0 0 0 0 0 0 0 0 0 0.25 0"/>
<feBlend mode="normal" in2="shape" result="effect2_innerShadow_1_603"/>
</filter>
<filter id="filter2_i_1_603" x="123.022" y="103.312" width="15.5098" height="15.5097" filterUnits="userSpaceOnUse" color-interpolation-filters="sRGB">
<feFlood flood-opacity="0" result="BackgroundImageFix"/>
<feBlend mode="normal" in="SourceGraphic" in2="BackgroundImageFix" result="shape"/>
<feColorMatrix in="SourceAlpha" type="matrix" values="0 0 0 0 0 0 0 0 0 0 0 0 0 0 0 0 0 0 127 0" result="hardAlpha"/>
<feMorphology radius="12.8197" operator="dilate" in="SourceAlpha" result="effect1_innerShadow_1_603"/>
<feOffset dx="4.45904" dy="-13.3771"/>
<feGaussianBlur stdDeviation="5.01642"/>
<feComposite in2="hardAlpha" operator="arithmetic" k2="-1" k3="1"/>
<feColorMatrix type="matrix" values="0 0 0 0 0.462111 0 0 0 0 0.203767 0 0 0 0 0.504167 0 0 0 0.35 0"/>
<feBlend mode="normal" in2="shape" result="effect1_innerShadow_1_603"/>
</filter>
<filter id="filter3_di_1_603" x="72.2296" y="91.5536" width="42.3211" height="39.6599" filterUnits="userSpaceOnUse" color-interpolation-filters="sRGB">
<feFlood flood-opacity="0" result="BackgroundImageFix"/>
<feColorMatrix in="SourceAlpha" type="matrix" values="0 0 0 0 0 0 0 0 0 0 0 0 0 0 0 0 0 0 127 0" result="hardAlpha"/>
<feOffset dy="1.64354"/>
<feGaussianBlur stdDeviation="3.28707"/>
<feColorMatrix type="matrix" values="0 0 0 0 0 0 0 0 0 0 0 0 0 0 0 0 0 0 0.25 0"/>
<feBlend mode="normal" in2="BackgroundImageFix" result="effect1_dropShadow_1_603"/>
<feBlend mode="normal" in="SourceGraphic" in2="effect1_dropShadow_1_603" result="shape"/>
<feColorMatrix in="SourceAlpha" type="matrix" values="0 0 0 0 0 0 0 0 0 0 0 0 0 0 0 0 0 0 127 0" result="hardAlpha"/>
<feOffset dy="-1.45864"/>
<feGaussianBlur stdDeviation="3.6466"/>
<feComposite in2="hardAlpha" operator="arithmetic" k2="-1" k3="1"/>
<feColorMatrix type="matrix" values="0 0 0 0 0 0 0 0 0 0 0 0 0 0 0 0 0 0 0.25 0"/>
<feBlend mode="normal" in2="shape" result="effect2_innerShadow_1_603"/>
</filter>
<filter id="filter4_i_1_603" x="85.6309" y="103.312" width="15.5098" height="15.5097" filterUnits="userSpaceOnUse" color-interpolation-filters="sRGB">
<feFlood flood-opacity="0" result="BackgroundImageFix"/>
<feBlend mode="normal" in="SourceGraphic" in2="BackgroundImageFix" result="shape"/>
<feColorMatrix in="SourceAlpha" type="matrix" values="0 0 0 0 0 0 0 0 0 0 0 0 0 0 0 0 0 0 127 0" result="hardAlpha"/>
<feMorphology radius="12.8197" operator="dilate" in="SourceAlpha" result="effect1_innerShadow_1_603"/>
<feOffset dx="4.45904" dy="-13.3771"/>
<feGaussianBlur stdDeviation="5.01642"/>
<feComposite in2="hardAlpha" operator="arithmetic" k2="-1" k3="1"/>
<feColorMatrix type="matrix" values="0 0 0 0 0.462111 0 0 0 0 0.203767 0 0 0 0 0.504167 0 0 0 0.35 0"/>
<feBlend mode="normal" in2="shape" result="effect1_innerShadow_1_603"/>
</filter>
<filter id="filter5_diiii_1_603" x="72.3224" y="115.727" width="79.9382" height="52.2508" filterUnits="userSpaceOnUse" color-interpolation-filters="sRGB">
<feFlood flood-opacity="0" result="BackgroundImageFix"/>
<feColorMatrix in="SourceAlpha" type="matrix" values="0 0 0 0 0 0 0 0 0 0 0 0 0 0 0 0 0 0 127 0" result="hardAlpha"/>
<feOffset dy="6.84807"/>
<feGaussianBlur stdDeviation="6.84807"/>
<feColorMatrix type="matrix" values="0 0 0 0 0.0298758 0 0 0 0 0.0216858 0 0 0 0 0.0308333 0 0 0 0.24 0"/>
<feBlend mode="normal" in2="BackgroundImageFix" result="effect1_dropShadow_1_603"/>
<feBlend mode="normal" in="SourceGraphic" in2="effect1_dropShadow_1_603" result="shape"/>
<feColorMatrix in="SourceAlpha" type="matrix" values="0 0 0 0 0 0 0 0 0 0 0 0 0 0 0 0 0 0 127 0" result="hardAlpha"/>
<feOffset dy="2.13051"/>
<feGaussianBlur stdDeviation="1.06526"/>
<feComposite in2="hardAlpha" operator="arithmetic" k2="-1" k3="1"/>
<feColorMatrix type="matrix" values="0 0 0 0 0.17328 0 0 0 0 0.125777 0 0 0 0 0.178833 0 0 0 1 0"/>
<feBlend mode="normal" in2="shape" result="effect2_innerShadow_1_603"/>
<feColorMatrix in="SourceAlpha" type="matrix" values="0 0 0 0 0 0 0 0 0 0 0 0 0 0 0 0 0 0 127 0" result="hardAlpha"/>
<feOffset dy="-1.06526"/>
<feGaussianBlur stdDeviation="0.532628"/>
<feComposite in2="hardAlpha" operator="arithmetic" k2="-1" k3="1"/>
<feColorMatrix type="matrix" values="0 0 0 0 0.119503 0 0 0 0 0.086743 0 0 0 0 0.123333 0 0 0 1 0"/>
<feBlend mode="normal" in2="effect2_innerShadow_1_603" result="effect3_innerShadow_1_603"/>
<feColorMatrix in="SourceAlpha" type="matrix" values="0 0 0 0 0 0 0 0 0 0 0 0 0 0 0 0 0 0 127 0" result="hardAlpha"/>
<feMorphology radius="10.8679" operator="dilate" in="SourceAlpha" result="effect4_innerShadow_1_603"/>
<feOffset dx="3.78013" dy="-3.69796"/>
<feGaussianBlur stdDeviation="4.25265"/>
<feComposite in2="hardAlpha" operator="arithmetic" k2="-1" k3="1"/>
<feColorMatrix type="matrix" values="0 0 0 0 0.462111 0 0 0 0 0.203767 0 0 0 0 0.504167 0 0 0 0.35 0"/>
<feBlend mode="normal" in2="effect3_innerShadow_1_603" result="effect4_innerShadow_1_603"/>
<feColorMatrix in="SourceAlpha" type="matrix" values="0 0 0 0 0 0 0 0 0 0 0 0 0 0 0 0 0 0 127 0" result="hardAlpha"/>
<feMorphology radius="10.8679" operator="dilate" in="SourceAlpha" result="effect5_innerShadow_1_603"/>
<feOffset dx="3.78013" dy="-3.69796"/>
<feGaussianBlur stdDeviation="4.25265"/>
<feComposite in2="hardAlpha" operator="arithmetic" k2="-1" k3="1"/>
<feColorMatrix type="matrix" values="0 0 0 0 0.462111 0 0 0 0 0.203767 0 0 0 0 0.504167 0 0 0 0.35 0"/>
<feBlend mode="normal" in2="effect4_innerShadow_1_603" result="effect5_innerShadow_1_603"/>
</filter>
<filter id="filter6_i_1_603" x="84.7656" y="6.68216" width="30.0474" height="35.9371" filterUnits="userSpaceOnUse" color-interpolation-filters="sRGB">
<feFlood flood-opacity="0" result="BackgroundImageFix"/>
<feBlend mode="normal" in="SourceGraphic" in2="BackgroundImageFix" result="shape"/>
<feColorMatrix in="SourceAlpha" type="matrix" values="0 0 0 0 0 0 0 0 0 0 0 0 0 0 0 0 0 0 127 0" result="hardAlpha"/>
<feOffset dx="2.78767" dy="1.39384"/>
<feGaussianBlur stdDeviation="3.87176"/>
<feComposite in2="hardAlpha" operator="arithmetic" k2="-1" k3="1"/>
<feColorMatrix type="matrix" values="0 0 0 0 0 0 0 0 0 0 0 0 0 0 0 0 0 0 0.25 0"/>
<feBlend mode="normal" in2="shape" result="effect1_innerShadow_1_603"/>
</filter>
<filter id="filter7_f_1_603" x="107.477" y="42.9821" width="12.2939" height="5.62124" filterUnits="userSpaceOnUse" color-interpolation-filters="sRGB">
<feFlood flood-opacity="0" result="BackgroundImageFix"/>
<feBlend mode="normal" in="SourceGraphic" in2="BackgroundImageFix" result="shape"/>
<feGaussianBlur stdDeviation="0.802485" result="effect1_foregroundBlur_1_603"/>
</filter>
<filter id="filter8_f_1_603" x="53.3653" y="120.712" width="132.565" height="89.4522" filterUnits="userSpaceOnUse" color-interpolation-filters="sRGB">
<feFlood flood-opacity="0" result="BackgroundImageFix"/>
<feBlend mode="normal" in="SourceGraphic" in2="BackgroundImageFix" result="shape"/>
<feGaussianBlur stdDeviation="8.02485" result="effect1_foregroundBlur_1_603"/>
</filter>
<radialGradient id="paint0_radial_1_603" cx="0" cy="0" r="1" gradientUnits="userSpaceOnUse" gradientTransform="translate(112.393 171.938) rotate(84.5862) scale(22.0089 34.0873)">
<stop stop-color="#FFBB0C"/>
<stop offset="1" stop-color="#FFC907"/>
</radialGradient>
<linearGradient id="paint1_linear_1_603" x1="112.291" y1="97.7168" x2="112.291" y2="147.434" gradientUnits="userSpaceOnUse">
<stop stop-color="#201721"/>
<stop offset="1" stop-color="#2B1F2C"/>
</linearGradient>
<linearGradient id="paint2_linear_1_603" x1="112.291" y1="97.7168" x2="112.291" y2="147.434" gradientUnits="userSpaceOnUse">
<stop stop-color="#201721"/>
<stop offset="1" stop-color="#2B1F2C"/>
</linearGradient>
<linearGradient id="paint3_linear_1_603" x1="107.584" y1="17.7982" x2="87.1799" y2="28.3128" gradientUnits="userSpaceOnUse">
<stop stop-color="#008B0E"/>
<stop offset="1" stop-color="#038B00" stop-opacity="0"/>
</linearGradient>
<linearGradient id="paint4_linear_1_603" x1="99.4297" y1="14.9014" x2="108.708" y2="28.6458" gradientUnits="userSpaceOnUse">
<stop stop-color="white"/>
<stop offset="1" stop-color="white" stop-opacity="0"/>
</linearGradient>
</defs>
</svg>
