<svg width="256" height="267" viewBox="0 0 256 267" fill="none" xmlns="http://www.w3.org/2000/svg">
<g filter="url(#filter0_iii_1_625)">
<path fill-rule="evenodd" clip-rule="evenodd" d="M76.9655 174.386C66.2425 165.321 59.7873 151.942 56.851 136.434C55.5661 129.648 54.9551 122.455 54.9551 115.036C54.9551 83.3791 72.5821 55.4397 96.8523 46.0146C96.8817 46.0032 96.9111 45.9919 96.9405 45.9808C102.205 43.962 106.801 43.9769 112.954 43.9969L112.954 43.9969L112.954 43.9969L112.954 43.9969L112.954 43.9969L112.954 43.9969L112.955 43.9969L112.955 43.9969L112.955 43.9969L112.955 43.9969L112.955 43.9969C113.345 43.9982 113.74 43.9995 114.143 44.0002L114.144 44.0001C120.859 41.362 128.869 44.2399 135.272 47.1418C146.712 52.3219 156.514 61.6751 163.457 73.5434C169.422 83.739 173.276 95.7909 174.243 108.648C174.402 110.757 174.483 112.888 174.483 115.036C174.483 147.335 162.901 175.372 134.557 184.049C132.763 189.653 125.466 193.848 116.736 193.848C108.633 193.848 101.764 190.233 99.3849 185.232C90.4569 183.259 83.0289 179.512 76.9655 174.386Z" fill="url(#paint0_radial_1_625)"/>
</g>
<g filter="url(#filter1_i_1_625)">
<path d="M106.083 115.857C107.699 115.857 109.041 114.532 108.694 112.954C108.144 110.449 106.888 108.131 105.046 106.289C102.508 103.751 99.0666 102.326 95.4778 102.326C91.8891 102.326 88.4473 103.751 85.9096 106.289C84.1627 108.036 82.9427 110.211 82.3521 112.568C81.906 114.348 83.4338 115.857 85.2686 115.857C86.9888 115.857 88.325 114.399 89.0562 112.842C89.402 112.105 89.875 111.427 90.4613 110.841C91.7917 109.51 93.5963 108.763 95.4778 108.763C97.3594 108.763 99.1639 109.51 100.494 110.841C100.986 111.332 101.397 111.887 101.721 112.488C102.642 114.194 104.144 115.857 106.083 115.857Z" fill="#C4C4C4"/>
<path d="M106.083 115.857C107.699 115.857 109.041 114.532 108.694 112.954C108.144 110.449 106.888 108.131 105.046 106.289C102.508 103.751 99.0666 102.326 95.4778 102.326C91.8891 102.326 88.4473 103.751 85.9096 106.289C84.1627 108.036 82.9427 110.211 82.3521 112.568C81.906 114.348 83.4338 115.857 85.2686 115.857C86.9888 115.857 88.325 114.399 89.0562 112.842C89.402 112.105 89.875 111.427 90.4613 110.841C91.7917 109.51 93.5963 108.763 95.4778 108.763C97.3594 108.763 99.1639 109.51 100.494 110.841C100.986 111.332 101.397 111.887 101.721 112.488C102.642 114.194 104.144 115.857 106.083 115.857Z" fill="#221725"/>
</g>
<g filter="url(#filter2_i_1_625)">
<path d="M144.129 115.857C145.745 115.857 147.087 114.532 146.74 112.954C146.19 110.449 144.934 108.131 143.092 106.289C140.554 103.751 137.113 102.326 133.524 102.326C129.935 102.326 126.493 103.751 123.955 106.289C122.209 108.036 120.989 110.211 120.398 112.568C119.952 114.348 121.48 115.857 123.315 115.857C125.035 115.857 126.371 114.399 127.102 112.842C127.448 112.105 127.921 111.427 128.507 110.841C129.838 109.51 131.642 108.763 133.524 108.763C135.405 108.763 137.21 109.51 138.54 110.841C139.031 111.332 139.443 111.887 139.767 112.488C140.688 114.194 142.19 115.857 144.129 115.857Z" fill="#C4C4C4"/>
<path d="M144.129 115.857C145.745 115.857 147.087 114.532 146.74 112.954C146.19 110.449 144.934 108.131 143.092 106.289C140.554 103.751 137.113 102.326 133.524 102.326C129.935 102.326 126.493 103.751 123.955 106.289C122.209 108.036 120.989 110.211 120.398 112.568C119.952 114.348 121.48 115.857 123.315 115.857C125.035 115.857 126.371 114.399 127.102 112.842C127.448 112.105 127.921 111.427 128.507 110.841C129.838 109.51 131.642 108.763 133.524 108.763C135.405 108.763 137.21 109.51 138.54 110.841C139.031 111.332 139.443 111.887 139.767 112.488C140.688 114.194 142.19 115.857 144.129 115.857Z" fill="#221725"/>
</g>
<mask id="mask0_1_625" style="mask-type:alpha" maskUnits="userSpaceOnUse" x="90" y="119" width="49" height="27">
<path d="M130.149 145.244C132.364 145.244 133.472 145.244 134.872 144.581C136.696 143.719 138.712 140.698 138.811 138.683C138.886 137.136 138.66 136.591 138.207 135.5C136.942 132.449 135.081 129.644 132.7 127.263C127.931 122.494 121.464 119.815 114.72 119.815C107.975 119.815 101.508 122.494 96.7389 127.263C94.2076 129.794 92.265 132.804 90.9995 136.08C90.5601 137.218 90.3404 137.786 90.4374 139.216C90.5654 141.103 92.441 143.839 94.1551 144.638C95.4541 145.244 96.5244 145.244 98.6651 145.244L114.72 145.244L130.149 145.244Z" fill="url(#paint1_linear_1_625)"/>
</mask>
<g mask="url(#mask0_1_625)">
<g filter="url(#filter3_i_1_625)">
<path d="M130.149 145.244C132.364 145.244 133.472 145.244 134.872 144.581C136.696 143.719 138.712 140.698 138.811 138.683C138.886 137.136 138.66 136.591 138.207 135.5C136.942 132.449 135.081 129.644 132.7 127.263C127.931 122.494 121.464 119.815 114.72 119.815C107.975 119.815 101.508 122.494 96.7389 127.263C94.2076 129.794 92.265 132.804 90.9995 136.08C90.5601 137.218 90.3404 137.786 90.4374 139.216C90.5654 141.103 92.441 143.839 94.1551 144.638C95.4541 145.244 96.5244 145.244 98.6651 145.244L114.72 145.244L130.149 145.244Z" fill="url(#paint2_linear_1_625)"/>
</g>
<g filter="url(#filter4_i_1_625)">
<path d="M139.297 121.31C140.259 123.516 138.709 126.043 136.301 126.043L93.5211 126.043C91.1716 126.043 88.6489 124.104 89.8025 122.057C90.7052 120.456 90.8412 117.739 92.6796 117.739L137.773 117.739C139.107 117.739 138.764 120.087 139.297 121.31Z" fill="white"/>
</g>
</g>
<g filter="url(#filter5_dii_1_625)">
<path d="M75.6705 95.0099C75.6705 96.4516 76.8443 97.6382 78.2733 97.4469C79.9539 97.2218 81.602 96.7792 83.1753 96.1275C85.5546 95.142 87.7165 93.6975 89.5376 91.8764C91.3586 90.0554 92.8031 87.8935 93.7887 85.5142C94.4404 83.9408 94.8829 82.2928 95.108 80.6122C95.2993 79.1832 94.1127 78.0094 92.671 78.0094C91.2293 78.0094 90.0845 79.1875 89.8244 80.6056C89.6418 81.601 89.3543 82.5767 88.9652 83.5162C88.242 85.2621 87.182 86.8484 85.8458 88.1847C84.5096 89.5209 82.9232 90.5809 81.1773 91.304C80.2379 91.6932 79.2621 91.9807 78.2667 92.1633C76.8487 92.4234 75.6705 93.5681 75.6705 95.0099Z" fill="url(#paint3_linear_1_625)"/>
</g>
<g filter="url(#filter6_dii_1_625)">
<path d="M152.545 95.0098C152.545 96.4515 151.371 97.6381 149.943 97.4468C148.262 97.2217 146.614 96.7792 145.041 96.1275C142.661 95.1419 140.499 93.6974 138.678 91.8764C136.857 90.0553 135.413 87.8934 134.427 85.5141C133.775 83.9408 133.333 82.2927 133.108 80.6121C132.916 79.1831 134.103 78.0093 135.545 78.0093C136.987 78.0093 138.131 79.1875 138.391 80.6055C138.574 81.6009 138.862 82.5767 139.251 83.5161C139.974 85.262 141.034 86.8484 142.37 88.1846C143.706 89.5208 145.293 90.5808 147.038 91.304C147.978 91.6931 148.954 91.9806 149.949 92.1632C151.367 92.4233 152.545 93.5681 152.545 95.0098Z" fill="url(#paint4_linear_1_625)"/>
</g>
<g filter="url(#filter7_i_1_625)">
<path d="M109.827 39.7839C117.526 34.3706 114.37 22.0936 107.159 15.7397C99.9538 9.36494 89.4408 6.07119 88.445 6.77596C87.4493 7.48073 84.8205 21.4143 91.0067 31.1539C97.1929 40.8935 105.123 43.0966 109.827 39.7839Z" fill="url(#paint5_linear_1_625)"/>
</g>
<path d="M109.54 39.5653L110.617 38.7487C114.053 43.32 116.014 45.0624 116.034 45.0691L115.146 46.0842C115.062 46.0229 113.074 44.2601 109.54 39.5653Z" fill="#318C1C"/>
<path d="M100.778 15.2668C100.7 15.1153 100.704 14.9214 100.8 14.7678C100.956 14.5304 101.267 14.4574 101.497 14.6C102.984 15.5239 105.144 17.1461 107.044 19.6512C109.332 22.671 110.643 26.1945 110.947 30.132C110.971 30.4157 110.759 30.6469 110.476 30.6711C110.192 30.6954 109.961 30.4834 109.936 30.1997C109.308 21.8124 104.052 17.3603 100.981 15.4583C100.883 15.404 100.813 15.3356 100.778 15.2668Z" fill="url(#paint6_linear_1_625)"/>
<g filter="url(#filter8_f_1_625)">
<ellipse cx="115.891" cy="45.7927" rx="4.54204" ry="1.20565" fill="#744500" fill-opacity="0.6"/>
</g>
<g filter="url(#filter9_f_1_625)">
<path d="M99.731 183.679C101.889 191.61 112.659 193.304 117.92 193.849C131.52 193.849 137.712 184.865 139.109 180.373C165.001 172.307 174.231 138.663 176.913 125.131C155.747 156.271 96.2787 165.278 69.2588 164.074C69.9497 169.907 91.095 180.444 99.731 183.679Z" fill="#EBAD1E"/>
</g>
<path d="M90.7525 160.687C67.3697 160.687 56.9613 143.971 54.4671 132.963C54.2753 132.124 54.8029 131.261 55.6423 131.069C56.4817 130.877 57.345 131.405 57.5369 132.244C60.103 143.516 71.8304 161.359 99.4101 156.754C100.273 156.61 101.089 157.186 101.233 158.049C101.377 158.912 100.801 159.728 99.9377 159.872C96.6761 160.447 93.6064 160.687 90.7525 160.687Z" fill="#1D1D1D"/>
<path d="M97.805 164.716C93.2004 164.716 90.6822 162.366 90.2505 159.92C89.7949 157.402 91.4257 153.972 97.4932 152.581C98.3326 152.389 99.196 152.917 99.3878 153.756C99.5797 154.596 99.0521 155.459 98.2127 155.651C94.5674 156.49 93.1524 158.169 93.3682 159.368C93.6081 160.735 95.8864 161.91 99.2919 161.479C100.155 161.383 100.947 161.982 101.043 162.846C101.163 163.709 100.539 164.5 99.6756 164.596C99.0281 164.668 98.4046 164.716 97.805 164.716Z" fill="#1D1D1D"/>
<path d="M138.165 160.688C135.311 160.688 132.265 160.448 129.004 159.897C128.14 159.753 127.565 158.937 127.709 158.074C127.852 157.211 128.668 156.635 129.531 156.779C157.111 161.36 168.838 143.517 171.404 132.269C171.596 131.43 172.436 130.878 173.299 131.094C174.138 131.286 174.69 132.125 174.474 132.988C171.956 143.972 161.548 160.688 138.165 160.688Z" fill="#1D1D1D"/>
<path d="M131.116 164.716C130.516 164.716 129.893 164.668 129.245 164.596C128.382 164.476 127.758 163.709 127.878 162.846C127.998 161.982 128.765 161.359 129.629 161.479C133.034 161.91 135.313 160.735 135.552 159.368C135.768 158.169 134.329 156.49 130.708 155.651C129.869 155.459 129.341 154.62 129.533 153.756C129.725 152.917 130.588 152.389 131.427 152.581C137.495 153.972 139.126 157.426 138.67 159.92C138.238 162.366 135.72 164.716 131.116 164.716Z" fill="#1D1D1D"/>
<ellipse cx="3.59182" cy="2.44077" rx="3.59182" ry="2.44077" transform="matrix(0.769784 0.638304 0.638304 -0.769784 147.055 69.7333)" fill="#878787" fill-opacity="0.2"/>
<ellipse cx="3.59182" cy="2.44077" rx="3.59182" ry="2.44077" transform="matrix(0.769784 0.638304 0.638304 -0.769784 159.54 83.1107)" fill="#878787" fill-opacity="0.2"/>
<ellipse cx="67.0475" cy="86.0895" rx="3.59182" ry="2.44077" transform="rotate(-39.6655 67.0475 86.0895)" fill="#B77D00" fill-opacity="0.37"/>
<ellipse cx="77.6237" cy="76.3782" rx="3.59182" ry="2.44077" transform="rotate(-39.6655 77.6237 76.3782)" fill="#B77D00" fill-opacity="0.37"/>
<ellipse cx="87.0377" cy="65.9741" rx="3.59182" ry="2.44077" transform="rotate(-39.6655 87.0377 65.9741)" fill="#B77D00" fill-opacity="0.37"/>
<ellipse cx="75.693" cy="64.4866" rx="3.59182" ry="2.44077" transform="rotate(-39.6655 75.693 64.4866)" fill="#B77D00" fill-opacity="0.37"/>
<path d="M11.3355 219.778H6.86547L7.54547 218.638V232.728H5.37547V218.638L6.12547 219.778H1.59547V217.978H11.3355V219.778ZM21.0564 232.728V228.838C21.0564 228.664 21.0564 228.454 21.0564 228.208C21.0564 227.961 21.0564 227.711 21.0564 227.458C21.0564 227.198 21.0564 226.981 21.0564 226.808C21.0564 225.854 20.8597 225.131 20.4664 224.638C20.0797 224.144 19.4431 223.898 18.5564 223.898C17.9631 223.898 17.4497 224.014 17.0164 224.248C16.5831 224.481 16.2464 224.801 16.0064 225.208C15.7731 225.614 15.6564 226.078 15.6564 226.598L14.6364 226.178C14.6364 225.371 14.8297 224.651 15.2164 224.018C15.6097 223.378 16.1464 222.871 16.8264 222.498C17.5131 222.124 18.2964 221.938 19.1764 221.938C20.4564 221.938 21.4497 222.321 22.1564 223.088C22.8697 223.848 23.2264 224.908 23.2264 226.268C23.2264 226.614 23.2264 227.024 23.2264 227.498C23.2264 227.964 23.2264 228.474 23.2264 229.028V232.728H21.0564ZM13.4864 232.728V217.098H15.6564V232.728H13.4864ZM26.7369 228.178V226.488H34.5569L34.2569 226.988C34.2569 226.948 34.2569 226.908 34.2569 226.868C34.2569 226.821 34.2569 226.781 34.2569 226.748C34.2569 226.208 34.1402 225.711 33.9069 225.258C33.6735 224.798 33.3235 224.431 32.8569 224.158C32.3969 223.878 31.8202 223.738 31.1269 223.738C30.4335 223.738 29.8235 223.888 29.2969 224.188C28.7769 224.481 28.3702 224.901 28.0769 225.448C27.7902 225.988 27.6469 226.638 27.6469 227.398C27.6469 228.171 27.7869 228.838 28.0669 229.398C28.3469 229.951 28.7502 230.378 29.2769 230.678C29.8035 230.978 30.4335 231.128 31.1669 231.128C31.6802 231.128 32.1235 231.078 32.4969 230.978C32.8769 230.871 33.1869 230.731 33.4269 230.558C33.6735 230.384 33.8602 230.198 33.9869 229.998C34.1135 229.791 34.1869 229.588 34.2069 229.388H36.3669C36.3269 229.821 36.1835 230.251 35.9369 230.678C35.6969 231.098 35.3535 231.481 34.9069 231.828C34.4669 232.168 33.9269 232.441 33.2869 232.648C32.6535 232.848 31.9235 232.948 31.0969 232.948C29.9902 232.948 29.0202 232.714 28.1869 232.248C27.3535 231.781 26.7035 231.134 26.2369 230.308C25.7702 229.474 25.5369 228.521 25.5369 227.448C25.5369 226.354 25.7735 225.394 26.2469 224.568C26.7202 223.741 27.3769 223.098 28.2169 222.638C29.0569 222.171 30.0202 221.938 31.1069 221.938C32.2135 221.938 33.1702 222.171 33.9769 222.638C34.7902 223.104 35.4169 223.748 35.8569 224.568C36.2969 225.388 36.5169 226.331 36.5169 227.398C36.5169 227.524 36.5135 227.671 36.5069 227.838C36.5002 228.004 36.4902 228.118 36.4769 228.178H26.7369ZM55.1056 227.508C55.1056 228.121 54.9923 228.744 54.7656 229.378C54.539 230.011 54.1956 230.598 53.7356 231.138C53.2756 231.678 52.6956 232.114 51.9956 232.448C51.2956 232.774 50.4723 232.938 49.5256 232.938C48.239 232.938 47.1423 232.614 46.2356 231.968C45.3356 231.314 44.649 230.418 44.1756 229.278C43.7023 228.138 43.4656 226.831 43.4656 225.358C43.4656 223.878 43.7023 222.571 44.1756 221.438C44.649 220.298 45.3356 219.404 46.2356 218.758C47.1423 218.111 48.239 217.788 49.5256 217.788C50.599 217.788 51.5123 217.998 52.2656 218.418C53.0256 218.838 53.629 219.378 54.0756 220.038C54.529 220.698 54.829 221.384 54.9756 222.098C55.0623 222.484 55.1056 222.851 55.1056 223.198H52.9256C52.9256 223.011 52.909 222.808 52.8756 222.588C52.8023 222.054 52.6223 221.564 52.3356 221.118C52.0556 220.671 51.679 220.314 51.2056 220.048C50.739 219.781 50.179 219.648 49.5256 219.648C48.7656 219.648 48.0956 219.861 47.5156 220.288C46.9356 220.708 46.4823 221.341 46.1556 222.188C45.8356 223.034 45.6756 224.091 45.6756 225.358C45.6756 226.618 45.8356 227.674 46.1556 228.528C46.4823 229.374 46.9356 230.014 47.5156 230.448C48.0956 230.874 48.7656 231.088 49.5256 231.088C50.079 231.088 50.5656 230.988 50.9856 230.788C51.4056 230.588 51.759 230.318 52.0456 229.978C52.3323 229.638 52.549 229.254 52.6956 228.828C52.849 228.401 52.9256 227.961 52.9256 227.508H55.1056ZM65.0408 232.728V228.838C65.0408 228.664 65.0408 228.454 65.0408 228.208C65.0408 227.961 65.0408 227.711 65.0408 227.458C65.0408 227.198 65.0408 226.981 65.0408 226.808C65.0408 225.854 64.8441 225.131 64.4508 224.638C64.0641 224.144 63.4274 223.898 62.5408 223.898C61.9474 223.898 61.4341 224.014 61.0008 224.248C60.5674 224.481 60.2308 224.801 59.9908 225.208C59.7574 225.614 59.6408 226.078 59.6408 226.598L58.6208 226.178C58.6208 225.371 58.8141 224.651 59.2008 224.018C59.5941 223.378 60.1308 222.871 60.8108 222.498C61.4974 222.124 62.2808 221.938 63.1608 221.938C64.4408 221.938 65.4341 222.321 66.1408 223.088C66.8541 223.848 67.2108 224.908 67.2108 226.268C67.2108 226.614 67.2108 227.024 67.2108 227.498C67.2108 227.964 67.2108 228.474 67.2108 229.028V232.728H65.0408ZM57.4708 232.728V217.098H59.6408V232.728H57.4708ZM73.6313 232.938C72.8313 232.938 72.1279 232.811 71.5213 232.558C70.9213 232.304 70.4546 231.941 70.1213 231.468C69.7879 230.994 69.6213 230.424 69.6213 229.758C69.6213 229.044 69.8079 228.454 70.1813 227.988C70.5613 227.521 71.0813 227.161 71.7413 226.908C72.4079 226.648 73.1646 226.478 74.0113 226.398C75.2713 226.271 76.1579 226.148 76.6713 226.028C77.1913 225.908 77.4513 225.711 77.4513 225.438C77.4513 225.431 77.4513 225.424 77.4513 225.418C77.4513 224.878 77.2213 224.468 76.7613 224.188C76.3013 223.908 75.6446 223.768 74.7913 223.768C73.8913 223.768 73.1946 223.928 72.7013 224.248C72.2146 224.561 71.9713 225.061 71.9713 225.748H69.8413C69.8413 224.934 70.0513 224.244 70.4713 223.678C70.8979 223.111 71.4846 222.681 72.2313 222.388C72.9779 222.088 73.8346 221.938 74.8013 221.938C75.6879 221.938 76.4946 222.074 77.2213 222.348C77.9546 222.614 78.5379 223.014 78.9713 223.548C79.4046 224.081 79.6213 224.744 79.6213 225.538C79.6213 225.678 79.6213 225.818 79.6213 225.958C79.6213 226.091 79.6213 226.228 79.6213 226.368V230.608C79.6213 230.854 79.6313 231.094 79.6513 231.328C79.6713 231.554 79.7079 231.758 79.7613 231.938C79.8213 232.144 79.8913 232.314 79.9713 232.448C80.0579 232.581 80.1279 232.674 80.1813 232.728H78.0213C77.9813 232.688 77.9213 232.604 77.8413 232.478C77.7679 232.344 77.7013 232.191 77.6413 232.018C77.5813 231.851 77.5346 231.661 77.5013 231.448C77.4746 231.228 77.4613 230.991 77.4613 230.738L77.8613 231.018C77.6613 231.404 77.3579 231.741 76.9513 232.028C76.5513 232.314 76.0679 232.538 75.5013 232.698C74.9413 232.858 74.3179 232.938 73.6313 232.938ZM74.0813 231.138C74.7013 231.138 75.2646 231.041 75.7713 230.848C76.2846 230.648 76.6946 230.348 77.0013 229.948C77.3079 229.541 77.4613 229.031 77.4613 228.418V226.658L77.9713 227.328C77.5446 227.494 77.0213 227.631 76.4013 227.738C75.7879 227.838 75.1546 227.921 74.5013 227.988C73.6013 228.068 72.9246 228.224 72.4713 228.458C72.0179 228.684 71.7913 229.064 71.7913 229.598C71.7913 230.111 71.9779 230.498 72.3513 230.758C72.7313 231.011 73.3079 231.138 74.0813 231.138ZM87.3859 232.928C86.2926 232.928 85.3259 232.691 84.4859 232.218C83.6526 231.744 82.9993 231.094 82.5259 230.268C82.0593 229.434 81.8259 228.481 81.8259 227.408C81.8259 226.341 82.0593 225.398 82.5259 224.578C82.9993 223.751 83.6526 223.108 84.4859 222.648C85.3259 222.181 86.2926 221.948 87.3859 221.948C88.4793 221.948 89.4426 222.181 90.2759 222.648C91.1159 223.108 91.7693 223.751 92.2359 224.578C92.7093 225.398 92.9459 226.341 92.9459 227.408C92.9459 228.481 92.7093 229.434 92.2359 230.268C91.7693 231.094 91.1159 231.744 90.2759 232.218C89.4426 232.691 88.4793 232.928 87.3859 232.928ZM87.3859 231.068C88.0526 231.068 88.6393 230.918 89.1459 230.618C89.6526 230.318 90.0493 229.894 90.3359 229.348C90.6226 228.794 90.7659 228.148 90.7659 227.408C90.7659 226.674 90.6226 226.038 90.3359 225.498C90.0493 224.958 89.6526 224.541 89.1459 224.248C88.6393 223.954 88.0526 223.808 87.3859 223.808C86.7259 223.808 86.1393 223.954 85.6259 224.248C85.1193 224.541 84.7226 224.958 84.4359 225.498C84.1493 226.038 84.0059 226.674 84.0059 227.408C84.0059 228.148 84.1493 228.794 84.4359 229.348C84.7226 229.894 85.1193 230.318 85.6259 230.618C86.1393 230.918 86.7259 231.068 87.3859 231.068ZM99.7256 232.908C99.3723 232.908 99.019 232.871 98.6656 232.798C98.319 232.724 97.999 232.591 97.7056 232.398C97.419 232.198 97.189 231.914 97.0156 231.548C96.8423 231.181 96.7556 230.701 96.7556 230.108C96.7556 229.968 96.7556 229.821 96.7556 229.668C96.7556 229.514 96.7556 229.358 96.7556 229.198V223.908H94.2056V222.108H95.5456C95.8323 222.108 96.0556 222.098 96.2156 222.078C96.3823 222.051 96.5023 221.994 96.5756 221.908C96.6556 221.814 96.7056 221.668 96.7256 221.468C96.7456 221.268 96.7556 220.994 96.7556 220.648V218.598H98.9256V222.108H102.176V223.908H98.9256V228.618C98.9256 228.751 98.9256 228.884 98.9256 229.018C98.9256 229.151 98.9256 229.274 98.9256 229.388C98.9256 229.921 98.989 230.341 99.1156 230.648C99.249 230.954 99.549 231.108 100.016 231.108C100.216 231.108 100.406 231.091 100.586 231.058C100.766 231.024 100.902 230.988 100.996 230.948V232.718C100.876 232.764 100.706 232.808 100.486 232.848C100.266 232.888 100.012 232.908 99.7256 232.908ZM104.278 232.728V222.108H106.418V232.728H104.278ZM105.358 219.908C104.985 219.908 104.661 219.808 104.388 219.608C104.121 219.401 103.988 219.118 103.988 218.758C103.988 218.404 104.121 218.128 104.388 217.928C104.661 217.721 104.985 217.618 105.358 217.618C105.725 217.618 106.041 217.721 106.308 217.928C106.581 218.128 106.718 218.404 106.718 218.758C106.718 219.118 106.581 219.401 106.308 219.608C106.041 219.808 105.725 219.908 105.358 219.908ZM114.457 232.938C113.39 232.938 112.433 232.714 111.587 232.268C110.747 231.814 110.083 231.171 109.597 230.338C109.117 229.504 108.877 228.524 108.877 227.398C108.877 226.271 109.117 225.301 109.597 224.488C110.083 223.668 110.747 223.038 111.587 222.598C112.433 222.158 113.39 221.938 114.457 221.938C115.263 221.938 115.98 222.061 116.607 222.308C117.233 222.548 117.763 222.868 118.197 223.268C118.63 223.668 118.96 224.108 119.187 224.588C119.413 225.068 119.527 225.548 119.527 226.028C119.527 226.034 119.527 226.044 119.527 226.058C119.527 226.071 119.527 226.084 119.527 226.098H117.377C117.377 226.064 117.373 226.028 117.367 225.988C117.36 225.941 117.353 225.898 117.347 225.858C117.293 225.464 117.14 225.114 116.887 224.808C116.633 224.501 116.3 224.258 115.887 224.078C115.473 223.898 114.99 223.808 114.437 223.808C113.83 223.808 113.27 223.941 112.757 224.208C112.25 224.468 111.843 224.864 111.537 225.398C111.23 225.931 111.077 226.598 111.077 227.398C111.077 228.198 111.227 228.871 111.527 229.418C111.833 229.958 112.24 230.368 112.747 230.648C113.26 230.928 113.823 231.068 114.437 231.068C115.097 231.068 115.637 230.968 116.057 230.768C116.477 230.561 116.793 230.288 117.007 229.948C117.22 229.601 117.343 229.228 117.377 228.828H119.527C119.527 229.308 119.417 229.794 119.197 230.288C118.977 230.774 118.653 231.218 118.227 231.618C117.8 232.018 117.27 232.338 116.637 232.578C116.01 232.818 115.283 232.938 114.457 232.938ZM132.594 232.938C131.714 232.938 130.901 232.771 130.154 232.438C129.414 232.098 128.764 231.604 128.204 230.958C127.651 230.304 127.221 229.508 126.914 228.568C126.607 227.621 126.454 226.544 126.454 225.338C126.454 224.124 126.607 223.051 126.914 222.118C127.221 221.178 127.651 220.388 128.204 219.748C128.764 219.101 129.417 218.614 130.164 218.288C130.911 217.954 131.721 217.788 132.594 217.788C133.474 217.788 134.287 217.954 135.034 218.288C135.787 218.614 136.441 219.101 136.994 219.748C137.547 220.388 137.977 221.178 138.284 222.118C138.591 223.051 138.744 224.124 138.744 225.338C138.744 226.544 138.591 227.621 138.284 228.568C137.977 229.508 137.544 230.304 136.984 230.958C136.431 231.604 135.781 232.098 135.034 232.438C134.287 232.771 133.474 232.938 132.594 232.938ZM132.594 231.088C133.347 231.088 134.021 230.881 134.614 230.468C135.214 230.054 135.684 229.424 136.024 228.578C136.364 227.724 136.534 226.644 136.534 225.338C136.534 224.024 136.361 222.948 136.014 222.108C135.674 221.268 135.207 220.648 134.614 220.248C134.021 219.848 133.347 219.648 132.594 219.648C131.854 219.648 131.184 219.848 130.584 220.248C129.991 220.648 129.521 221.268 129.174 222.108C128.827 222.948 128.654 224.024 128.654 225.338C128.654 226.651 128.827 227.734 129.174 228.588C129.521 229.434 129.991 230.064 130.584 230.478C131.184 230.884 131.854 231.088 132.594 231.088ZM150.033 222.108L146.593 232.728H143.713L140.183 222.108H142.423L145.323 231.818H144.983L147.793 222.108H150.033ZM152.167 228.178V226.488H159.987L159.687 226.988C159.687 226.948 159.687 226.908 159.687 226.868C159.687 226.821 159.687 226.781 159.687 226.748C159.687 226.208 159.57 225.711 159.337 225.258C159.103 224.798 158.753 224.431 158.287 224.158C157.827 223.878 157.25 223.738 156.557 223.738C155.863 223.738 155.253 223.888 154.727 224.188C154.207 224.481 153.8 224.901 153.507 225.448C153.22 225.988 153.077 226.638 153.077 227.398C153.077 228.171 153.217 228.838 153.497 229.398C153.777 229.951 154.18 230.378 154.707 230.678C155.233 230.978 155.863 231.128 156.597 231.128C157.11 231.128 157.553 231.078 157.927 230.978C158.307 230.871 158.617 230.731 158.857 230.558C159.103 230.384 159.29 230.198 159.417 229.998C159.543 229.791 159.617 229.588 159.637 229.388H161.797C161.757 229.821 161.613 230.251 161.367 230.678C161.127 231.098 160.783 231.481 160.337 231.828C159.897 232.168 159.357 232.441 158.717 232.648C158.083 232.848 157.353 232.948 156.527 232.948C155.42 232.948 154.45 232.714 153.617 232.248C152.783 231.781 152.133 231.134 151.667 230.308C151.2 229.474 150.967 228.521 150.967 227.448C150.967 226.354 151.203 225.394 151.677 224.568C152.15 223.741 152.807 223.098 153.647 222.638C154.487 222.171 155.45 221.938 156.537 221.938C157.643 221.938 158.6 222.171 159.407 222.638C160.22 223.104 160.847 223.748 161.287 224.568C161.727 225.388 161.947 226.331 161.947 227.398C161.947 227.524 161.943 227.671 161.937 227.838C161.93 228.004 161.92 228.118 161.907 228.178H152.167ZM164.365 232.728V222.108H166.535V225.498L165.955 225.238C166.002 224.804 166.112 224.391 166.285 223.998C166.459 223.604 166.689 223.254 166.975 222.948C167.269 222.634 167.629 222.388 168.055 222.208C168.482 222.028 168.975 221.938 169.535 221.938C169.962 221.938 170.305 221.971 170.565 222.038C170.832 222.104 170.995 222.158 171.055 222.198L170.595 224.238C170.529 224.191 170.392 224.131 170.185 224.058C169.985 223.984 169.705 223.948 169.345 223.948C168.799 223.948 168.345 224.044 167.985 224.238C167.625 224.431 167.339 224.688 167.125 225.008C166.912 225.328 166.759 225.678 166.665 226.058C166.579 226.431 166.535 226.808 166.535 227.188V232.728H164.365ZM176.788 232.938C176.154 232.938 175.558 232.868 174.998 232.728C174.438 232.588 173.944 232.384 173.518 232.118C173.098 231.844 172.768 231.508 172.528 231.108C172.294 230.708 172.178 230.244 172.178 229.718C172.178 229.671 172.178 229.624 172.178 229.578C172.178 229.524 172.178 229.481 172.178 229.448H174.338C174.338 229.481 174.338 229.511 174.338 229.538C174.338 229.564 174.338 229.601 174.338 229.648C174.338 230.134 174.561 230.504 175.008 230.758C175.461 231.004 176.074 231.128 176.848 231.128C177.301 231.128 177.714 231.081 178.088 230.988C178.468 230.894 178.768 230.751 178.988 230.558C179.214 230.364 179.328 230.118 179.328 229.818C179.328 229.331 179.088 228.984 178.608 228.778C178.134 228.571 177.414 228.388 176.448 228.228C175.921 228.134 175.411 228.014 174.918 227.868C174.431 227.721 173.991 227.528 173.598 227.288C173.211 227.041 172.901 226.738 172.668 226.378C172.441 226.011 172.328 225.571 172.328 225.058C172.328 224.391 172.528 223.824 172.928 223.358C173.328 222.891 173.868 222.538 174.548 222.298C175.228 222.058 175.978 221.938 176.798 221.938C177.591 221.938 178.324 222.068 178.998 222.328C179.678 222.581 180.224 222.951 180.638 223.438C181.051 223.918 181.258 224.508 181.258 225.208C181.258 225.234 181.258 225.264 181.258 225.298C181.258 225.331 181.258 225.361 181.258 225.388H179.108C179.108 225.361 179.108 225.338 179.108 225.318C179.108 225.298 179.108 225.274 179.108 225.248C179.108 224.901 178.998 224.618 178.778 224.398C178.558 224.178 178.271 224.014 177.918 223.908C177.571 223.794 177.201 223.738 176.808 223.738C176.448 223.738 176.084 223.778 175.718 223.858C175.358 223.931 175.058 224.061 174.818 224.248C174.578 224.428 174.458 224.674 174.458 224.988C174.458 225.308 174.574 225.564 174.808 225.758C175.041 225.944 175.371 226.101 175.798 226.228C176.224 226.348 176.721 226.458 177.288 226.558C177.808 226.651 178.314 226.771 178.808 226.918C179.301 227.058 179.744 227.244 180.138 227.478C180.538 227.711 180.854 228.011 181.088 228.378C181.328 228.744 181.448 229.194 181.448 229.728C181.448 230.281 181.321 230.758 181.068 231.158C180.814 231.558 180.468 231.891 180.028 232.158C179.594 232.418 179.098 232.611 178.538 232.738C177.984 232.871 177.401 232.938 176.788 232.938ZM183.838 237.098V222.108H186.008V237.098H183.838ZM189.428 232.938C188.601 232.938 187.835 232.731 187.128 232.318C186.421 231.898 185.848 231.324 185.408 230.598C184.975 229.871 184.758 229.048 184.758 228.128C184.758 228.101 184.758 228.081 184.758 228.068C184.758 228.048 184.758 228.028 184.758 228.008L186.018 227.978C186.018 227.991 186.018 228.008 186.018 228.028C186.018 228.041 186.018 228.058 186.018 228.078C186.018 228.624 186.158 229.118 186.438 229.558C186.725 229.991 187.095 230.334 187.548 230.588C188.001 230.841 188.488 230.968 189.008 230.968C189.861 230.968 190.578 230.678 191.158 230.098C191.745 229.511 192.038 228.611 192.038 227.398C192.038 226.178 191.748 225.281 191.168 224.708C190.588 224.128 189.868 223.838 189.008 223.838C188.488 223.838 188.001 223.964 187.548 224.218C187.095 224.464 186.725 224.804 186.438 225.238C186.158 225.664 186.018 226.154 186.018 226.708L184.758 226.658C184.758 225.731 184.975 224.914 185.408 224.208C185.848 223.494 186.421 222.938 187.128 222.538C187.835 222.138 188.601 221.938 189.428 221.938C190.288 221.938 191.085 222.151 191.818 222.578C192.551 222.998 193.141 223.614 193.588 224.428C194.041 225.241 194.268 226.231 194.268 227.398C194.268 228.591 194.048 229.601 193.608 230.428C193.168 231.254 192.581 231.881 191.848 232.308C191.115 232.728 190.308 232.938 189.428 232.938ZM197.44 228.178V226.488H205.26L204.96 226.988C204.96 226.948 204.96 226.908 204.96 226.868C204.96 226.821 204.96 226.781 204.96 226.748C204.96 226.208 204.843 225.711 204.61 225.258C204.377 224.798 204.027 224.431 203.56 224.158C203.1 223.878 202.523 223.738 201.83 223.738C201.137 223.738 200.527 223.888 200 224.188C199.48 224.481 199.073 224.901 198.78 225.448C198.493 225.988 198.35 226.638 198.35 227.398C198.35 228.171 198.49 228.838 198.77 229.398C199.05 229.951 199.453 230.378 199.98 230.678C200.507 230.978 201.137 231.128 201.87 231.128C202.383 231.128 202.827 231.078 203.2 230.978C203.58 230.871 203.89 230.731 204.13 230.558C204.377 230.384 204.563 230.198 204.69 229.998C204.817 229.791 204.89 229.588 204.91 229.388H207.07C207.03 229.821 206.887 230.251 206.64 230.678C206.4 231.098 206.057 231.481 205.61 231.828C205.17 232.168 204.63 232.441 203.99 232.648C203.357 232.848 202.627 232.948 201.8 232.948C200.693 232.948 199.723 232.714 198.89 232.248C198.057 231.781 197.407 231.134 196.94 230.308C196.473 229.474 196.24 228.521 196.24 227.448C196.24 226.354 196.477 225.394 196.95 224.568C197.423 223.741 198.08 223.098 198.92 222.638C199.76 222.171 200.723 221.938 201.81 221.938C202.917 221.938 203.873 222.171 204.68 222.638C205.493 223.104 206.12 223.748 206.56 224.568C207 225.388 207.22 226.331 207.22 227.398C207.22 227.524 207.217 227.671 207.21 227.838C207.203 228.004 207.193 228.118 207.18 228.178H197.44ZM217.199 232.728V227.828C217.199 227.541 217.199 227.298 217.199 227.098C217.199 226.898 217.199 226.711 217.199 226.538C217.199 226.018 217.119 225.561 216.959 225.168C216.799 224.768 216.535 224.458 216.169 224.238C215.802 224.011 215.312 223.898 214.699 223.898C214.159 223.898 213.669 224.031 213.229 224.298C212.795 224.564 212.449 224.928 212.189 225.388C211.935 225.841 211.809 226.358 211.809 226.938L210.879 226.478C210.879 225.618 211.082 224.848 211.489 224.168C211.895 223.481 212.439 222.938 213.119 222.538C213.805 222.138 214.555 221.938 215.369 221.938C216.209 221.938 216.925 222.101 217.519 222.428C218.119 222.748 218.575 223.208 218.889 223.808C219.209 224.401 219.369 225.111 219.369 225.938C219.369 226.244 219.369 226.584 219.369 226.958C219.369 227.331 219.369 227.691 219.369 228.038V232.728H217.199ZM209.639 232.728V222.108H211.809V232.728H209.639ZM226.5 232.938C225.626 232.938 224.823 232.728 224.09 232.308C223.356 231.881 222.77 231.254 222.33 230.428C221.89 229.601 221.67 228.591 221.67 227.398C221.67 226.231 221.893 225.241 222.34 224.428C222.786 223.614 223.376 222.998 224.11 222.578C224.843 222.151 225.64 221.938 226.5 221.938C227.326 221.938 228.093 222.138 228.8 222.538C229.513 222.938 230.086 223.494 230.52 224.208C230.953 224.914 231.17 225.731 231.17 226.658C231.17 226.684 231.17 226.711 231.17 226.738C231.17 226.758 231.17 226.778 231.17 226.798L229.91 226.838C229.91 226.818 229.91 226.798 229.91 226.778C229.91 226.751 229.91 226.728 229.91 226.708C229.91 226.154 229.77 225.664 229.49 225.238C229.21 224.804 228.84 224.464 228.38 224.218C227.926 223.964 227.443 223.838 226.93 223.838C226.07 223.838 225.35 224.128 224.77 224.708C224.19 225.281 223.9 226.178 223.9 227.398C223.9 228.611 224.19 229.511 224.77 230.098C225.356 230.678 226.076 230.968 226.93 230.968C227.463 230.968 227.956 230.841 228.41 230.588C228.863 230.328 229.226 229.974 229.5 229.528C229.773 229.081 229.91 228.571 229.91 227.998L231.17 228.048C231.17 228.968 230.96 229.798 230.54 230.538C230.126 231.278 229.566 231.864 228.86 232.298C228.16 232.724 227.373 232.938 226.5 232.938ZM229.91 232.728V217.098H232.09V232.728H229.91ZM235.643 228.178V226.488H243.463L243.163 226.988C243.163 226.948 243.163 226.908 243.163 226.868C243.163 226.821 243.163 226.781 243.163 226.748C243.163 226.208 243.046 225.711 242.813 225.258C242.58 224.798 242.23 224.431 241.763 224.158C241.303 223.878 240.726 223.738 240.033 223.738C239.34 223.738 238.73 223.888 238.203 224.188C237.683 224.481 237.276 224.901 236.983 225.448C236.696 225.988 236.553 226.638 236.553 227.398C236.553 228.171 236.693 228.838 236.973 229.398C237.253 229.951 237.656 230.378 238.183 230.678C238.71 230.978 239.34 231.128 240.073 231.128C240.586 231.128 241.03 231.078 241.403 230.978C241.783 230.871 242.093 230.731 242.333 230.558C242.58 230.384 242.766 230.198 242.893 229.998C243.02 229.791 243.093 229.588 243.113 229.388H245.273C245.233 229.821 245.09 230.251 244.843 230.678C244.603 231.098 244.26 231.481 243.813 231.828C243.373 232.168 242.833 232.441 242.193 232.648C241.56 232.848 240.83 232.948 240.003 232.948C238.896 232.948 237.926 232.714 237.093 232.248C236.26 231.781 235.61 231.134 235.143 230.308C234.676 229.474 234.443 228.521 234.443 227.448C234.443 226.354 234.68 225.394 235.153 224.568C235.626 223.741 236.283 223.098 237.123 222.638C237.963 222.171 238.926 221.938 240.013 221.938C241.12 221.938 242.076 222.171 242.883 222.638C243.696 223.104 244.323 223.748 244.763 224.568C245.203 225.388 245.423 226.331 245.423 227.398C245.423 227.524 245.42 227.671 245.413 227.838C245.406 228.004 245.396 228.118 245.383 228.178H235.643ZM247.842 232.728V222.108H250.012V225.498L249.432 225.238C249.479 224.804 249.589 224.391 249.762 223.998C249.935 223.604 250.165 223.254 250.452 222.948C250.745 222.634 251.105 222.388 251.532 222.208C251.959 222.028 252.452 221.938 253.012 221.938C253.439 221.938 253.782 221.971 254.042 222.038C254.309 222.104 254.472 222.158 254.532 222.198L254.072 224.238C254.005 224.191 253.869 224.131 253.662 224.058C253.462 223.984 253.182 223.948 252.822 223.948C252.275 223.948 251.822 224.044 251.462 224.238C251.102 224.431 250.815 224.688 250.602 225.008C250.389 225.328 250.235 225.678 250.142 226.058C250.055 226.431 250.012 226.808 250.012 227.188V232.728H247.842Z" fill="black"/>
<defs>
<filter id="filter0_iii_1_625" x="51.2296" y="36.8646" width="130.366" height="162.402" filterUnits="userSpaceOnUse" color-interpolation-filters="sRGB">
<feFlood flood-opacity="0" result="BackgroundImageFix"/>
<feBlend mode="normal" in="SourceGraphic" in2="BackgroundImageFix" result="shape"/>
<feColorMatrix in="SourceAlpha" type="matrix" values="0 0 0 0 0 0 0 0 0 0 0 0 0 0 0 0 0 0 127 0" result="hardAlpha"/>
<feMorphology radius="2.70941" operator="erode" in="SourceAlpha" result="effect1_innerShadow_1_625"/>
<feOffset dx="7.11221" dy="4.40279"/>
<feGaussianBlur stdDeviation="8.12823"/>
<feComposite in2="hardAlpha" operator="arithmetic" k2="-1" k3="1"/>
<feColorMatrix type="matrix" values="0 0 0 0 0.682806 0 0 0 0 0.0652778 0 0 0 0 0.783333 0 0 0 0.14 0"/>
<feBlend mode="normal" in2="shape" result="effect1_innerShadow_1_625"/>
<feColorMatrix in="SourceAlpha" type="matrix" values="0 0 0 0 0 0 0 0 0 0 0 0 0 0 0 0 0 0 127 0" result="hardAlpha"/>
<feOffset dy="-6.09618"/>
<feGaussianBlur stdDeviation="5.24949"/>
<feComposite in2="hardAlpha" operator="arithmetic" k2="-1" k3="1"/>
<feColorMatrix type="matrix" values="0 0 0 0 0.943639 0 0 0 0 0.223611 0 0 0 0 0.958333 0 0 0 0.44 0"/>
<feBlend mode="normal" in2="effect1_innerShadow_1_625" result="effect2_innerShadow_1_625"/>
<feColorMatrix in="SourceAlpha" type="matrix" values="0 0 0 0 0 0 0 0 0 0 0 0 0 0 0 0 0 0 127 0" result="hardAlpha"/>
<feOffset dx="-3.72544" dy="5.41882"/>
<feGaussianBlur stdDeviation="5.24949"/>
<feComposite in2="hardAlpha" operator="arithmetic" k2="-1" k3="1"/>
<feColorMatrix type="matrix" values="0 0 0 0 1 0 0 0 0 1 0 0 0 0 1 0 0 0 0.59 0"/>
<feBlend mode="normal" in2="effect2_innerShadow_1_625" result="effect3_innerShadow_1_625"/>
</filter>
<filter id="filter1_i_1_625" x="82.2734" y="102.326" width="26.4756" height="13.5316" filterUnits="userSpaceOnUse" color-interpolation-filters="sRGB">
<feFlood flood-opacity="0" result="BackgroundImageFix"/>
<feBlend mode="normal" in="SourceGraphic" in2="BackgroundImageFix" result="shape"/>
<feColorMatrix in="SourceAlpha" type="matrix" values="0 0 0 0 0 0 0 0 0 0 0 0 0 0 0 0 0 0 127 0" result="hardAlpha"/>
<feMorphology radius="10.3742" operator="dilate" in="SourceAlpha" result="effect1_innerShadow_1_625"/>
<feOffset dx="3.60842" dy="-2.74553"/>
<feGaussianBlur stdDeviation="4.05947"/>
<feComposite in2="hardAlpha" operator="arithmetic" k2="-1" k3="1"/>
<feColorMatrix type="matrix" values="0 0 0 0 0.462111 0 0 0 0 0.203767 0 0 0 0 0.504167 0 0 0 0.35 0"/>
<feBlend mode="normal" in2="shape" result="effect1_innerShadow_1_625"/>
</filter>
<filter id="filter2_i_1_625" x="120.319" y="102.326" width="26.4756" height="13.5316" filterUnits="userSpaceOnUse" color-interpolation-filters="sRGB">
<feFlood flood-opacity="0" result="BackgroundImageFix"/>
<feBlend mode="normal" in="SourceGraphic" in2="BackgroundImageFix" result="shape"/>
<feColorMatrix in="SourceAlpha" type="matrix" values="0 0 0 0 0 0 0 0 0 0 0 0 0 0 0 0 0 0 127 0" result="hardAlpha"/>
<feMorphology radius="10.3742" operator="dilate" in="SourceAlpha" result="effect1_innerShadow_1_625"/>
<feOffset dx="3.60842" dy="-3.52997"/>
<feGaussianBlur stdDeviation="4.05947"/>
<feComposite in2="hardAlpha" operator="arithmetic" k2="-1" k3="1"/>
<feColorMatrix type="matrix" values="0 0 0 0 0.462111 0 0 0 0 0.203767 0 0 0 0 0.504167 0 0 0 0.35 0"/>
<feBlend mode="normal" in2="shape" result="effect1_innerShadow_1_625"/>
</filter>
<filter id="filter3_i_1_625" x="90.415" y="119.815" width="48.4102" height="27.1525" filterUnits="userSpaceOnUse" color-interpolation-filters="sRGB">
<feFlood flood-opacity="0" result="BackgroundImageFix"/>
<feBlend mode="normal" in="SourceGraphic" in2="BackgroundImageFix" result="shape"/>
<feColorMatrix in="SourceAlpha" type="matrix" values="0 0 0 0 0 0 0 0 0 0 0 0 0 0 0 0 0 0 127 0" result="hardAlpha"/>
<feOffset dy="1.72397"/>
<feGaussianBlur stdDeviation="3.44794"/>
<feComposite in2="hardAlpha" operator="arithmetic" k2="-1" k3="1"/>
<feColorMatrix type="matrix" values="0 0 0 0 0 0 0 0 0 0 0 0 0 0 0 0 0 0 0.25 0"/>
<feBlend mode="normal" in2="shape" result="effect1_innerShadow_1_625"/>
</filter>
<filter id="filter4_i_1_625" x="89.5137" y="116.446" width="50.0723" height="9.59618" filterUnits="userSpaceOnUse" color-interpolation-filters="sRGB">
<feFlood flood-opacity="0" result="BackgroundImageFix"/>
<feBlend mode="normal" in="SourceGraphic" in2="BackgroundImageFix" result="shape"/>
<feColorMatrix in="SourceAlpha" type="matrix" values="0 0 0 0 0 0 0 0 0 0 0 0 0 0 0 0 0 0 127 0" result="hardAlpha"/>
<feOffset dy="-1.29298"/>
<feGaussianBlur stdDeviation="3.44794"/>
<feComposite in2="hardAlpha" operator="arithmetic" k2="-1" k3="1"/>
<feColorMatrix type="matrix" values="0 0 0 0 0 0 0 0 0 0 0 0 0 0 0 0 0 0 0.47 0"/>
<feBlend mode="normal" in2="shape" result="effect1_innerShadow_1_625"/>
</filter>
<filter id="filter5_dii_1_625" x="67.4343" y="73.3028" width="40.6369" height="40.6376" filterUnits="userSpaceOnUse" color-interpolation-filters="sRGB">
<feFlood flood-opacity="0" result="BackgroundImageFix"/>
<feColorMatrix in="SourceAlpha" type="matrix" values="0 0 0 0 0 0 0 0 0 0 0 0 0 0 0 0 0 0 127 0" result="hardAlpha"/>
<feOffset dx="2.35331" dy="5.88329"/>
<feGaussianBlur stdDeviation="5.29496"/>
<feColorMatrix type="matrix" values="0 0 0 0 0.0313726 0 0 0 0 0.02 0 0 0 0 0.0352941 0 0 0 0.25 0"/>
<feBlend mode="normal" in2="BackgroundImageFix" result="effect1_dropShadow_1_625"/>
<feBlend mode="normal" in="SourceGraphic" in2="effect1_dropShadow_1_625" result="shape"/>
<feColorMatrix in="SourceAlpha" type="matrix" values="0 0 0 0 0 0 0 0 0 0 0 0 0 0 0 0 0 0 127 0" result="hardAlpha"/>
<feOffset dy="1.7432"/>
<feGaussianBlur stdDeviation="0.871598"/>
<feComposite in2="hardAlpha" operator="arithmetic" k2="-1" k3="1"/>
<feColorMatrix type="matrix" values="0 0 0 0 0.181961 0 0 0 0 0.116 0 0 0 0 0.204706 0 0 0 1 0"/>
<feBlend mode="normal" in2="shape" result="effect2_innerShadow_1_625"/>
<feColorMatrix in="SourceAlpha" type="matrix" values="0 0 0 0 0 0 0 0 0 0 0 0 0 0 0 0 0 0 127 0" result="hardAlpha"/>
<feOffset dy="-1.7432"/>
<feGaussianBlur stdDeviation="0.871598"/>
<feComposite in2="hardAlpha" operator="arithmetic" k2="-1" k3="1"/>
<feColorMatrix type="matrix" values="0 0 0 0 0.12549 0 0 0 0 0.08 0 0 0 0 0.141176 0 0 0 1 0"/>
<feBlend mode="normal" in2="effect2_innerShadow_1_625" result="effect3_innerShadow_1_625"/>
</filter>
<filter id="filter6_dii_1_625" x="124.851" y="73.3027" width="40.6369" height="40.6376" filterUnits="userSpaceOnUse" color-interpolation-filters="sRGB">
<feFlood flood-opacity="0" result="BackgroundImageFix"/>
<feColorMatrix in="SourceAlpha" type="matrix" values="0 0 0 0 0 0 0 0 0 0 0 0 0 0 0 0 0 0 127 0" result="hardAlpha"/>
<feOffset dx="2.35331" dy="5.88329"/>
<feGaussianBlur stdDeviation="5.29496"/>
<feColorMatrix type="matrix" values="0 0 0 0 0.0313726 0 0 0 0 0.02 0 0 0 0 0.0352941 0 0 0 0.25 0"/>
<feBlend mode="normal" in2="BackgroundImageFix" result="effect1_dropShadow_1_625"/>
<feBlend mode="normal" in="SourceGraphic" in2="effect1_dropShadow_1_625" result="shape"/>
<feColorMatrix in="SourceAlpha" type="matrix" values="0 0 0 0 0 0 0 0 0 0 0 0 0 0 0 0 0 0 127 0" result="hardAlpha"/>
<feOffset dy="1.7432"/>
<feGaussianBlur stdDeviation="0.871598"/>
<feComposite in2="hardAlpha" operator="arithmetic" k2="-1" k3="1"/>
<feColorMatrix type="matrix" values="0 0 0 0 0.181961 0 0 0 0 0.116 0 0 0 0 0.204706 0 0 0 1 0"/>
<feBlend mode="normal" in2="shape" result="effect2_innerShadow_1_625"/>
<feColorMatrix in="SourceAlpha" type="matrix" values="0 0 0 0 0 0 0 0 0 0 0 0 0 0 0 0 0 0 127 0" result="hardAlpha"/>
<feOffset dy="-1.7432"/>
<feGaussianBlur stdDeviation="0.871598"/>
<feComposite in2="hardAlpha" operator="arithmetic" k2="-1" k3="1"/>
<feColorMatrix type="matrix" values="0 0 0 0 0.12549 0 0 0 0 0.08 0 0 0 0 0.141176 0 0 0 1 0"/>
<feBlend mode="normal" in2="effect2_innerShadow_1_625" result="effect3_innerShadow_1_625"/>
</filter>
<filter id="filter7_i_1_625" x="87.0322" y="6.68216" width="30.0474" height="35.9371" filterUnits="userSpaceOnUse" color-interpolation-filters="sRGB">
<feFlood flood-opacity="0" result="BackgroundImageFix"/>
<feBlend mode="normal" in="SourceGraphic" in2="BackgroundImageFix" result="shape"/>
<feColorMatrix in="SourceAlpha" type="matrix" values="0 0 0 0 0 0 0 0 0 0 0 0 0 0 0 0 0 0 127 0" result="hardAlpha"/>
<feOffset dx="2.78767" dy="1.39384"/>
<feGaussianBlur stdDeviation="3.87176"/>
<feComposite in2="hardAlpha" operator="arithmetic" k2="-1" k3="1"/>
<feColorMatrix type="matrix" values="0 0 0 0 0 0 0 0 0 0 0 0 0 0 0 0 0 0 0.25 0"/>
<feBlend mode="normal" in2="shape" result="effect1_innerShadow_1_625"/>
</filter>
<filter id="filter8_f_1_625" x="109.744" y="42.9821" width="12.2939" height="5.62124" filterUnits="userSpaceOnUse" color-interpolation-filters="sRGB">
<feFlood flood-opacity="0" result="BackgroundImageFix"/>
<feBlend mode="normal" in="SourceGraphic" in2="BackgroundImageFix" result="shape"/>
<feGaussianBlur stdDeviation="0.802485" result="effect1_foregroundBlur_1_625"/>
</filter>
<filter id="filter9_f_1_625" x="53.2091" y="109.081" width="139.754" height="100.817" filterUnits="userSpaceOnUse" color-interpolation-filters="sRGB">
<feFlood flood-opacity="0" result="BackgroundImageFix"/>
<feBlend mode="normal" in="SourceGraphic" in2="BackgroundImageFix" result="shape"/>
<feGaussianBlur stdDeviation="8.02485" result="effect1_foregroundBlur_1_625"/>
</filter>
<radialGradient id="paint0_radial_1_625" cx="0" cy="0" r="1" gradientUnits="userSpaceOnUse" gradientTransform="translate(114.66 171.938) rotate(84.5862) scale(22.0089 34.0873)">
<stop stop-color="#FFBB0C"/>
<stop offset="1" stop-color="#FFC907"/>
</radialGradient>
<linearGradient id="paint1_linear_1_625" x1="114.72" y1="119.815" x2="119.909" y2="149.568" gradientUnits="userSpaceOnUse">
<stop stop-color="#FB39A2"/>
<stop offset="1" stop-color="#C520FF"/>
</linearGradient>
<linearGradient id="paint2_linear_1_625" x1="114.72" y1="119.815" x2="130.288" y2="152.682" gradientUnits="userSpaceOnUse">
<stop stop-color="#3A2EC0"/>
<stop offset="1" stop-color="#FF20C1"/>
</linearGradient>
<linearGradient id="paint3_linear_1_625" x1="75.6705" y1="58.3984" x2="75.6705" y2="97.6203" gradientUnits="userSpaceOnUse">
<stop stop-color="#2D1D32"/>
<stop offset="1" stop-color="#221526"/>
</linearGradient>
<linearGradient id="paint4_linear_1_625" x1="152.545" y1="58.3984" x2="152.545" y2="97.6203" gradientUnits="userSpaceOnUse">
<stop stop-color="#2D1D32"/>
<stop offset="1" stop-color="#221526"/>
</linearGradient>
<linearGradient id="paint5_linear_1_625" x1="109.851" y1="17.7982" x2="89.4465" y2="28.3128" gradientUnits="userSpaceOnUse">
<stop stop-color="#008B0E"/>
<stop offset="1" stop-color="#038B00" stop-opacity="0"/>
</linearGradient>
<linearGradient id="paint6_linear_1_625" x1="101.697" y1="14.9014" x2="110.975" y2="28.6458" gradientUnits="userSpaceOnUse">
<stop stop-color="white"/>
<stop offset="1" stop-color="white" stop-opacity="0"/>
</linearGradient>
</defs>
</svg>
