<svg width="205" height="267" viewBox="0 0 205 267" fill="none" xmlns="http://www.w3.org/2000/svg">
<path d="M145.685 165.121C143.406 165.121 140.888 164.929 138.058 164.498C137.195 164.378 136.595 163.562 136.739 162.699C136.859 161.835 137.674 161.236 138.538 161.38C150.961 163.274 159.163 160.492 161.633 153.562C163.192 149.197 162.424 143.345 159.522 137.469C156.621 131.546 151.92 126.366 146.644 123.248C145.9 122.816 145.637 121.833 146.092 121.089C146.524 120.346 147.507 120.082 148.251 120.538C154.03 123.943 159.187 129.603 162.352 136.078C165.614 142.698 166.429 149.461 164.583 154.617C163.12 158.814 158.707 165.121 145.685 165.121Z" fill="#1D1D1D"/>
<path d="M35.6818 165.12C22.6833 165.12 18.2705 158.812 16.7836 154.616C14.961 149.459 15.7764 142.696 19.014 136.077C22.2037 129.602 27.3359 123.942 33.1156 120.537C33.8591 120.105 34.8424 120.345 35.2741 121.088C35.7057 121.832 35.4659 122.815 34.7225 123.247C29.4463 126.34 24.7698 131.52 21.8439 137.468C18.966 143.344 18.1986 149.196 19.7335 153.56C22.2037 160.491 30.4056 163.273 42.8285 161.379C43.6919 161.259 44.4833 161.834 44.6272 162.698C44.7471 163.561 44.1715 164.352 43.3082 164.496C40.4782 164.928 37.9361 165.12 35.6818 165.12Z" fill="#1D1D1D"/>
<g filter="url(#filter0_iii_1_598)">
<path fill-rule="evenodd" clip-rule="evenodd" d="M34.0603 92.0164C35.2645 87.7382 36.7954 83.6228 38.6173 79.7184C46.0172 63.8599 58.2176 51.4818 72.824 45.8095L72.903 45.7792C78.1715 43.7569 82.7688 43.7718 88.9255 43.7918L88.9256 43.7918L88.9257 43.7918L88.9258 43.7918L88.9259 43.7918L88.9261 43.7918L88.9262 43.7918L88.9263 43.7918L88.9264 43.7918L88.9265 43.7918L88.9266 43.7918C89.3163 43.7931 89.7121 43.7944 90.1149 43.7952L90.1153 43.795C96.8304 41.1569 104.841 44.0348 111.244 46.9367C134.123 57.2971 150.455 84.3492 150.455 114.831C150.455 119.705 150.191 124.483 149.646 129.111C146.954 151.953 137.404 171.167 118.856 180.515C116.258 181.824 113.485 182.939 110.529 183.844C108.735 189.448 101.437 193.643 92.7081 193.643C84.6047 193.643 77.7352 190.028 75.3565 185.027C43.7305 178.038 30.9268 148.79 30.9268 114.831C30.9268 106.917 32.0285 99.2348 34.0603 92.0164Z" fill="url(#paint0_radial_1_598)"/>
</g>
<g filter="url(#filter1_iii_1_598)">
<ellipse cx="92.7082" cy="181.161" rx="18.2434" ry="12.4823" fill="url(#paint1_radial_1_598)"/>
</g>
<g filter="url(#filter2_f_1_598)">
<path d="M73.8652 183.909C76.441 190.728 87.161 193.343 92.1991 193.798C105.223 193.798 111.153 186.3 112.49 182.551C137.286 175.818 146.125 147.739 148.694 136.445C128.424 162.435 74.1029 170.73 48.2275 169.725C48.8892 174.593 65.595 181.209 73.8652 183.909Z" fill="#EBAD1E"/>
</g>
<path d="M49.5655 173.274C49.4935 173.274 49.3976 173.274 49.3256 173.251C43.1142 172.315 41.4834 165.912 41.4834 162.65C41.4834 161.787 42.1789 161.067 43.0662 161.067C43.9296 161.067 44.6491 161.763 44.6491 162.65C44.6491 162.914 44.745 169.365 49.8293 170.133C50.6926 170.253 51.2922 171.068 51.1483 171.931C51.0044 172.699 50.3329 173.274 49.5655 173.274Z" fill="#1D1D1D"/>
<path d="M131.799 173.276C131.032 173.276 130.36 172.724 130.24 171.933C130.12 171.069 130.696 170.278 131.559 170.134C136.644 169.366 136.74 162.939 136.74 162.651C136.74 161.788 137.459 161.092 138.322 161.092C139.186 161.092 139.905 161.788 139.905 162.675C139.905 165.937 138.274 172.316 132.063 173.276C131.943 173.252 131.871 173.276 131.799 173.276Z" fill="#1D1D1D"/>
<mask id="mask0_1_598" style="mask-type:alpha" maskUnits="userSpaceOnUse" x="63" y="116" width="59" height="32">
<path d="M71.8374 116.822C69.5338 116.822 68.3819 116.822 67.0913 117.406C65.339 118.198 63.4727 120.77 63.264 122.682C63.1102 124.09 63.3395 124.792 63.7981 126.196C65.2593 130.67 67.7601 134.784 71.1504 138.174C76.8131 143.837 84.4934 147.018 92.5018 147.018C100.51 147.018 108.19 143.837 113.853 138.174C117.386 134.641 119.954 130.322 121.385 125.628C121.812 124.227 122.026 123.526 121.863 122.222C121.64 120.433 119.907 118.093 118.261 117.358C117.062 116.822 115.962 116.822 113.762 116.822L92.5018 116.822L71.8374 116.822Z" fill="url(#paint2_linear_1_598)"/>
</mask>
<g mask="url(#mask0_1_598)">
<g filter="url(#filter3_i_1_598)">
<path d="M71.8374 116.822C69.5338 116.822 68.3819 116.822 67.0913 117.406C65.339 118.198 63.4727 120.77 63.264 122.682C63.1102 124.09 63.3395 124.792 63.7981 126.196C65.2593 130.67 67.7601 134.784 71.1504 138.174C76.8131 143.837 84.4934 147.018 92.5018 147.018C100.51 147.018 108.19 143.837 113.853 138.174C117.386 134.641 119.954 130.322 121.385 125.628C121.812 124.227 122.026 123.526 121.863 122.222C121.64 120.433 119.907 118.093 118.261 117.358C117.062 116.822 115.962 116.822 113.762 116.822L92.5018 116.822L71.8374 116.822Z" fill="url(#paint3_linear_1_598)"/>
</g>
<g filter="url(#filter4_i_1_598)">
<path d="M63.3342 124.628C62.2345 119.391 61.6847 116.772 62.9099 115.022C63.0462 114.827 63.1889 114.652 63.3513 114.478C64.8121 112.92 67.4325 112.92 72.6733 112.92H113.635C118.252 112.92 120.561 112.92 122.039 114.708C123.518 116.496 123.17 118.317 122.474 121.96C122.42 122.246 122.357 122.521 122.287 122.779C120.904 127.879 120.212 130.428 119.901 130.974C118.848 132.819 118.911 132.771 116.854 133.303C116.246 133.461 115.421 133.461 113.77 133.461H68.5784C64.8868 133.461 64.0927 128.241 63.3342 124.628Z" fill="white"/>
</g>
<g filter="url(#filter5_i_1_598)">
<path d="M62.9221 141.883C61.8224 147.12 61.2726 149.739 62.4978 151.489C62.6341 151.683 62.7768 151.859 62.9392 152.032C64.4 153.591 67.0204 153.591 72.2612 153.591H113.222C117.84 153.591 120.149 153.591 121.627 151.803C123.106 150.015 122.758 148.194 122.062 144.551C122.007 144.264 121.945 143.99 121.875 143.731C120.491 138.632 119.8 136.083 119.488 135.537C118.436 133.692 118.499 133.74 116.442 133.207C115.834 133.05 115.009 133.05 113.358 133.05H68.1662C64.4747 133.05 63.6806 138.27 62.9221 141.883Z" fill="white"/>
</g>
</g>
<g filter="url(#filter6_i_1_598)">
<path d="M83.8914 107.783C85.584 107.783 86.9893 106.396 86.6261 104.742C86.0497 102.119 84.7341 99.6905 82.8049 97.7613C80.1468 95.1033 76.5418 93.61 72.7828 93.61C69.0237 93.61 65.4187 95.1033 62.7607 97.7613C60.9309 99.5911 59.6531 101.87 59.0344 104.338C58.5672 106.202 60.1674 107.783 62.0893 107.783C63.8911 107.783 65.2906 106.256 66.0565 104.625C66.4187 103.853 66.9142 103.143 67.5282 102.529C68.9218 101.135 70.8119 100.352 72.7828 100.352C74.7536 100.352 76.6437 101.135 78.0373 102.529C78.5517 103.043 78.9828 103.625 79.3221 104.254C80.2868 106.041 81.8603 107.783 83.8914 107.783Z" fill="#C4C4C4"/>
<path d="M83.8914 107.783C85.584 107.783 86.9893 106.396 86.6261 104.742C86.0497 102.119 84.7341 99.6905 82.8049 97.7613C80.1468 95.1033 76.5418 93.61 72.7828 93.61C69.0237 93.61 65.4187 95.1033 62.7607 97.7613C60.9309 99.5911 59.6531 101.87 59.0344 104.338C58.5672 106.202 60.1674 107.783 62.0893 107.783C63.8911 107.783 65.2906 106.256 66.0565 104.625C66.4187 103.853 66.9142 103.143 67.5282 102.529C68.9218 101.135 70.8119 100.352 72.7828 100.352C74.7536 100.352 76.6437 101.135 78.0373 102.529C78.5517 103.043 78.9828 103.625 79.3221 104.254C80.2868 106.041 81.8603 107.783 83.8914 107.783Z" fill="#221725"/>
</g>
<g filter="url(#filter7_i_1_598)">
<path d="M123.741 107.783C125.434 107.783 126.839 106.396 126.476 104.742C125.899 102.119 124.584 99.6905 122.654 97.7613C119.996 95.1033 116.391 93.61 112.632 93.61C108.873 93.61 105.268 95.1033 102.61 97.7613C100.781 99.5911 99.5027 101.87 98.884 104.338C98.4168 106.202 100.017 107.783 101.939 107.783C103.741 107.783 105.14 106.256 105.906 104.625C106.268 103.853 106.764 103.143 107.378 102.529C108.771 101.135 110.662 100.352 112.632 100.352C114.603 100.352 116.493 101.135 117.887 102.529C118.401 103.043 118.832 103.625 119.172 104.254C120.136 106.041 121.71 107.783 123.741 107.783Z" fill="#C4C4C4"/>
<path d="M123.741 107.783C125.434 107.783 126.839 106.396 126.476 104.742C125.899 102.119 124.584 99.6905 122.654 97.7613C119.996 95.1033 116.391 93.61 112.632 93.61C108.873 93.61 105.268 95.1033 102.61 97.7613C100.781 99.5911 99.5027 101.87 98.884 104.338C98.4168 106.202 100.017 107.783 101.939 107.783C103.741 107.783 105.14 106.256 105.906 104.625C106.268 103.853 106.764 103.143 107.378 102.529C108.771 101.135 110.662 100.352 112.632 100.352C114.603 100.352 116.493 101.135 117.887 102.529C118.401 103.043 118.832 103.625 119.172 104.254C120.136 106.041 121.71 107.783 123.741 107.783Z" fill="#221725"/>
</g>
<g filter="url(#filter8_i_1_598)">
<path d="M85.7989 39.5788C93.4977 34.1655 90.3422 21.8885 83.1305 15.5346C75.9255 9.15986 65.4125 5.86611 64.4167 6.57088C63.4209 7.27566 60.7922 21.2092 66.9784 30.9488C73.1646 40.6884 81.0946 42.8915 85.7989 39.5788Z" fill="#3D830B"/>
</g>
<path d="M85.5113 39.3602L86.5888 38.5436C90.0246 43.1149 91.9852 44.8573 92.0061 44.864L91.118 45.8791C91.0342 45.8178 89.0456 44.055 85.5113 39.3602Z" fill="#3D830B"/>
<g filter="url(#filter9_i_1_598)">
<path d="M94.1387 42.1999C89.9897 39.2826 91.6902 32.6663 95.5767 29.2421C99.4596 25.8066 105.125 24.0315 105.662 24.4114C106.199 24.7912 107.615 32.3002 104.281 37.549C100.948 42.7979 96.6739 43.9851 94.1387 42.1999Z" fill="#3D830B"/>
</g>
<path d="M94.2936 42.0821L93.7129 41.642C91.8613 44.1055 90.8047 45.0445 90.7935 45.0481L91.2721 45.5952C91.3173 45.5622 92.389 44.6121 94.2936 42.0821Z" fill="#3D830B"/>
<path d="M76.7486 15.0617C76.6706 14.9103 76.6751 14.7163 76.7702 14.5627C76.9267 14.3253 77.2375 14.2523 77.4678 14.3949C78.9544 15.3188 81.1144 16.9411 83.0151 19.4461C85.303 22.466 86.6134 25.9895 86.9176 29.927C86.9418 30.2107 86.7299 30.4418 86.4462 30.466C86.1625 30.4903 85.9314 30.2784 85.9072 29.9947C85.2787 21.6074 80.0226 17.1552 76.9518 15.2532C76.8542 15.199 76.7841 15.1305 76.7486 15.0617Z" fill="url(#paint4_linear_1_598)"/>
<g filter="url(#filter10_f_1_598)">
<ellipse cx="91.8624" cy="45.5876" rx="4.54204" ry="1.20565" fill="#744500" fill-opacity="0.6"/>
</g>
<ellipse cx="116.799" cy="174.401" rx="3.59182" ry="2.44077" transform="rotate(-39.6655 116.799 174.401)" fill="#878787" fill-opacity="0.2"/>
<ellipse cx="129.285" cy="161.024" rx="3.59182" ry="2.44077" transform="rotate(-39.6655 129.285 161.024)" fill="#878787" fill-opacity="0.2"/>
<ellipse cx="115.592" cy="152.679" rx="3.59182" ry="2.44077" transform="rotate(-39.6655 115.592 152.679)" fill="#B77D00" fill-opacity="0.37"/>
<ellipse cx="126.169" cy="142.968" rx="3.59182" ry="2.44077" transform="rotate(-39.6655 126.169 142.968)" fill="#B77D00" fill-opacity="0.37"/>
<ellipse cx="135.583" cy="132.564" rx="3.59182" ry="2.44077" transform="rotate(-39.6655 135.583 132.564)" fill="#B77D00" fill-opacity="0.37"/>
<ellipse cx="124.238" cy="131.076" rx="3.59182" ry="2.44077" transform="rotate(-39.6655 124.238 131.076)" fill="#B77D00" fill-opacity="0.37"/>
<path d="M4.0991 232.522H1.9291V217.772H6.3691C7.50244 217.772 8.45244 217.986 9.2191 218.412C9.99244 218.839 10.5724 219.416 10.9591 220.142C11.3524 220.862 11.5491 221.669 11.5491 222.562C11.5491 223.456 11.3491 224.279 10.9491 225.032C10.5558 225.779 9.97244 226.379 9.1991 226.832C8.42577 227.286 7.48244 227.512 6.3691 227.512H4.0991V232.522ZM4.0991 226.772L3.1191 225.712H6.1191C6.82577 225.712 7.4191 225.586 7.8991 225.332C8.38577 225.072 8.75244 224.706 8.9991 224.232C9.24577 223.759 9.3691 223.202 9.3691 222.562C9.3691 221.922 9.2491 221.379 9.0091 220.932C8.7691 220.486 8.4091 220.149 7.9291 219.922C7.4491 219.689 6.84577 219.572 6.1191 219.572H3.1191L4.0991 218.432V226.772ZM13.796 232.522V221.902H15.966V225.292L15.386 225.032C15.4326 224.599 15.5426 224.186 15.716 223.792C15.8893 223.399 16.1193 223.049 16.406 222.742C16.6993 222.429 17.0593 222.182 17.486 222.002C17.9126 221.822 18.406 221.732 18.966 221.732C19.3926 221.732 19.736 221.766 19.996 221.832C20.2626 221.899 20.426 221.952 20.486 221.992L20.026 224.032C19.9593 223.986 19.8226 223.926 19.616 223.852C19.416 223.779 19.136 223.742 18.776 223.742C18.2293 223.742 17.776 223.839 17.416 224.032C17.056 224.226 16.7693 224.482 16.556 224.802C16.3426 225.122 16.1893 225.472 16.096 225.852C16.0093 226.226 15.966 226.602 15.966 226.982V232.522H13.796ZM25.7182 232.732C24.9182 232.732 24.2148 232.606 23.6082 232.352C23.0082 232.099 22.5415 231.736 22.2082 231.262C21.8748 230.789 21.7082 230.219 21.7082 229.552C21.7082 228.839 21.8948 228.249 22.2682 227.782C22.6482 227.316 23.1682 226.956 23.8282 226.702C24.4948 226.442 25.2515 226.272 26.0982 226.192C27.3582 226.066 28.2448 225.942 28.7582 225.822C29.2782 225.702 29.5382 225.506 29.5382 225.232C29.5382 225.226 29.5382 225.219 29.5382 225.212C29.5382 224.672 29.3082 224.262 28.8482 223.982C28.3882 223.702 27.7315 223.562 26.8782 223.562C25.9782 223.562 25.2815 223.722 24.7882 224.042C24.3015 224.356 24.0582 224.856 24.0582 225.542H21.9282C21.9282 224.729 22.1382 224.039 22.5582 223.472C22.9848 222.906 23.5715 222.476 24.3182 222.182C25.0648 221.882 25.9215 221.732 26.8882 221.732C27.7748 221.732 28.5815 221.869 29.3082 222.142C30.0415 222.409 30.6248 222.809 31.0582 223.342C31.4915 223.876 31.7082 224.539 31.7082 225.332C31.7082 225.472 31.7082 225.612 31.7082 225.752C31.7082 225.886 31.7082 226.022 31.7082 226.162V230.402C31.7082 230.649 31.7182 230.889 31.7382 231.122C31.7582 231.349 31.7948 231.552 31.8482 231.732C31.9082 231.939 31.9782 232.109 32.0582 232.242C32.1448 232.376 32.2148 232.469 32.2682 232.522H30.1082C30.0682 232.482 30.0082 232.399 29.9282 232.272C29.8548 232.139 29.7882 231.986 29.7282 231.812C29.6682 231.646 29.6215 231.456 29.5882 231.242C29.5615 231.022 29.5482 230.786 29.5482 230.532L29.9482 230.812C29.7482 231.199 29.4448 231.536 29.0382 231.822C28.6382 232.109 28.1548 232.332 27.5882 232.492C27.0282 232.652 26.4048 232.732 25.7182 232.732ZM26.1682 230.932C26.7882 230.932 27.3515 230.836 27.8582 230.642C28.3715 230.442 28.7815 230.142 29.0882 229.742C29.3948 229.336 29.5482 228.826 29.5482 228.212V226.452L30.0582 227.122C29.6315 227.289 29.1082 227.426 28.4882 227.532C27.8748 227.632 27.2415 227.716 26.5882 227.782C25.6882 227.862 25.0115 228.019 24.5582 228.252C24.1048 228.479 23.8782 228.859 23.8782 229.392C23.8782 229.906 24.0648 230.292 24.4382 230.552C24.8182 230.806 25.3948 230.932 26.1682 230.932ZM39.4929 232.732C38.4262 232.732 37.4695 232.509 36.6229 232.062C35.7829 231.609 35.1195 230.966 34.6329 230.132C34.1529 229.299 33.9129 228.319 33.9129 227.192C33.9129 226.066 34.1529 225.096 34.6329 224.282C35.1195 223.462 35.7829 222.832 36.6229 222.392C37.4695 221.952 38.4262 221.732 39.4929 221.732C40.2995 221.732 41.0162 221.856 41.6429 222.102C42.2695 222.342 42.7995 222.662 43.2329 223.062C43.6662 223.462 43.9962 223.902 44.2229 224.382C44.4495 224.862 44.5629 225.342 44.5629 225.822C44.5629 225.829 44.5629 225.839 44.5629 225.852C44.5629 225.866 44.5629 225.879 44.5629 225.892H42.4129C42.4129 225.859 42.4095 225.822 42.4029 225.782C42.3962 225.736 42.3895 225.692 42.3829 225.652C42.3295 225.259 42.1762 224.909 41.9229 224.602C41.6695 224.296 41.3362 224.052 40.9229 223.872C40.5095 223.692 40.0262 223.602 39.4729 223.602C38.8662 223.602 38.3062 223.736 37.7929 224.002C37.2862 224.262 36.8795 224.659 36.5729 225.192C36.2662 225.726 36.1129 226.392 36.1129 227.192C36.1129 227.992 36.2629 228.666 36.5629 229.212C36.8695 229.752 37.2762 230.162 37.7829 230.442C38.2962 230.722 38.8595 230.862 39.4729 230.862C40.1329 230.862 40.6729 230.762 41.0929 230.562C41.5129 230.356 41.8295 230.082 42.0429 229.742C42.2562 229.396 42.3795 229.022 42.4129 228.622H44.5629C44.5629 229.102 44.4529 229.589 44.2329 230.082C44.0129 230.569 43.6895 231.012 43.2629 231.412C42.8362 231.812 42.3062 232.132 41.6729 232.372C41.0462 232.612 40.3195 232.732 39.4929 232.732ZM51.3243 232.702C50.9709 232.702 50.6176 232.666 50.2643 232.592C49.9176 232.519 49.5976 232.386 49.3043 232.192C49.0176 231.992 48.7876 231.709 48.6143 231.342C48.4409 230.976 48.3543 230.496 48.3543 229.902C48.3543 229.762 48.3543 229.616 48.3543 229.462C48.3543 229.309 48.3543 229.152 48.3543 228.992V223.702H45.8043V221.902H47.1443C47.4309 221.902 47.6543 221.892 47.8143 221.872C47.9809 221.846 48.1009 221.789 48.1743 221.702C48.2543 221.609 48.3043 221.462 48.3243 221.262C48.3443 221.062 48.3543 220.789 48.3543 220.442V218.392H50.5243V221.902H53.7743V223.702H50.5243V228.412C50.5243 228.546 50.5243 228.679 50.5243 228.812C50.5243 228.946 50.5243 229.069 50.5243 229.182C50.5243 229.716 50.5876 230.136 50.7143 230.442C50.8476 230.749 51.1476 230.902 51.6143 230.902C51.8143 230.902 52.0043 230.886 52.1843 230.852C52.3643 230.819 52.5009 230.782 52.5943 230.742V232.512C52.4743 232.559 52.3043 232.602 52.0843 232.642C51.8643 232.682 51.6109 232.702 51.3243 232.702ZM55.8768 232.522V221.902H58.0168V232.522H55.8768ZM56.9568 219.702C56.5834 219.702 56.2601 219.602 55.9868 219.402C55.7201 219.196 55.5868 218.912 55.5868 218.552C55.5868 218.199 55.7201 217.922 55.9868 217.722C56.2601 217.516 56.5834 217.412 56.9568 217.412C57.3234 217.412 57.6401 217.516 57.9068 217.722C58.1801 217.922 58.3168 218.199 58.3168 218.552C58.3168 218.912 58.1801 219.196 57.9068 219.402C57.6401 219.602 57.3234 219.702 56.9568 219.702ZM66.0554 232.732C64.9887 232.732 64.032 232.509 63.1854 232.062C62.3454 231.609 61.682 230.966 61.1954 230.132C60.7154 229.299 60.4754 228.319 60.4754 227.192C60.4754 226.066 60.7154 225.096 61.1954 224.282C61.682 223.462 62.3454 222.832 63.1854 222.392C64.032 221.952 64.9887 221.732 66.0554 221.732C66.862 221.732 67.5787 221.856 68.2054 222.102C68.832 222.342 69.362 222.662 69.7954 223.062C70.2287 223.462 70.5587 223.902 70.7854 224.382C71.012 224.862 71.1254 225.342 71.1254 225.822C71.1254 225.829 71.1254 225.839 71.1254 225.852C71.1254 225.866 71.1254 225.879 71.1254 225.892H68.9754C68.9754 225.859 68.972 225.822 68.9654 225.782C68.9587 225.736 68.952 225.692 68.9454 225.652C68.892 225.259 68.7387 224.909 68.4854 224.602C68.232 224.296 67.8987 224.052 67.4854 223.872C67.072 223.692 66.5887 223.602 66.0354 223.602C65.4287 223.602 64.8687 223.736 64.3554 224.002C63.8487 224.262 63.442 224.659 63.1354 225.192C62.8287 225.726 62.6754 226.392 62.6754 227.192C62.6754 227.992 62.8254 228.666 63.1254 229.212C63.432 229.752 63.8387 230.162 64.3454 230.442C64.8587 230.722 65.422 230.862 66.0354 230.862C66.6954 230.862 67.2354 230.762 67.6554 230.562C68.0754 230.356 68.392 230.082 68.6054 229.742C68.8187 229.396 68.942 229.022 68.9754 228.622H71.1254C71.1254 229.102 71.0154 229.589 70.7954 230.082C70.5754 230.569 70.252 231.012 69.8254 231.412C69.3987 231.812 68.8687 232.132 68.2354 232.372C67.6087 232.612 66.882 232.732 66.0554 232.732ZM77.2025 232.732C76.4025 232.732 75.6992 232.606 75.0925 232.352C74.4925 232.099 74.0259 231.736 73.6925 231.262C73.3592 230.789 73.1925 230.219 73.1925 229.552C73.1925 228.839 73.3792 228.249 73.7525 227.782C74.1325 227.316 74.6525 226.956 75.3125 226.702C75.9792 226.442 76.7359 226.272 77.5825 226.192C78.8425 226.066 79.7292 225.942 80.2425 225.822C80.7625 225.702 81.0225 225.506 81.0225 225.232C81.0225 225.226 81.0225 225.219 81.0225 225.212C81.0225 224.672 80.7925 224.262 80.3325 223.982C79.8725 223.702 79.2159 223.562 78.3625 223.562C77.4625 223.562 76.7659 223.722 76.2725 224.042C75.7859 224.356 75.5425 224.856 75.5425 225.542H73.4125C73.4125 224.729 73.6225 224.039 74.0425 223.472C74.4692 222.906 75.0559 222.476 75.8025 222.182C76.5492 221.882 77.4059 221.732 78.3725 221.732C79.2592 221.732 80.0659 221.869 80.7925 222.142C81.5259 222.409 82.1092 222.809 82.5425 223.342C82.9759 223.876 83.1925 224.539 83.1925 225.332C83.1925 225.472 83.1925 225.612 83.1925 225.752C83.1925 225.886 83.1925 226.022 83.1925 226.162V230.402C83.1925 230.649 83.2025 230.889 83.2225 231.122C83.2425 231.349 83.2792 231.552 83.3325 231.732C83.3925 231.939 83.4625 232.109 83.5425 232.242C83.6292 232.376 83.6992 232.469 83.7525 232.522H81.5925C81.5525 232.482 81.4925 232.399 81.4125 232.272C81.3392 232.139 81.2725 231.986 81.2125 231.812C81.1525 231.646 81.1059 231.456 81.0725 231.242C81.0459 231.022 81.0325 230.786 81.0325 230.532L81.4325 230.812C81.2325 231.199 80.9292 231.536 80.5225 231.822C80.1225 232.109 79.6392 232.332 79.0725 232.492C78.5125 232.652 77.8892 232.732 77.2025 232.732ZM77.6525 230.932C78.2725 230.932 78.8359 230.836 79.3425 230.642C79.8559 230.442 80.2659 230.142 80.5725 229.742C80.8792 229.336 81.0325 228.826 81.0325 228.212V226.452L81.5425 227.122C81.1159 227.289 80.5925 227.426 79.9725 227.532C79.3592 227.632 78.7259 227.716 78.0725 227.782C77.1725 227.862 76.4959 228.019 76.0425 228.252C75.5892 228.479 75.3625 228.859 75.3625 229.392C75.3625 229.906 75.5492 230.292 75.9225 230.552C76.3025 230.806 76.8792 230.932 77.6525 230.932ZM88.1172 216.892V232.522H85.9772V216.892H88.1172ZM95.3025 232.522L99.2425 217.742H102.653L106.553 232.522H104.323L100.933 219.112H100.953L97.5425 232.522H95.3025ZM97.5825 228.772V226.972H104.303V228.772H97.5825ZM113.673 232.732C112.606 232.732 111.649 232.509 110.803 232.062C109.963 231.609 109.299 230.966 108.813 230.132C108.333 229.299 108.093 228.319 108.093 227.192C108.093 226.066 108.333 225.096 108.813 224.282C109.299 223.462 109.963 222.832 110.803 222.392C111.649 221.952 112.606 221.732 113.673 221.732C114.479 221.732 115.196 221.856 115.823 222.102C116.449 222.342 116.979 222.662 117.413 223.062C117.846 223.462 118.176 223.902 118.403 224.382C118.629 224.862 118.743 225.342 118.743 225.822C118.743 225.829 118.743 225.839 118.743 225.852C118.743 225.866 118.743 225.879 118.743 225.892H116.593C116.593 225.859 116.589 225.822 116.583 225.782C116.576 225.736 116.569 225.692 116.563 225.652C116.509 225.259 116.356 224.909 116.103 224.602C115.849 224.296 115.516 224.052 115.103 223.872C114.689 223.692 114.206 223.602 113.653 223.602C113.046 223.602 112.486 223.736 111.973 224.002C111.466 224.262 111.059 224.659 110.753 225.192C110.446 225.726 110.293 226.392 110.293 227.192C110.293 227.992 110.443 228.666 110.743 229.212C111.049 229.752 111.456 230.162 111.963 230.442C112.476 230.722 113.039 230.862 113.653 230.862C114.313 230.862 114.853 230.762 115.273 230.562C115.693 230.356 116.009 230.082 116.223 229.742C116.436 229.396 116.559 229.022 116.593 228.622H118.743C118.743 229.102 118.633 229.589 118.413 230.082C118.193 230.569 117.869 231.012 117.443 231.412C117.016 231.812 116.486 232.132 115.853 232.372C115.226 232.612 114.499 232.732 113.673 232.732ZM128.71 232.522V228.632C128.71 228.459 128.71 228.249 128.71 228.002C128.71 227.756 128.71 227.506 128.71 227.252C128.71 226.992 128.71 226.776 128.71 226.602C128.71 225.649 128.513 224.926 128.12 224.432C127.733 223.939 127.096 223.692 126.21 223.692C125.616 223.692 125.103 223.809 124.67 224.042C124.236 224.276 123.9 224.596 123.66 225.002C123.426 225.409 123.31 225.872 123.31 226.392L122.29 225.972C122.29 225.166 122.483 224.446 122.87 223.812C123.263 223.172 123.8 222.666 124.48 222.292C125.166 221.919 125.95 221.732 126.83 221.732C128.11 221.732 129.103 222.116 129.81 222.882C130.523 223.642 130.88 224.702 130.88 226.062C130.88 226.409 130.88 226.819 130.88 227.292C130.88 227.759 130.88 228.269 130.88 228.822V232.522H128.71ZM121.14 232.522V216.892H123.31V232.522H121.14ZM133.65 232.522V221.902H135.79V232.522H133.65ZM134.73 219.702C134.357 219.702 134.034 219.602 133.76 219.402C133.494 219.196 133.36 218.912 133.36 218.552C133.36 218.199 133.494 217.922 133.76 217.722C134.034 217.516 134.357 217.412 134.73 217.412C135.097 217.412 135.414 217.516 135.68 217.722C135.954 217.922 136.09 218.199 136.09 218.552C136.09 218.912 135.954 219.196 135.68 219.402C135.414 219.602 135.097 219.702 134.73 219.702ZM139.449 227.972V226.282H147.269L146.969 226.782C146.969 226.742 146.969 226.702 146.969 226.662C146.969 226.616 146.969 226.576 146.969 226.542C146.969 226.002 146.852 225.506 146.619 225.052C146.385 224.592 146.035 224.226 145.569 223.952C145.109 223.672 144.532 223.532 143.839 223.532C143.145 223.532 142.535 223.682 142.009 223.982C141.489 224.276 141.082 224.696 140.789 225.242C140.502 225.782 140.359 226.432 140.359 227.192C140.359 227.966 140.499 228.632 140.779 229.192C141.059 229.746 141.462 230.172 141.989 230.472C142.515 230.772 143.145 230.922 143.879 230.922C144.392 230.922 144.835 230.872 145.209 230.772C145.589 230.666 145.899 230.526 146.139 230.352C146.385 230.179 146.572 229.992 146.699 229.792C146.825 229.586 146.899 229.382 146.919 229.182H149.079C149.039 229.616 148.895 230.046 148.649 230.472C148.409 230.892 148.065 231.276 147.619 231.622C147.179 231.962 146.639 232.236 145.999 232.442C145.365 232.642 144.635 232.742 143.809 232.742C142.702 232.742 141.732 232.509 140.899 232.042C140.065 231.576 139.415 230.929 138.949 230.102C138.482 229.269 138.249 228.316 138.249 227.242C138.249 226.149 138.485 225.189 138.959 224.362C139.432 223.536 140.089 222.892 140.929 222.432C141.769 221.966 142.732 221.732 143.819 221.732C144.925 221.732 145.882 221.966 146.689 222.432C147.502 222.899 148.129 223.542 148.569 224.362C149.009 225.182 149.229 226.126 149.229 227.192C149.229 227.319 149.225 227.466 149.219 227.632C149.212 227.799 149.202 227.912 149.189 227.972H139.449ZM160.186 221.902L156.746 232.522H153.866L150.336 221.902H152.576L155.476 231.612H155.136L157.946 221.902H160.186ZM162.32 227.972V226.282H170.14L169.84 226.782C169.84 226.742 169.84 226.702 169.84 226.662C169.84 226.616 169.84 226.576 169.84 226.542C169.84 226.002 169.723 225.506 169.49 225.052C169.257 224.592 168.907 224.226 168.44 223.952C167.98 223.672 167.403 223.532 166.71 223.532C166.017 223.532 165.407 223.682 164.88 223.982C164.36 224.276 163.953 224.696 163.66 225.242C163.373 225.782 163.23 226.432 163.23 227.192C163.23 227.966 163.37 228.632 163.65 229.192C163.93 229.746 164.333 230.172 164.86 230.472C165.387 230.772 166.017 230.922 166.75 230.922C167.263 230.922 167.707 230.872 168.08 230.772C168.46 230.666 168.77 230.526 169.01 230.352C169.257 230.179 169.443 229.992 169.57 229.792C169.697 229.586 169.77 229.382 169.79 229.182H171.95C171.91 229.616 171.767 230.046 171.52 230.472C171.28 230.892 170.937 231.276 170.49 231.622C170.05 231.962 169.51 232.236 168.87 232.442C168.237 232.642 167.507 232.742 166.68 232.742C165.573 232.742 164.603 232.509 163.77 232.042C162.937 231.576 162.287 230.929 161.82 230.102C161.353 229.269 161.12 228.316 161.12 227.242C161.12 226.149 161.357 225.189 161.83 224.362C162.303 223.536 162.96 222.892 163.8 222.432C164.64 221.966 165.603 221.732 166.69 221.732C167.797 221.732 168.753 221.966 169.56 222.432C170.373 222.899 171 223.542 171.44 224.362C171.88 225.182 172.1 226.126 172.1 227.192C172.1 227.319 172.097 227.466 172.09 227.632C172.083 227.799 172.073 227.912 172.06 227.972H162.32ZM174.519 232.522V221.902H176.689V225.292L176.109 225.032C176.155 224.599 176.265 224.186 176.439 223.792C176.612 223.399 176.842 223.049 177.129 222.742C177.422 222.429 177.782 222.182 178.209 222.002C178.635 221.822 179.129 221.732 179.689 221.732C180.115 221.732 180.459 221.766 180.719 221.832C180.985 221.899 181.149 221.952 181.209 221.992L180.749 224.032C180.682 223.986 180.545 223.926 180.339 223.852C180.139 223.779 179.859 223.742 179.499 223.742C178.952 223.742 178.499 223.839 178.139 224.032C177.779 224.226 177.492 224.482 177.279 224.802C177.065 225.122 176.912 225.472 176.819 225.852C176.732 226.226 176.689 226.602 176.689 226.982V232.522H174.519Z" fill="black"/>
<defs>
<filter id="filter0_iii_1_598" x="27.2013" y="36.6595" width="130.366" height="162.402" filterUnits="userSpaceOnUse" color-interpolation-filters="sRGB">
<feFlood flood-opacity="0" result="BackgroundImageFix"/>
<feBlend mode="normal" in="SourceGraphic" in2="BackgroundImageFix" result="shape"/>
<feColorMatrix in="SourceAlpha" type="matrix" values="0 0 0 0 0 0 0 0 0 0 0 0 0 0 0 0 0 0 127 0" result="hardAlpha"/>
<feMorphology radius="2.70941" operator="erode" in="SourceAlpha" result="effect1_innerShadow_1_598"/>
<feOffset dx="7.11221" dy="4.40279"/>
<feGaussianBlur stdDeviation="8.12823"/>
<feComposite in2="hardAlpha" operator="arithmetic" k2="-1" k3="1"/>
<feColorMatrix type="matrix" values="0 0 0 0 0.682806 0 0 0 0 0.0652778 0 0 0 0 0.783333 0 0 0 0.14 0"/>
<feBlend mode="normal" in2="shape" result="effect1_innerShadow_1_598"/>
<feColorMatrix in="SourceAlpha" type="matrix" values="0 0 0 0 0 0 0 0 0 0 0 0 0 0 0 0 0 0 127 0" result="hardAlpha"/>
<feOffset dy="-6.09618"/>
<feGaussianBlur stdDeviation="5.24949"/>
<feComposite in2="hardAlpha" operator="arithmetic" k2="-1" k3="1"/>
<feColorMatrix type="matrix" values="0 0 0 0 0.943639 0 0 0 0 0.223611 0 0 0 0 0.958333 0 0 0 0.44 0"/>
<feBlend mode="normal" in2="effect1_innerShadow_1_598" result="effect2_innerShadow_1_598"/>
<feColorMatrix in="SourceAlpha" type="matrix" values="0 0 0 0 0 0 0 0 0 0 0 0 0 0 0 0 0 0 127 0" result="hardAlpha"/>
<feOffset dx="-3.72544" dy="5.41882"/>
<feGaussianBlur stdDeviation="5.24949"/>
<feComposite in2="hardAlpha" operator="arithmetic" k2="-1" k3="1"/>
<feColorMatrix type="matrix" values="0 0 0 0 1 0 0 0 0 1 0 0 0 0 1 0 0 0 0.59 0"/>
<feBlend mode="normal" in2="effect2_innerShadow_1_598" result="effect3_innerShadow_1_598"/>
</filter>
<filter id="filter1_iii_1_598" x="70.7394" y="162.582" width="47.324" height="36.4796" filterUnits="userSpaceOnUse" color-interpolation-filters="sRGB">
<feFlood flood-opacity="0" result="BackgroundImageFix"/>
<feBlend mode="normal" in="SourceGraphic" in2="BackgroundImageFix" result="shape"/>
<feColorMatrix in="SourceAlpha" type="matrix" values="0 0 0 0 0 0 0 0 0 0 0 0 0 0 0 0 0 0 127 0" result="hardAlpha"/>
<feMorphology radius="2.70941" operator="erode" in="SourceAlpha" result="effect1_innerShadow_1_598"/>
<feOffset dx="7.11221" dy="4.40279"/>
<feGaussianBlur stdDeviation="8.12823"/>
<feComposite in2="hardAlpha" operator="arithmetic" k2="-1" k3="1"/>
<feColorMatrix type="matrix" values="0 0 0 0 0.682806 0 0 0 0 0.0652778 0 0 0 0 0.783333 0 0 0 0.14 0"/>
<feBlend mode="normal" in2="shape" result="effect1_innerShadow_1_598"/>
<feColorMatrix in="SourceAlpha" type="matrix" values="0 0 0 0 0 0 0 0 0 0 0 0 0 0 0 0 0 0 127 0" result="hardAlpha"/>
<feOffset dy="-6.09618"/>
<feGaussianBlur stdDeviation="5.24949"/>
<feComposite in2="hardAlpha" operator="arithmetic" k2="-1" k3="1"/>
<feColorMatrix type="matrix" values="0 0 0 0 0.943639 0 0 0 0 0.223611 0 0 0 0 0.958333 0 0 0 0.44 0"/>
<feBlend mode="normal" in2="effect1_innerShadow_1_598" result="effect2_innerShadow_1_598"/>
<feColorMatrix in="SourceAlpha" type="matrix" values="0 0 0 0 0 0 0 0 0 0 0 0 0 0 0 0 0 0 127 0" result="hardAlpha"/>
<feOffset dx="-3.72544" dy="5.41882"/>
<feGaussianBlur stdDeviation="5.24949"/>
<feComposite in2="hardAlpha" operator="arithmetic" k2="-1" k3="1"/>
<feColorMatrix type="matrix" values="0 0 0 0 1 0 0 0 0 1 0 0 0 0 1 0 0 0 0.59 0"/>
<feBlend mode="normal" in2="effect2_innerShadow_1_598" result="effect3_innerShadow_1_598"/>
</filter>
<filter id="filter2_f_1_598" x="42.6101" y="130.827" width="111.701" height="68.5876" filterUnits="userSpaceOnUse" color-interpolation-filters="sRGB">
<feFlood flood-opacity="0" result="BackgroundImageFix"/>
<feBlend mode="normal" in="SourceGraphic" in2="BackgroundImageFix" result="shape"/>
<feGaussianBlur stdDeviation="2.8087" result="effect1_foregroundBlur_1_598"/>
</filter>
<filter id="filter3_i_1_598" x="63.2168" y="116.822" width="58.7012" height="31.8388" filterUnits="userSpaceOnUse" color-interpolation-filters="sRGB">
<feFlood flood-opacity="0" result="BackgroundImageFix"/>
<feBlend mode="normal" in="SourceGraphic" in2="BackgroundImageFix" result="shape"/>
<feColorMatrix in="SourceAlpha" type="matrix" values="0 0 0 0 0 0 0 0 0 0 0 0 0 0 0 0 0 0 127 0" result="hardAlpha"/>
<feOffset dy="1.64329"/>
<feGaussianBlur stdDeviation="3.28658"/>
<feComposite in2="hardAlpha" operator="arithmetic" k2="-1" k3="1"/>
<feColorMatrix type="matrix" values="0 0 0 0 0 0 0 0 0 0 0 0 0 0 0 0 0 0 0.25 0"/>
<feBlend mode="normal" in2="shape" result="effect1_innerShadow_1_598"/>
</filter>
<filter id="filter4_i_1_598" x="62.2129" y="111.687" width="60.8594" height="21.7736" filterUnits="userSpaceOnUse" color-interpolation-filters="sRGB">
<feFlood flood-opacity="0" result="BackgroundImageFix"/>
<feBlend mode="normal" in="SourceGraphic" in2="BackgroundImageFix" result="shape"/>
<feColorMatrix in="SourceAlpha" type="matrix" values="0 0 0 0 0 0 0 0 0 0 0 0 0 0 0 0 0 0 127 0" result="hardAlpha"/>
<feOffset dy="-1.23247"/>
<feGaussianBlur stdDeviation="3.28658"/>
<feComposite in2="hardAlpha" operator="arithmetic" k2="-1" k3="1"/>
<feColorMatrix type="matrix" values="0 0 0 0 0 0 0 0 0 0 0 0 0 0 0 0 0 0 0.47 0"/>
<feBlend mode="normal" in2="shape" result="effect1_innerShadow_1_598"/>
</filter>
<filter id="filter5_i_1_598" x="61.8008" y="131.818" width="60.8594" height="21.7736" filterUnits="userSpaceOnUse" color-interpolation-filters="sRGB">
<feFlood flood-opacity="0" result="BackgroundImageFix"/>
<feBlend mode="normal" in="SourceGraphic" in2="BackgroundImageFix" result="shape"/>
<feColorMatrix in="SourceAlpha" type="matrix" values="0 0 0 0 0 0 0 0 0 0 0 0 0 0 0 0 0 0 127 0" result="hardAlpha"/>
<feOffset dy="-1.23247"/>
<feGaussianBlur stdDeviation="3.28658"/>
<feComposite in2="hardAlpha" operator="arithmetic" k2="-1" k3="1"/>
<feColorMatrix type="matrix" values="0 0 0 0 0 0 0 0 0 0 0 0 0 0 0 0 0 0 0.47 0"/>
<feBlend mode="normal" in2="shape" result="effect1_innerShadow_1_598"/>
</filter>
<filter id="filter6_i_1_598" x="58.9521" y="93.61" width="27.7314" height="14.1734" filterUnits="userSpaceOnUse" color-interpolation-filters="sRGB">
<feFlood flood-opacity="0" result="BackgroundImageFix"/>
<feBlend mode="normal" in="SourceGraphic" in2="BackgroundImageFix" result="shape"/>
<feColorMatrix in="SourceAlpha" type="matrix" values="0 0 0 0 0 0 0 0 0 0 0 0 0 0 0 0 0 0 127 0" result="hardAlpha"/>
<feMorphology radius="10.8663" operator="dilate" in="SourceAlpha" result="effect1_innerShadow_1_598"/>
<feOffset dx="3.77957" dy="-2.87576"/>
<feGaussianBlur stdDeviation="4.25202"/>
<feComposite in2="hardAlpha" operator="arithmetic" k2="-1" k3="1"/>
<feColorMatrix type="matrix" values="0 0 0 0 0.462111 0 0 0 0 0.203767 0 0 0 0 0.504167 0 0 0 0.35 0"/>
<feBlend mode="normal" in2="shape" result="effect1_innerShadow_1_598"/>
</filter>
<filter id="filter7_i_1_598" x="98.8018" y="93.61" width="27.7314" height="14.1734" filterUnits="userSpaceOnUse" color-interpolation-filters="sRGB">
<feFlood flood-opacity="0" result="BackgroundImageFix"/>
<feBlend mode="normal" in="SourceGraphic" in2="BackgroundImageFix" result="shape"/>
<feColorMatrix in="SourceAlpha" type="matrix" values="0 0 0 0 0 0 0 0 0 0 0 0 0 0 0 0 0 0 127 0" result="hardAlpha"/>
<feMorphology radius="10.8663" operator="dilate" in="SourceAlpha" result="effect1_innerShadow_1_598"/>
<feOffset dx="3.77957" dy="-3.69741"/>
<feGaussianBlur stdDeviation="4.25202"/>
<feComposite in2="hardAlpha" operator="arithmetic" k2="-1" k3="1"/>
<feColorMatrix type="matrix" values="0 0 0 0 0.462111 0 0 0 0 0.203767 0 0 0 0 0.504167 0 0 0 0.35 0"/>
<feBlend mode="normal" in2="shape" result="effect1_innerShadow_1_598"/>
</filter>
<filter id="filter8_i_1_598" x="63.0039" y="6.47708" width="30.0474" height="35.9371" filterUnits="userSpaceOnUse" color-interpolation-filters="sRGB">
<feFlood flood-opacity="0" result="BackgroundImageFix"/>
<feBlend mode="normal" in="SourceGraphic" in2="BackgroundImageFix" result="shape"/>
<feColorMatrix in="SourceAlpha" type="matrix" values="0 0 0 0 0 0 0 0 0 0 0 0 0 0 0 0 0 0 127 0" result="hardAlpha"/>
<feOffset dx="2.78767" dy="1.39384"/>
<feGaussianBlur stdDeviation="3.87176"/>
<feComposite in2="hardAlpha" operator="arithmetic" k2="-1" k3="1"/>
<feColorMatrix type="matrix" values="0 0 0 0 0 0 0 0 0 0 0 0 0 0 0 0 0 0 0.25 0"/>
<feBlend mode="normal" in2="shape" result="effect1_innerShadow_1_598"/>
</filter>
<filter id="filter9_i_1_598" x="91.7324" y="24.3608" width="16.1928" height="19.3671" filterUnits="userSpaceOnUse" color-interpolation-filters="sRGB">
<feFlood flood-opacity="0" result="BackgroundImageFix"/>
<feBlend mode="normal" in="SourceGraphic" in2="BackgroundImageFix" result="shape"/>
<feColorMatrix in="SourceAlpha" type="matrix" values="0 0 0 0 0 0 0 0 0 0 0 0 0 0 0 0 0 0 127 0" result="hardAlpha"/>
<feOffset dx="1.50232" dy="0.751161"/>
<feGaussianBlur stdDeviation="2.08656"/>
<feComposite in2="hardAlpha" operator="arithmetic" k2="-1" k3="1"/>
<feColorMatrix type="matrix" values="0 0 0 0 0 0 0 0 0 0 0 0 0 0 0 0 0 0 0.25 0"/>
<feBlend mode="normal" in2="shape" result="effect1_innerShadow_1_598"/>
</filter>
<filter id="filter10_f_1_598" x="85.7153" y="42.777" width="12.2939" height="5.62124" filterUnits="userSpaceOnUse" color-interpolation-filters="sRGB">
<feFlood flood-opacity="0" result="BackgroundImageFix"/>
<feBlend mode="normal" in="SourceGraphic" in2="BackgroundImageFix" result="shape"/>
<feGaussianBlur stdDeviation="0.802485" result="effect1_foregroundBlur_1_598"/>
</filter>
<radialGradient id="paint0_radial_1_598" cx="0" cy="0" r="1" gradientUnits="userSpaceOnUse" gradientTransform="translate(90.6316 171.732) rotate(84.5862) scale(22.0089 34.0873)">
<stop stop-color="#FFBB0C"/>
<stop offset="1" stop-color="#FFC907"/>
</radialGradient>
<radialGradient id="paint1_radial_1_598" cx="0" cy="0" r="1" gradientUnits="userSpaceOnUse" gradientTransform="translate(90.6317 170.302) rotate(84.9162) scale(23.4331 34.1053)">
<stop stop-color="#FFBB0C"/>
<stop offset="1" stop-color="#FFC907"/>
</radialGradient>
<linearGradient id="paint2_linear_1_598" x1="92.5018" y1="147.018" x2="86.3394" y2="111.687" gradientUnits="userSpaceOnUse">
<stop stop-color="#FB39A2"/>
<stop offset="1" stop-color="#C520FF"/>
</linearGradient>
<linearGradient id="paint3_linear_1_598" x1="92.5018" y1="147.018" x2="74.0148" y2="107.99" gradientUnits="userSpaceOnUse">
<stop stop-color="#3A2EC0"/>
<stop offset="1" stop-color="#FF20C1"/>
</linearGradient>
<linearGradient id="paint4_linear_1_598" x1="77.668" y1="14.6963" x2="86.946" y2="28.4407" gradientUnits="userSpaceOnUse">
<stop stop-color="white"/>
<stop offset="1" stop-color="white" stop-opacity="0"/>
</linearGradient>
</defs>
</svg>
