<svg width="32" height="32" viewBox="0 0 32 32" fill="none" xmlns="http://www.w3.org/2000/svg">
<path d="M8.30664 14.9732C7.71099 14.9732 7.22812 15.456 7.22812 16.0517C7.22812 16.6473 7.71099 17.1302 8.30664 17.1302V14.9732ZM23.998 16.8143C24.4191 16.3931 24.4191 15.7103 23.998 15.2891L17.1343 8.4254C16.7131 8.00421 16.0302 8.00421 15.609 8.4254C15.1878 8.84659 15.1878 9.52947 15.609 9.95066L21.7101 16.0517L15.609 22.1527C15.1878 22.5739 15.1878 23.2568 15.609 23.678C16.0302 24.0992 16.7131 24.0992 17.1343 23.678L23.998 16.8143ZM8.30664 17.1302H23.2353V14.9732H8.30664V17.1302Z" fill="white"/>
</svg>
