<svg width="229" height="267" viewBox="0 0 229 267" fill="none" xmlns="http://www.w3.org/2000/svg">
<g filter="url(#filter0_iii_1_613)">
<path fill-rule="evenodd" clip-rule="evenodd" d="M67.3688 174.385C56.7707 165.425 50.3416 152.252 47.3584 136.974C46.0024 130.03 45.3584 122.651 45.3584 115.035C45.3584 83.3781 62.9855 55.4387 87.2556 46.0136C87.2843 46.0025 87.313 45.9915 87.3417 45.9806C92.6073 43.961 97.2032 43.9759 103.357 43.9959L103.357 43.9959C103.747 43.9972 104.143 43.9985 104.546 43.9993L104.547 43.9991C111.262 41.361 119.272 44.2389 125.675 47.1408C137.115 52.321 146.918 61.6741 153.861 73.5424C160.087 84.1854 164.013 96.8511 164.757 110.344C164.843 111.897 164.887 113.462 164.887 115.035C164.887 147.334 153.304 175.371 124.961 184.048C123.166 189.652 115.869 193.847 107.14 193.847C99.0363 193.847 92.1669 190.232 89.7882 185.231C80.8602 183.258 73.4322 179.511 67.3688 174.385Z" fill="url(#paint0_radial_1_613)"/>
</g>
<g filter="url(#filter1_i_1_613)">
<path d="M100.231 39.7829C107.929 34.3696 104.774 22.0926 97.5621 15.7387C90.3571 9.36396 79.8441 6.07021 78.8484 6.77498C77.8526 7.47976 75.2239 21.4133 81.41 31.1529C87.5962 40.8925 95.5262 43.0956 100.231 39.7829Z" fill="url(#paint1_linear_1_613)"/>
</g>
<path d="M99.9429 39.5643L101.02 38.7477C104.456 43.319 106.417 45.0614 106.438 45.0681L105.55 46.0832C105.466 46.0219 103.477 44.2591 99.9429 39.5643Z" fill="#318C1C"/>
<path d="M91.1802 15.2658C91.1022 15.1144 91.1068 14.9204 91.2019 14.7668C91.3583 14.5294 91.6691 14.4564 91.8994 14.599C93.386 15.5229 95.5461 17.1452 97.4467 19.6502C99.7346 22.67 101.045 26.1936 101.349 30.131C101.373 30.4147 101.162 30.6459 100.878 30.6701C100.594 30.6944 100.363 30.4825 100.339 30.1988C99.7103 21.8114 94.4543 17.3593 91.3834 15.4573C91.2858 15.403 91.2157 15.3346 91.1802 15.2658Z" fill="url(#paint2_linear_1_613)"/>
<g filter="url(#filter2_f_1_613)">
<ellipse cx="106.294" cy="45.7917" rx="4.54204" ry="1.20565" fill="#744500" fill-opacity="0.6"/>
</g>
<path d="M159.597 166.301C157.318 166.301 154.8 166.109 151.97 165.677C151.107 165.557 150.507 164.742 150.651 163.878C150.771 163.015 151.587 162.416 152.45 162.559C164.873 164.454 173.075 161.672 175.545 154.741C177.104 150.376 176.336 144.525 173.434 138.649C170.533 132.725 165.832 127.545 160.556 124.427C159.812 123.996 159.549 123.012 160.004 122.269C160.436 121.526 161.419 121.262 162.163 121.717C167.943 125.123 173.099 130.783 176.264 137.258C179.526 143.877 180.341 150.64 178.495 155.796C177.032 159.993 172.619 166.301 159.597 166.301Z" fill="#1D1D1D"/>
<path d="M49.589 166.299C36.5905 166.299 32.1778 159.992 30.6909 155.795C28.8682 150.639 29.6836 143.876 32.9212 137.257C36.1109 130.781 41.2431 125.122 47.0229 121.716C47.7663 121.284 48.7496 121.524 49.1813 122.268C49.613 123.011 49.3731 123.994 48.6297 124.426C43.3536 127.52 38.677 132.7 35.7512 138.648C32.8733 144.523 32.1058 150.375 33.6407 154.74C36.1109 161.671 44.3129 164.453 56.7357 162.558C57.5991 162.438 58.3905 163.014 58.5344 163.877C58.6543 164.741 58.0788 165.532 57.2154 165.676C54.3855 166.108 51.8433 166.299 49.589 166.299Z" fill="#1D1D1D"/>
<path d="M63.4756 174.454C63.4037 174.454 63.3077 174.454 63.2358 174.43C57.0244 173.495 55.3936 167.091 55.3936 163.83C55.3936 162.966 56.089 162.247 56.9764 162.247C57.8398 162.247 58.5592 162.943 58.5592 163.83C58.5592 164.094 58.6552 170.545 63.7394 171.312C64.6028 171.432 65.2023 172.248 65.0585 173.111C64.9146 173.878 64.2431 174.454 63.4756 174.454Z" fill="#1D1D1D"/>
<path d="M145.712 174.455C144.945 174.455 144.273 173.904 144.153 173.112C144.034 172.249 144.609 171.457 145.473 171.313C150.557 170.546 150.653 164.119 150.653 163.831C150.653 162.968 151.372 162.272 152.236 162.272C153.099 162.272 153.818 162.968 153.818 163.855C153.818 167.117 152.188 173.496 145.976 174.455C145.856 174.431 145.784 174.455 145.712 174.455Z" fill="#1D1D1D"/>
<g filter="url(#filter3_f_1_613)">
<path d="M87.7226 184.052C90.2984 190.87 101.018 193.485 106.057 193.94C119.081 193.94 125.011 186.443 126.348 182.694C151.143 175.961 159.982 147.882 162.551 136.588C142.281 162.578 87.9603 170.873 62.085 169.868C62.7466 174.736 79.4524 181.352 87.7226 184.052Z" fill="#EBAD1E"/>
</g>
<ellipse cx="3.59182" cy="2.44077" rx="3.59182" ry="2.44077" transform="matrix(0.769784 0.638304 0.638304 -0.769784 121.995 56.9044)" fill="#B77D00" fill-opacity="0.37"/>
<ellipse cx="3.59182" cy="2.44077" rx="3.59182" ry="2.44077" transform="matrix(0.769784 0.638304 0.638304 -0.769784 132.571 66.6157)" fill="#B77D00" fill-opacity="0.37"/>
<ellipse cx="3.59182" cy="2.44077" rx="3.59182" ry="2.44077" transform="matrix(0.769784 0.638304 0.638304 -0.769784 141.985 77.0198)" fill="#B77D00" fill-opacity="0.37"/>
<ellipse cx="3.59182" cy="2.44077" rx="3.59182" ry="2.44077" transform="matrix(0.769784 0.638304 0.638304 -0.769784 130.641 78.5072)" fill="#B77D00" fill-opacity="0.37"/>
<g filter="url(#filter4_i_1_613)">
<path d="M94.7239 91.4352C96.6069 91.4352 98.1703 92.9791 97.7663 94.8183C97.125 97.7372 95.6614 100.439 93.5151 102.585C90.5581 105.542 86.5474 107.203 82.3655 107.203C78.1836 107.203 74.173 105.542 71.216 102.585C69.1803 100.549 67.7588 98.0143 67.0705 95.2679C66.5507 93.1939 68.331 91.4352 70.4691 91.4352C72.4736 91.4352 74.0305 93.1348 74.8826 94.9492C75.2855 95.8073 75.8367 96.5977 76.5199 97.2808C78.0702 98.8312 80.173 99.7022 82.3655 99.7022C84.5581 99.7022 86.6608 98.8312 88.2112 97.2808C88.7834 96.7086 89.2631 96.0611 89.6406 95.3617C90.7138 93.3732 92.4643 91.4352 94.7239 91.4352Z" fill="#C4C4C4"/>
<path d="M94.7239 91.4352C96.6069 91.4352 98.1703 92.9791 97.7663 94.8183C97.125 97.7372 95.6614 100.439 93.5151 102.585C90.5581 105.542 86.5474 107.203 82.3655 107.203C78.1836 107.203 74.173 105.542 71.216 102.585C69.1803 100.549 67.7588 98.0143 67.0705 95.2679C66.5507 93.1939 68.331 91.4352 70.4691 91.4352C72.4736 91.4352 74.0305 93.1348 74.8826 94.9492C75.2855 95.8073 75.8367 96.5977 76.5199 97.2808C78.0702 98.8312 80.173 99.7022 82.3655 99.7022C84.5581 99.7022 86.6608 98.8312 88.2112 97.2808C88.7834 96.7086 89.2631 96.0611 89.6406 95.3617C90.7138 93.3732 92.4643 91.4352 94.7239 91.4352Z" fill="#221725"/>
</g>
<g filter="url(#filter5_i_1_613)">
<path d="M139.057 91.4352C140.94 91.4352 142.503 92.9791 142.099 94.8183C141.458 97.7372 139.994 100.439 137.848 102.585C134.891 105.542 130.88 107.203 126.699 107.203C122.517 107.203 118.506 105.542 115.549 102.585C113.513 100.549 112.092 98.0143 111.404 95.2679C110.884 93.1939 112.664 91.4352 114.802 91.4352C116.807 91.4352 118.364 93.1348 119.216 94.9492C119.619 95.8073 120.17 96.5977 120.853 97.2808C122.403 98.8312 124.506 99.7022 126.699 99.7022C128.891 99.7022 130.994 98.8312 132.544 97.2808C133.116 96.7086 133.596 96.0611 133.974 95.3617C135.047 93.3732 136.797 91.4352 139.057 91.4352Z" fill="#C4C4C4"/>
<path d="M139.057 91.4352C140.94 91.4352 142.503 92.9791 142.099 94.8183C141.458 97.7372 139.994 100.439 137.848 102.585C134.891 105.542 130.88 107.203 126.699 107.203C122.517 107.203 118.506 105.542 115.549 102.585C113.513 100.549 112.092 98.0143 111.404 95.2679C110.884 93.1939 112.664 91.4352 114.802 91.4352C116.807 91.4352 118.364 93.1348 119.216 94.9492C119.619 95.8073 120.17 96.5977 120.853 97.2808C122.403 98.8312 124.506 99.7022 126.699 99.7022C128.891 99.7022 130.994 98.8312 132.544 97.2808C133.116 96.7086 133.596 96.0611 133.974 95.3617C135.047 93.3732 136.797 91.4352 139.057 91.4352Z" fill="#221725"/>
</g>
<g filter="url(#filter6_diiii_1_613)">
<path d="M123.27 134.17C123.27 129.139 121.272 124.315 117.715 120.758C114.158 117.201 109.334 115.202 104.303 115.202C99.2727 115.202 94.4483 117.201 90.8913 120.758C87.3343 124.315 85.3359 129.139 85.3359 134.17L104.303 134.17H123.27Z" fill="url(#paint3_linear_1_613)"/>
<path d="M123.27 134.17C123.27 129.139 121.272 124.315 117.715 120.758C114.158 117.201 109.334 115.202 104.303 115.202C99.2727 115.202 94.4483 117.201 90.8913 120.758C87.3343 124.315 85.3359 129.139 85.3359 134.17L104.303 134.17H123.27Z" fill="url(#paint4_linear_1_613)"/>
</g>
<g filter="url(#filter7_di_1_613)">
<path d="M123.895 81.8052C122.872 81.8052 122.025 81.5862 121.353 81.148C120.711 80.7098 120.272 80.1256 120.039 79.3953C119.805 78.6358 119.805 77.8178 120.039 76.9415C120.272 76.0359 120.754 75.1303 121.485 74.2248L136.602 55.2517V57.5302H123.281C122.142 57.5302 121.28 57.2527 120.696 56.6976C120.112 56.1134 119.82 55.2809 119.82 54.2C119.82 53.1192 120.112 52.3012 120.696 51.7462C121.28 51.1912 122.142 50.9137 123.281 50.9137H140.37C141.393 50.9137 142.225 51.1328 142.868 51.571C143.54 52.0091 143.992 52.5934 144.226 53.3237C144.46 54.054 144.46 54.8719 144.226 55.7775C143.992 56.683 143.51 57.5886 142.78 58.4942L127.663 77.4673V75.1888H141.685C142.795 75.1888 143.642 75.4663 144.226 76.0213C144.84 76.5763 145.146 77.3943 145.146 78.4751C145.146 79.5559 144.84 80.3885 144.226 80.9727C143.642 81.5277 142.795 81.8052 141.685 81.8052H123.895Z" fill="url(#paint5_linear_1_613)"/>
</g>
<g filter="url(#filter8_di_1_613)">
<path d="M149.788 66.9648C148.96 66.9648 148.273 66.7873 147.729 66.4322C147.208 66.0771 146.853 65.6037 146.664 65.0119C146.474 64.3964 146.474 63.7336 146.664 63.0235C146.853 62.2896 147.244 61.5558 147.836 60.822L160.086 45.4472V47.2936H149.291C148.368 47.2936 147.67 47.0687 147.196 46.619C146.723 46.1455 146.486 45.4709 146.486 44.595C146.486 43.7192 146.723 43.0564 147.196 42.6066C147.67 42.1569 148.368 41.932 149.291 41.932H163.139C163.968 41.932 164.642 42.1095 165.163 42.4646C165.708 42.8197 166.075 43.2931 166.264 43.8849C166.453 44.4767 166.453 45.1395 166.264 45.8733C166.075 46.6071 165.684 47.341 165.092 48.0748L152.842 63.4495V61.6032H164.205C165.104 61.6032 165.791 61.828 166.264 62.2778C166.761 62.7276 167.01 63.3904 167.01 64.2662C167.01 65.1421 166.761 65.8167 166.264 66.2901C165.791 66.7399 165.104 66.9648 164.205 66.9648H149.788Z" fill="url(#paint6_linear_1_613)"/>
</g>
<path d="M11.4859 219.778H7.01586L7.69586 218.638V232.728H5.52586V218.638L6.27586 219.778H1.74586V217.978H11.4859V219.778ZM21.2068 232.728V228.838C21.2068 228.664 21.2068 228.454 21.2068 228.208C21.2068 227.961 21.2068 227.711 21.2068 227.458C21.2068 227.198 21.2068 226.981 21.2068 226.808C21.2068 225.854 21.0101 225.131 20.6168 224.638C20.2301 224.144 19.5935 223.898 18.7068 223.898C18.1135 223.898 17.6001 224.014 17.1668 224.248C16.7335 224.481 16.3968 224.801 16.1568 225.208C15.9235 225.614 15.8068 226.078 15.8068 226.598L14.7868 226.178C14.7868 225.371 14.9801 224.651 15.3668 224.018C15.7601 223.378 16.2968 222.871 16.9768 222.498C17.6635 222.124 18.4468 221.938 19.3268 221.938C20.6068 221.938 21.6001 222.321 22.3068 223.088C23.0201 223.848 23.3768 224.908 23.3768 226.268C23.3768 226.614 23.3768 227.024 23.3768 227.498C23.3768 227.964 23.3768 228.474 23.3768 229.028V232.728H21.2068ZM13.6368 232.728V217.098H15.8068V232.728H13.6368ZM26.8873 228.178V226.488H34.7073L34.4073 226.988C34.4073 226.948 34.4073 226.908 34.4073 226.868C34.4073 226.821 34.4073 226.781 34.4073 226.748C34.4073 226.208 34.2906 225.711 34.0573 225.258C33.8239 224.798 33.4739 224.431 33.0073 224.158C32.5473 223.878 31.9706 223.738 31.2773 223.738C30.5839 223.738 29.9739 223.888 29.4473 224.188C28.9273 224.481 28.5206 224.901 28.2273 225.448C27.9406 225.988 27.7973 226.638 27.7973 227.398C27.7973 228.171 27.9373 228.838 28.2173 229.398C28.4973 229.951 28.9006 230.378 29.4273 230.678C29.9539 230.978 30.5839 231.128 31.3173 231.128C31.8306 231.128 32.2739 231.078 32.6473 230.978C33.0273 230.871 33.3373 230.731 33.5773 230.558C33.8239 230.384 34.0106 230.198 34.1373 229.998C34.2639 229.791 34.3373 229.588 34.3573 229.388H36.5173C36.4773 229.821 36.3339 230.251 36.0873 230.678C35.8473 231.098 35.5039 231.481 35.0573 231.828C34.6173 232.168 34.0773 232.441 33.4373 232.648C32.8039 232.848 32.0739 232.948 31.2473 232.948C30.1406 232.948 29.1706 232.714 28.3373 232.248C27.5039 231.781 26.8539 231.134 26.3873 230.308C25.9206 229.474 25.6873 228.521 25.6873 227.448C25.6873 226.354 25.9239 225.394 26.3973 224.568C26.8706 223.741 27.5273 223.098 28.3673 222.638C29.2073 222.171 30.1706 221.938 31.2573 221.938C32.3639 221.938 33.3206 222.171 34.1273 222.638C34.9406 223.104 35.5673 223.748 36.0073 224.568C36.4473 225.388 36.6673 226.331 36.6673 227.398C36.6673 227.524 36.6639 227.671 36.6573 227.838C36.6506 228.004 36.6406 228.118 36.6273 228.178H26.8873ZM48.656 232.938C47.616 232.938 46.7193 232.774 45.966 232.448C45.2193 232.121 44.6393 231.628 44.226 230.968C43.8193 230.301 43.616 229.478 43.616 228.498C43.616 228.371 43.616 228.261 43.616 228.168C43.616 228.074 43.616 227.968 43.616 227.848H45.786C45.786 227.961 45.786 228.061 45.786 228.148C45.786 228.228 45.786 228.331 45.786 228.458C45.786 229.364 46.0293 230.031 46.516 230.458C47.0027 230.878 47.7127 231.088 48.646 231.088C49.5993 231.088 50.326 230.928 50.826 230.608C51.326 230.281 51.576 229.758 51.576 229.038C51.576 228.524 51.4193 228.094 51.106 227.748C50.7993 227.394 50.3727 227.091 49.826 226.838C49.286 226.584 48.6627 226.348 47.956 226.128C47.1627 225.881 46.446 225.568 45.806 225.188C45.166 224.801 44.656 224.321 44.276 223.748C43.9027 223.168 43.716 222.461 43.716 221.628C43.716 220.808 43.9227 220.111 44.336 219.538C44.7493 218.964 45.3227 218.531 46.056 218.238C46.7893 217.938 47.6293 217.788 48.576 217.788C49.5827 217.788 50.4593 217.944 51.206 218.258C51.9593 218.564 52.5427 219.031 52.956 219.658C53.376 220.278 53.586 221.061 53.586 222.008C53.586 222.141 53.586 222.258 53.586 222.358C53.586 222.451 53.586 222.568 53.586 222.708H51.406C51.406 222.594 51.406 222.491 51.406 222.398C51.406 222.304 51.406 222.204 51.406 222.098C51.406 221.231 51.1693 220.604 50.696 220.218C50.2293 219.831 49.536 219.638 48.616 219.638C47.7227 219.638 47.0327 219.794 46.546 220.108C46.066 220.421 45.826 220.928 45.826 221.628C45.826 222.148 45.9793 222.581 46.286 222.928C46.5993 223.274 47.026 223.571 47.566 223.818C48.1127 224.064 48.7327 224.304 49.426 224.538C50.306 224.831 51.0627 225.161 51.696 225.528C52.336 225.894 52.8293 226.351 53.176 226.898C53.5227 227.444 53.696 228.134 53.696 228.968C53.696 229.808 53.4893 230.524 53.076 231.118C52.6627 231.711 52.0793 232.164 51.326 232.478C50.5727 232.784 49.6827 232.938 48.656 232.938ZM58.3487 217.098V232.728H56.2087V217.098H58.3487ZM62.024 228.178V226.488H69.844L69.544 226.988C69.544 226.948 69.544 226.908 69.544 226.868C69.544 226.821 69.544 226.781 69.544 226.748C69.544 226.208 69.4273 225.711 69.194 225.258C68.9607 224.798 68.6107 224.431 68.144 224.158C67.684 223.878 67.1073 223.738 66.414 223.738C65.7207 223.738 65.1107 223.888 64.584 224.188C64.064 224.481 63.6573 224.901 63.364 225.448C63.0773 225.988 62.934 226.638 62.934 227.398C62.934 228.171 63.074 228.838 63.354 229.398C63.634 229.951 64.0373 230.378 64.564 230.678C65.0907 230.978 65.7207 231.128 66.454 231.128C66.9673 231.128 67.4107 231.078 67.784 230.978C68.164 230.871 68.474 230.731 68.714 230.558C68.9607 230.384 69.1473 230.198 69.274 229.998C69.4007 229.791 69.474 229.588 69.494 229.388H71.654C71.614 229.821 71.4707 230.251 71.224 230.678C70.984 231.098 70.6407 231.481 70.194 231.828C69.754 232.168 69.214 232.441 68.574 232.648C67.9407 232.848 67.2107 232.948 66.384 232.948C65.2773 232.948 64.3073 232.714 63.474 232.248C62.6407 231.781 61.9907 231.134 61.524 230.308C61.0573 229.474 60.824 228.521 60.824 227.448C60.824 226.354 61.0607 225.394 61.534 224.568C62.0073 223.741 62.664 223.098 63.504 222.638C64.344 222.171 65.3073 221.938 66.394 221.938C67.5007 221.938 68.4573 222.171 69.264 222.638C70.0773 223.104 70.704 223.748 71.144 224.568C71.584 225.388 71.804 226.331 71.804 227.398C71.804 227.524 71.8007 227.671 71.794 227.838C71.7873 228.004 71.7773 228.118 71.764 228.178H62.024ZM74.9927 228.178V226.488H82.8127L82.5127 226.988C82.5127 226.948 82.5127 226.908 82.5127 226.868C82.5127 226.821 82.5127 226.781 82.5127 226.748C82.5127 226.208 82.3961 225.711 82.1627 225.258C81.9294 224.798 81.5794 224.431 81.1127 224.158C80.6527 223.878 80.0761 223.738 79.3827 223.738C78.6894 223.738 78.0794 223.888 77.5527 224.188C77.0327 224.481 76.6261 224.901 76.3327 225.448C76.0461 225.988 75.9027 226.638 75.9027 227.398C75.9027 228.171 76.0427 228.838 76.3227 229.398C76.6027 229.951 77.0061 230.378 77.5327 230.678C78.0594 230.978 78.6894 231.128 79.4227 231.128C79.9361 231.128 80.3794 231.078 80.7527 230.978C81.1327 230.871 81.4427 230.731 81.6827 230.558C81.9294 230.384 82.1161 230.198 82.2427 229.998C82.3694 229.791 82.4427 229.588 82.4627 229.388H84.6227C84.5827 229.821 84.4394 230.251 84.1927 230.678C83.9527 231.098 83.6094 231.481 83.1627 231.828C82.7227 232.168 82.1827 232.441 81.5427 232.648C80.9094 232.848 80.1794 232.948 79.3527 232.948C78.2461 232.948 77.2761 232.714 76.4427 232.248C75.6094 231.781 74.9594 231.134 74.4927 230.308C74.0261 229.474 73.7927 228.521 73.7927 227.448C73.7927 226.354 74.0294 225.394 74.5027 224.568C74.9761 223.741 75.6327 223.098 76.4727 222.638C77.3127 222.171 78.2761 221.938 79.3627 221.938C80.4694 221.938 81.4261 222.171 82.2327 222.638C83.0461 223.104 83.6727 223.748 84.1127 224.568C84.5527 225.388 84.7727 226.331 84.7727 227.398C84.7727 227.524 84.7694 227.671 84.7627 227.838C84.7561 228.004 84.7461 228.118 84.7327 228.178H74.9927ZM87.1915 237.098V222.108H89.3615V237.098H87.1915ZM92.7815 232.938C91.9548 232.938 91.1882 232.731 90.4815 232.318C89.7748 231.898 89.2015 231.324 88.7615 230.598C88.3282 229.871 88.1115 229.048 88.1115 228.128C88.1115 228.101 88.1115 228.081 88.1115 228.068C88.1115 228.048 88.1115 228.028 88.1115 228.008L89.3715 227.978C89.3715 227.991 89.3715 228.008 89.3715 228.028C89.3715 228.041 89.3715 228.058 89.3715 228.078C89.3715 228.624 89.5115 229.118 89.7915 229.558C90.0782 229.991 90.4482 230.334 90.9015 230.588C91.3548 230.841 91.8415 230.968 92.3615 230.968C93.2148 230.968 93.9315 230.678 94.5115 230.098C95.0982 229.511 95.3915 228.611 95.3915 227.398C95.3915 226.178 95.1015 225.281 94.5215 224.708C93.9415 224.128 93.2215 223.838 92.3615 223.838C91.8415 223.838 91.3548 223.964 90.9015 224.218C90.4482 224.464 90.0782 224.804 89.7915 225.238C89.5115 225.664 89.3715 226.154 89.3715 226.708L88.1115 226.658C88.1115 225.731 88.3282 224.914 88.7615 224.208C89.2015 223.494 89.7748 222.938 90.4815 222.538C91.1882 222.138 91.9548 221.938 92.7815 221.938C93.6415 221.938 94.4382 222.151 95.1715 222.578C95.9048 222.998 96.4948 223.614 96.9415 224.428C97.3948 225.241 97.6215 226.231 97.6215 227.398C97.6215 228.591 97.4015 229.601 96.9615 230.428C96.5215 231.254 95.9348 231.881 95.2015 232.308C94.4682 232.728 93.6615 232.938 92.7815 232.938ZM100.054 232.728V222.108H102.194V232.728H100.054ZM101.134 219.908C100.76 219.908 100.437 219.808 100.164 219.608C99.8968 219.401 99.7635 219.118 99.7635 218.758C99.7635 218.404 99.8968 218.128 100.164 217.928C100.437 217.721 100.76 217.618 101.134 217.618C101.5 217.618 101.817 217.721 102.084 217.928C102.357 218.128 102.494 218.404 102.494 218.758C102.494 219.118 102.357 219.401 102.084 219.608C101.817 219.808 101.5 219.908 101.134 219.908ZM112.642 232.728V227.828C112.642 227.541 112.642 227.298 112.642 227.098C112.642 226.898 112.642 226.711 112.642 226.538C112.642 226.018 112.562 225.561 112.402 225.168C112.242 224.768 111.979 224.458 111.612 224.238C111.245 224.011 110.755 223.898 110.142 223.898C109.602 223.898 109.112 224.031 108.672 224.298C108.239 224.564 107.892 224.928 107.632 225.388C107.379 225.841 107.252 226.358 107.252 226.938L106.322 226.478C106.322 225.618 106.525 224.848 106.932 224.168C107.339 223.481 107.882 222.938 108.562 222.538C109.249 222.138 109.999 221.938 110.812 221.938C111.652 221.938 112.369 222.101 112.962 222.428C113.562 222.748 114.019 223.208 114.332 223.808C114.652 224.401 114.812 225.111 114.812 225.938C114.812 226.244 114.812 226.584 114.812 226.958C114.812 227.331 114.812 227.691 114.812 228.038V232.728H112.642ZM105.082 232.728V222.108H107.252V232.728H105.082ZM124.513 231.878C125.113 231.931 125.64 232.044 126.093 232.218C126.546 232.384 126.9 232.631 127.153 232.958C127.413 233.291 127.543 233.728 127.543 234.268C127.543 234.874 127.336 235.401 126.923 235.848C126.516 236.301 125.906 236.651 125.093 236.898C124.28 237.151 123.27 237.278 122.063 237.278C120.336 237.278 119.02 237.028 118.113 236.528C117.206 236.028 116.753 235.348 116.753 234.488C116.753 234.228 116.783 233.998 116.843 233.798C116.903 233.598 116.976 233.431 117.063 233.298L119.083 233.598C119.036 233.664 118.99 233.761 118.943 233.888C118.896 234.021 118.873 234.181 118.873 234.368C118.873 234.841 119.163 235.178 119.743 235.378C120.323 235.578 121.126 235.678 122.153 235.678C122.906 235.678 123.53 235.624 124.023 235.518C124.523 235.418 124.896 235.271 125.143 235.078C125.39 234.884 125.513 234.658 125.513 234.398C125.513 234.004 125.343 233.758 125.003 233.658C124.663 233.558 124.253 233.488 123.773 233.448L119.743 233.118C119.043 233.058 118.47 232.848 118.023 232.488C117.583 232.128 117.363 231.674 117.363 231.128C117.363 230.788 117.45 230.471 117.623 230.178C117.796 229.884 117.996 229.638 118.223 229.438C118.456 229.238 118.656 229.114 118.823 229.068L120.243 229.748C120.09 229.768 119.903 229.871 119.683 230.058C119.47 230.238 119.363 230.451 119.363 230.698C119.363 230.924 119.456 231.111 119.643 231.258C119.836 231.404 120.21 231.501 120.763 231.548L124.513 231.878ZM125.843 222.108H127.813L127.003 226.258C126.856 227.031 126.586 227.731 126.193 228.358C125.806 228.978 125.28 229.468 124.613 229.828C123.953 230.188 123.13 230.368 122.143 230.368C121.116 230.368 120.233 230.191 119.493 229.838C118.753 229.484 118.183 228.994 117.783 228.368C117.39 227.734 117.193 227.014 117.193 226.208C117.193 225.388 117.396 224.654 117.803 224.008C118.216 223.361 118.783 222.854 119.503 222.488C120.23 222.121 121.06 221.938 121.993 221.938C122.78 221.938 123.476 222.071 124.083 222.338C124.696 222.604 125.183 222.944 125.543 223.358C125.903 223.771 126.1 224.201 126.133 224.648L125.513 224.718L125.843 222.108ZM122.133 228.598C122.713 228.598 123.213 228.504 123.633 228.318C124.053 228.124 124.376 227.848 124.603 227.488C124.83 227.121 124.943 226.681 124.943 226.168C124.943 225.661 124.83 225.228 124.603 224.868C124.376 224.501 124.053 224.221 123.633 224.028C123.213 223.828 122.716 223.728 122.143 223.728C121.59 223.728 121.1 223.831 120.673 224.038C120.253 224.238 119.923 224.521 119.683 224.888C119.443 225.254 119.323 225.691 119.323 226.198C119.323 226.704 119.436 227.138 119.663 227.498C119.89 227.851 120.213 228.124 120.633 228.318C121.053 228.504 121.553 228.598 122.133 228.598ZM140.007 217.978C140.961 217.978 141.757 218.111 142.397 218.378C143.044 218.638 143.534 219.031 143.867 219.558C144.201 220.078 144.367 220.728 144.367 221.508C144.367 222.254 144.214 222.884 143.907 223.398C143.607 223.904 143.221 224.291 142.747 224.558C142.281 224.824 141.801 224.974 141.307 225.008C141.841 225.021 142.367 225.148 142.887 225.388C143.414 225.621 143.847 226.001 144.187 226.528C144.527 227.048 144.697 227.744 144.697 228.618C144.697 229.458 144.527 230.188 144.187 230.808C143.854 231.421 143.337 231.894 142.637 232.228C141.937 232.561 141.037 232.728 139.937 232.728H134.797V217.978H140.007ZM136.887 224.858L136.157 224.178H139.157C140.131 224.178 140.881 223.978 141.407 223.578C141.934 223.178 142.197 222.604 142.197 221.858C142.197 221.351 142.087 220.948 141.867 220.648C141.647 220.341 141.331 220.121 140.917 219.988C140.511 219.848 140.027 219.778 139.467 219.778H135.907L136.887 218.638V224.858ZM139.517 230.928C140.451 230.928 141.177 230.721 141.697 230.308C142.224 229.888 142.487 229.284 142.487 228.498C142.487 228.024 142.401 227.628 142.227 227.308C142.061 226.981 141.831 226.721 141.537 226.528C141.244 226.334 140.904 226.194 140.517 226.108C140.131 226.014 139.717 225.968 139.277 225.968H136.157L136.887 225.288V232.068L135.907 230.928H139.517ZM148.001 228.178V226.488H155.821L155.521 226.988C155.521 226.948 155.521 226.908 155.521 226.868C155.521 226.821 155.521 226.781 155.521 226.748C155.521 226.208 155.404 225.711 155.171 225.258C154.937 224.798 154.587 224.431 154.121 224.158C153.661 223.878 153.084 223.738 152.391 223.738C151.697 223.738 151.087 223.888 150.561 224.188C150.041 224.481 149.634 224.901 149.341 225.448C149.054 225.988 148.911 226.638 148.911 227.398C148.911 228.171 149.051 228.838 149.331 229.398C149.611 229.951 150.014 230.378 150.541 230.678C151.067 230.978 151.697 231.128 152.431 231.128C152.944 231.128 153.387 231.078 153.761 230.978C154.141 230.871 154.451 230.731 154.691 230.558C154.937 230.384 155.124 230.198 155.251 229.998C155.377 229.791 155.451 229.588 155.471 229.388H157.631C157.591 229.821 157.447 230.251 157.201 230.678C156.961 231.098 156.617 231.481 156.171 231.828C155.731 232.168 155.191 232.441 154.551 232.648C153.917 232.848 153.187 232.948 152.361 232.948C151.254 232.948 150.284 232.714 149.451 232.248C148.617 231.781 147.967 231.134 147.501 230.308C147.034 229.474 146.801 228.521 146.801 227.448C146.801 226.354 147.037 225.394 147.511 224.568C147.984 223.741 148.641 223.098 149.481 222.638C150.321 222.171 151.284 221.938 152.371 221.938C153.477 221.938 154.434 222.171 155.241 222.638C156.054 223.104 156.681 223.748 157.121 224.568C157.561 225.388 157.781 226.331 157.781 227.398C157.781 227.524 157.777 227.671 157.771 227.838C157.764 228.004 157.754 228.118 157.741 228.178H148.001ZM163.879 232.938C163.079 232.938 162.376 232.811 161.769 232.558C161.169 232.304 160.703 231.941 160.369 231.468C160.036 230.994 159.869 230.424 159.869 229.758C159.869 229.044 160.056 228.454 160.429 227.988C160.809 227.521 161.329 227.161 161.989 226.908C162.656 226.648 163.413 226.478 164.259 226.398C165.519 226.271 166.406 226.148 166.919 226.028C167.439 225.908 167.699 225.711 167.699 225.438C167.699 225.431 167.699 225.424 167.699 225.418C167.699 224.878 167.469 224.468 167.009 224.188C166.549 223.908 165.893 223.768 165.039 223.768C164.139 223.768 163.443 223.928 162.949 224.248C162.463 224.561 162.219 225.061 162.219 225.748H160.089C160.089 224.934 160.299 224.244 160.719 223.678C161.146 223.111 161.733 222.681 162.479 222.388C163.226 222.088 164.083 221.938 165.049 221.938C165.936 221.938 166.743 222.074 167.469 222.348C168.203 222.614 168.786 223.014 169.219 223.548C169.653 224.081 169.869 224.744 169.869 225.538C169.869 225.678 169.869 225.818 169.869 225.958C169.869 226.091 169.869 226.228 169.869 226.368V230.608C169.869 230.854 169.879 231.094 169.899 231.328C169.919 231.554 169.956 231.758 170.009 231.938C170.069 232.144 170.139 232.314 170.219 232.448C170.306 232.581 170.376 232.674 170.429 232.728H168.269C168.229 232.688 168.169 232.604 168.089 232.478C168.016 232.344 167.949 232.191 167.889 232.018C167.829 231.851 167.783 231.661 167.749 231.448C167.723 231.228 167.709 230.991 167.709 230.738L168.109 231.018C167.909 231.404 167.606 231.741 167.199 232.028C166.799 232.314 166.316 232.538 165.749 232.698C165.189 232.858 164.566 232.938 163.879 232.938ZM164.329 231.138C164.949 231.138 165.513 231.041 166.019 230.848C166.533 230.648 166.943 230.348 167.249 229.948C167.556 229.541 167.709 229.031 167.709 228.418V226.658L168.219 227.328C167.793 227.494 167.269 227.631 166.649 227.738C166.036 227.838 165.403 227.921 164.749 227.988C163.849 228.068 163.173 228.224 162.719 228.458C162.266 228.684 162.039 229.064 162.039 229.598C162.039 230.111 162.226 230.498 162.599 230.758C162.979 231.011 163.556 231.138 164.329 231.138ZM176.374 232.918C175.621 232.918 174.994 232.791 174.494 232.538C173.994 232.278 173.597 231.941 173.304 231.528C173.011 231.108 172.804 230.651 172.684 230.158C172.564 229.658 172.504 229.171 172.504 228.698C172.504 228.451 172.504 228.194 172.504 227.928C172.504 227.654 172.504 227.381 172.504 227.108V222.108H174.684V226.798C174.684 227.038 174.684 227.274 174.684 227.508C174.684 227.734 174.684 227.948 174.684 228.148C174.684 228.661 174.751 229.134 174.884 229.568C175.017 229.994 175.251 230.341 175.584 230.608C175.924 230.868 176.397 230.998 177.004 230.998C177.571 230.998 178.064 230.831 178.484 230.498C178.904 230.158 179.231 229.731 179.464 229.218C179.697 228.698 179.814 228.178 179.814 227.658L180.764 228.168C180.764 228.781 180.661 229.371 180.454 229.938C180.254 230.504 179.964 231.014 179.584 231.468C179.204 231.914 178.741 232.268 178.194 232.528C177.654 232.788 177.047 232.918 176.374 232.918ZM179.814 232.728V222.108H181.984V232.728H179.814ZM189.271 232.908C188.917 232.908 188.564 232.871 188.211 232.798C187.864 232.724 187.544 232.591 187.251 232.398C186.964 232.198 186.734 231.914 186.561 231.548C186.387 231.181 186.301 230.701 186.301 230.108C186.301 229.968 186.301 229.821 186.301 229.668C186.301 229.514 186.301 229.358 186.301 229.198V223.908H183.751V222.108H185.091C185.377 222.108 185.601 222.098 185.761 222.078C185.927 222.051 186.047 221.994 186.121 221.908C186.201 221.814 186.251 221.668 186.271 221.468C186.291 221.268 186.301 220.994 186.301 220.648V218.598H188.471V222.108H191.721V223.908H188.471V228.618C188.471 228.751 188.471 228.884 188.471 229.018C188.471 229.151 188.471 229.274 188.471 229.388C188.471 229.921 188.534 230.341 188.661 230.648C188.794 230.954 189.094 231.108 189.561 231.108C189.761 231.108 189.951 231.091 190.131 231.058C190.311 231.024 190.447 230.988 190.541 230.948V232.718C190.421 232.764 190.251 232.808 190.031 232.848C189.811 232.888 189.557 232.908 189.271 232.908ZM194.303 237.248C194.016 237.248 193.753 237.231 193.513 237.198C193.28 237.171 193.136 237.144 193.083 237.118V235.348C193.17 235.388 193.313 235.421 193.513 235.448C193.72 235.474 193.933 235.488 194.153 235.488C194.546 235.488 194.883 235.408 195.163 235.248C195.45 235.088 195.69 234.864 195.883 234.578C196.083 234.298 196.243 233.978 196.363 233.618L196.633 232.818L192.973 222.108H195.233L197.963 231.108H197.683L200.343 222.108H202.573L198.763 233.508C198.53 234.221 198.243 234.858 197.903 235.418C197.563 235.984 197.11 236.431 196.543 236.758C195.976 237.084 195.23 237.248 194.303 237.248Z" fill="black"/>
<defs>
<filter id="filter0_iii_1_613" x="41.633" y="36.8636" width="130.366" height="162.402" filterUnits="userSpaceOnUse" color-interpolation-filters="sRGB">
<feFlood flood-opacity="0" result="BackgroundImageFix"/>
<feBlend mode="normal" in="SourceGraphic" in2="BackgroundImageFix" result="shape"/>
<feColorMatrix in="SourceAlpha" type="matrix" values="0 0 0 0 0 0 0 0 0 0 0 0 0 0 0 0 0 0 127 0" result="hardAlpha"/>
<feMorphology radius="2.70941" operator="erode" in="SourceAlpha" result="effect1_innerShadow_1_613"/>
<feOffset dx="7.11221" dy="4.40279"/>
<feGaussianBlur stdDeviation="8.12823"/>
<feComposite in2="hardAlpha" operator="arithmetic" k2="-1" k3="1"/>
<feColorMatrix type="matrix" values="0 0 0 0 0.682806 0 0 0 0 0.0652778 0 0 0 0 0.783333 0 0 0 0.14 0"/>
<feBlend mode="normal" in2="shape" result="effect1_innerShadow_1_613"/>
<feColorMatrix in="SourceAlpha" type="matrix" values="0 0 0 0 0 0 0 0 0 0 0 0 0 0 0 0 0 0 127 0" result="hardAlpha"/>
<feOffset dy="-6.09618"/>
<feGaussianBlur stdDeviation="5.24949"/>
<feComposite in2="hardAlpha" operator="arithmetic" k2="-1" k3="1"/>
<feColorMatrix type="matrix" values="0 0 0 0 0.943639 0 0 0 0 0.223611 0 0 0 0 0.958333 0 0 0 0.44 0"/>
<feBlend mode="normal" in2="effect1_innerShadow_1_613" result="effect2_innerShadow_1_613"/>
<feColorMatrix in="SourceAlpha" type="matrix" values="0 0 0 0 0 0 0 0 0 0 0 0 0 0 0 0 0 0 127 0" result="hardAlpha"/>
<feOffset dx="-3.72544" dy="5.41882"/>
<feGaussianBlur stdDeviation="5.24949"/>
<feComposite in2="hardAlpha" operator="arithmetic" k2="-1" k3="1"/>
<feColorMatrix type="matrix" values="0 0 0 0 1 0 0 0 0 1 0 0 0 0 1 0 0 0 0.59 0"/>
<feBlend mode="normal" in2="effect2_innerShadow_1_613" result="effect3_innerShadow_1_613"/>
</filter>
<filter id="filter1_i_1_613" x="77.4355" y="6.68118" width="30.0474" height="35.9371" filterUnits="userSpaceOnUse" color-interpolation-filters="sRGB">
<feFlood flood-opacity="0" result="BackgroundImageFix"/>
<feBlend mode="normal" in="SourceGraphic" in2="BackgroundImageFix" result="shape"/>
<feColorMatrix in="SourceAlpha" type="matrix" values="0 0 0 0 0 0 0 0 0 0 0 0 0 0 0 0 0 0 127 0" result="hardAlpha"/>
<feOffset dx="2.78767" dy="1.39384"/>
<feGaussianBlur stdDeviation="3.87176"/>
<feComposite in2="hardAlpha" operator="arithmetic" k2="-1" k3="1"/>
<feColorMatrix type="matrix" values="0 0 0 0 0 0 0 0 0 0 0 0 0 0 0 0 0 0 0.25 0"/>
<feBlend mode="normal" in2="shape" result="effect1_innerShadow_1_613"/>
</filter>
<filter id="filter2_f_1_613" x="100.147" y="42.981" width="12.2939" height="5.62124" filterUnits="userSpaceOnUse" color-interpolation-filters="sRGB">
<feFlood flood-opacity="0" result="BackgroundImageFix"/>
<feBlend mode="normal" in="SourceGraphic" in2="BackgroundImageFix" result="shape"/>
<feGaussianBlur stdDeviation="0.802485" result="effect1_foregroundBlur_1_613"/>
</filter>
<filter id="filter3_f_1_613" x="46.0353" y="120.538" width="132.565" height="89.4522" filterUnits="userSpaceOnUse" color-interpolation-filters="sRGB">
<feFlood flood-opacity="0" result="BackgroundImageFix"/>
<feBlend mode="normal" in="SourceGraphic" in2="BackgroundImageFix" result="shape"/>
<feGaussianBlur stdDeviation="8.02485" result="effect1_foregroundBlur_1_613"/>
</filter>
<filter id="filter4_i_1_613" x="66.9795" y="91.4352" width="30.8506" height="15.7679" filterUnits="userSpaceOnUse" color-interpolation-filters="sRGB">
<feFlood flood-opacity="0" result="BackgroundImageFix"/>
<feBlend mode="normal" in="SourceGraphic" in2="BackgroundImageFix" result="shape"/>
<feColorMatrix in="SourceAlpha" type="matrix" values="0 0 0 0 0 0 0 0 0 0 0 0 0 0 0 0 0 0 127 0" result="hardAlpha"/>
<feMorphology radius="12.0887" operator="dilate" in="SourceAlpha" result="effect1_innerShadow_1_613"/>
<feOffset dx="4.20477" dy="-3.19928"/>
<feGaussianBlur stdDeviation="4.73037"/>
<feComposite in2="hardAlpha" operator="arithmetic" k2="-1" k3="1"/>
<feColorMatrix type="matrix" values="0 0 0 0 0.462111 0 0 0 0 0.203767 0 0 0 0 0.504167 0 0 0 0.35 0"/>
<feBlend mode="normal" in2="shape" result="effect1_innerShadow_1_613"/>
</filter>
<filter id="filter5_i_1_613" x="111.312" y="91.4352" width="30.8506" height="15.7679" filterUnits="userSpaceOnUse" color-interpolation-filters="sRGB">
<feFlood flood-opacity="0" result="BackgroundImageFix"/>
<feBlend mode="normal" in="SourceGraphic" in2="BackgroundImageFix" result="shape"/>
<feColorMatrix in="SourceAlpha" type="matrix" values="0 0 0 0 0 0 0 0 0 0 0 0 0 0 0 0 0 0 127 0" result="hardAlpha"/>
<feMorphology radius="12.0887" operator="dilate" in="SourceAlpha" result="effect1_innerShadow_1_613"/>
<feOffset dx="4.20477" dy="-4.11336"/>
<feGaussianBlur stdDeviation="4.73037"/>
<feComposite in2="hardAlpha" operator="arithmetic" k2="-1" k3="1"/>
<feColorMatrix type="matrix" values="0 0 0 0 0.462111 0 0 0 0 0.203767 0 0 0 0 0.504167 0 0 0 0.35 0"/>
<feBlend mode="normal" in2="shape" result="effect1_innerShadow_1_613"/>
</filter>
<filter id="filter6_diiii_1_613" x="70.1013" y="102.71" width="68.4039" height="49.4365" filterUnits="userSpaceOnUse" color-interpolation-filters="sRGB">
<feFlood flood-opacity="0" result="BackgroundImageFix"/>
<feColorMatrix in="SourceAlpha" type="matrix" values="0 0 0 0 0 0 0 0 0 0 0 0 0 0 0 0 0 0 127 0" result="hardAlpha"/>
<feOffset dy="2.74224"/>
<feGaussianBlur stdDeviation="7.61734"/>
<feColorMatrix type="matrix" values="0 0 0 0 0.0298758 0 0 0 0 0.0216858 0 0 0 0 0.0308333 0 0 0 0.24 0"/>
<feBlend mode="normal" in2="BackgroundImageFix" result="effect1_dropShadow_1_613"/>
<feBlend mode="normal" in="SourceGraphic" in2="effect1_dropShadow_1_613" result="shape"/>
<feColorMatrix in="SourceAlpha" type="matrix" values="0 0 0 0 0 0 0 0 0 0 0 0 0 0 0 0 0 0 127 0" result="hardAlpha"/>
<feOffset dy="-15.5394"/>
<feGaussianBlur stdDeviation="1.18492"/>
<feComposite in2="hardAlpha" operator="arithmetic" k2="-1" k3="1"/>
<feColorMatrix type="matrix" values="0 0 0 0 0.17328 0 0 0 0 0.125777 0 0 0 0 0.178833 0 0 0 1 0"/>
<feBlend mode="normal" in2="shape" result="effect2_innerShadow_1_613"/>
<feColorMatrix in="SourceAlpha" type="matrix" values="0 0 0 0 0 0 0 0 0 0 0 0 0 0 0 0 0 0 127 0" result="hardAlpha"/>
<feOffset dy="-18.2816"/>
<feGaussianBlur stdDeviation="0.592459"/>
<feComposite in2="hardAlpha" operator="arithmetic" k2="-1" k3="1"/>
<feColorMatrix type="matrix" values="0 0 0 0 0.119503 0 0 0 0 0.086743 0 0 0 0 0.123333 0 0 0 1 0"/>
<feBlend mode="normal" in2="effect2_innerShadow_1_613" result="effect3_innerShadow_1_613"/>
<feColorMatrix in="SourceAlpha" type="matrix" values="0 0 0 0 0 0 0 0 0 0 0 0 0 0 0 0 0 0 127 0" result="hardAlpha"/>
<feMorphology radius="12.0887" operator="dilate" in="SourceAlpha" result="effect4_innerShadow_1_613"/>
<feOffset dx="4.20477" dy="-5.94152"/>
<feGaussianBlur stdDeviation="4.73036"/>
<feComposite in2="hardAlpha" operator="arithmetic" k2="-1" k3="1"/>
<feColorMatrix type="matrix" values="0 0 0 0 0.462111 0 0 0 0 0.203767 0 0 0 0 0.504167 0 0 0 0.35 0"/>
<feBlend mode="normal" in2="effect3_innerShadow_1_613" result="effect4_innerShadow_1_613"/>
<feColorMatrix in="SourceAlpha" type="matrix" values="0 0 0 0 0 0 0 0 0 0 0 0 0 0 0 0 0 0 127 0" result="hardAlpha"/>
<feMorphology radius="12.0887" operator="dilate" in="SourceAlpha" result="effect5_innerShadow_1_613"/>
<feOffset dx="4.20477" dy="-14.1682"/>
<feGaussianBlur stdDeviation="4.73036"/>
<feComposite in2="hardAlpha" operator="arithmetic" k2="-1" k3="1"/>
<feColorMatrix type="matrix" values="0 0 0 0 0.462111 0 0 0 0 0.203767 0 0 0 0 0.504167 0 0 0 0.35 0"/>
<feBlend mode="normal" in2="effect4_innerShadow_1_613" result="effect5_innerShadow_1_613"/>
</filter>
<filter id="filter7_di_1_613" x="109.177" y="42.8677" width="46.4819" height="51.9154" filterUnits="userSpaceOnUse" color-interpolation-filters="sRGB">
<feFlood flood-opacity="0" result="BackgroundImageFix"/>
<feColorMatrix in="SourceAlpha" type="matrix" values="0 0 0 0 0 0 0 0 0 0 0 0 0 0 0 0 0 0 127 0" result="hardAlpha"/>
<feOffset dy="2.46589"/>
<feGaussianBlur stdDeviation="5.25596"/>
<feColorMatrix type="matrix" values="0 0 0 0 0.283333 0 0 0 0 0.283333 0 0 0 0 0.283333 0 0 0 0.62 0"/>
<feBlend mode="normal" in2="BackgroundImageFix" result="effect1_dropShadow_1_613"/>
<feBlend mode="normal" in="SourceGraphic" in2="effect1_dropShadow_1_613" result="shape"/>
<feColorMatrix in="SourceAlpha" type="matrix" values="0 0 0 0 0 0 0 0 0 0 0 0 0 0 0 0 0 0 127 0" result="hardAlpha"/>
<feOffset dx="-1.23295"/>
<feGaussianBlur stdDeviation="2.46449"/>
<feComposite in2="hardAlpha" operator="arithmetic" k2="-1" k3="1"/>
<feColorMatrix type="matrix" values="0 0 0 0 1 0 0 0 0 1 0 0 0 0 1 0 0 0 0.6 0"/>
<feBlend mode="normal" in2="shape" result="effect2_innerShadow_1_613"/>
</filter>
<filter id="filter8_di_1_613" x="135.868" y="33.8859" width="41.6537" height="46.0567" filterUnits="userSpaceOnUse" color-interpolation-filters="sRGB">
<feFlood flood-opacity="0" result="BackgroundImageFix"/>
<feColorMatrix in="SourceAlpha" type="matrix" values="0 0 0 0 0 0 0 0 0 0 0 0 0 0 0 0 0 0 127 0" result="hardAlpha"/>
<feOffset dy="2.46589"/>
<feGaussianBlur stdDeviation="5.25596"/>
<feColorMatrix type="matrix" values="0 0 0 0 0.283333 0 0 0 0 0.283333 0 0 0 0 0.283333 0 0 0 0.62 0"/>
<feBlend mode="normal" in2="BackgroundImageFix" result="effect1_dropShadow_1_613"/>
<feBlend mode="normal" in="SourceGraphic" in2="effect1_dropShadow_1_613" result="shape"/>
<feColorMatrix in="SourceAlpha" type="matrix" values="0 0 0 0 0 0 0 0 0 0 0 0 0 0 0 0 0 0 127 0" result="hardAlpha"/>
<feOffset dx="-0.999111"/>
<feGaussianBlur stdDeviation="1.99709"/>
<feComposite in2="hardAlpha" operator="arithmetic" k2="-1" k3="1"/>
<feColorMatrix type="matrix" values="0 0 0 0 1 0 0 0 0 1 0 0 0 0 1 0 0 0 0.6 0"/>
<feBlend mode="normal" in2="shape" result="effect2_innerShadow_1_613"/>
</filter>
<radialGradient id="paint0_radial_1_613" cx="0" cy="0" r="1" gradientUnits="userSpaceOnUse" gradientTransform="translate(105.063 171.937) rotate(84.5862) scale(22.0089 34.0873)">
<stop stop-color="#FFBB0C"/>
<stop offset="1" stop-color="#FFC907"/>
</radialGradient>
<linearGradient id="paint1_linear_1_613" x1="100.254" y1="17.7973" x2="79.8498" y2="28.3119" gradientUnits="userSpaceOnUse">
<stop stop-color="#008B0E"/>
<stop offset="1" stop-color="#038B00" stop-opacity="0"/>
</linearGradient>
<linearGradient id="paint2_linear_1_613" x1="92.0997" y1="14.9004" x2="101.378" y2="28.6448" gradientUnits="userSpaceOnUse">
<stop stop-color="white"/>
<stop offset="1" stop-color="white" stop-opacity="0"/>
</linearGradient>
<linearGradient id="paint3_linear_1_613" x1="104.303" y1="115.202" x2="104.303" y2="153.137" gradientUnits="userSpaceOnUse">
<stop stop-color="#201721"/>
<stop offset="1" stop-color="#2B1F2C"/>
</linearGradient>
<linearGradient id="paint4_linear_1_613" x1="104.303" y1="115.202" x2="104.303" y2="153.137" gradientUnits="userSpaceOnUse">
<stop stop-color="#201721"/>
<stop offset="1" stop-color="#2B1F2C"/>
</linearGradient>
<linearGradient id="paint5_linear_1_613" x1="131.496" y1="45.8052" x2="131.595" y2="88.5947" gradientUnits="userSpaceOnUse">
<stop stop-color="#3FEEC4"/>
<stop offset="1" stop-color="#43BBFF"/>
</linearGradient>
<linearGradient id="paint6_linear_1_613" x1="155.948" y1="37.9648" x2="156.028" y2="72.639" gradientUnits="userSpaceOnUse">
<stop stop-color="#3FEEC4"/>
<stop offset="1" stop-color="#43BBFF"/>
</linearGradient>
</defs>
</svg>
