<svg width="242" height="267" viewBox="0 0 242 267" fill="none" xmlns="http://www.w3.org/2000/svg">
<g filter="url(#filter0_iii_1_608)">
<path fill-rule="evenodd" clip-rule="evenodd" d="M71.2096 174.386C60.4866 165.321 54.0314 151.942 51.0952 136.434C49.8103 129.648 49.1992 122.455 49.1992 115.036C49.1992 83.3791 66.8263 55.4397 91.0964 46.0146C91.1259 46.0032 91.1553 45.9919 91.1847 45.9808C96.4493 43.962 101.045 43.9769 107.198 43.9969L107.198 43.9969L107.198 43.9969L107.198 43.9969L107.198 43.9969L107.199 43.9969L107.199 43.9969L107.199 43.9969L107.199 43.9969L107.199 43.9969L107.199 43.9969C107.589 43.9982 107.985 43.9995 108.387 44.0002L108.388 44.0001C115.103 41.362 123.113 44.2399 129.516 47.1418C140.956 52.3219 150.759 61.6751 157.702 73.5434C163.666 83.739 167.52 95.7909 168.488 108.648C168.646 110.757 168.727 112.888 168.727 115.036C168.727 147.335 157.145 175.372 128.801 184.049C127.007 189.653 119.71 193.848 110.981 193.848C102.877 193.848 96.0077 190.233 93.629 185.232C84.701 183.259 77.273 179.512 71.2096 174.386Z" fill="url(#paint0_radial_1_608)"/>
</g>
<ellipse cx="57.0631" cy="126.858" rx="3.59182" ry="2.44077" transform="rotate(-39.6655 57.0631 126.858)" fill="#878787" fill-opacity="0.2"/>
<ellipse cx="69.5485" cy="113.48" rx="3.59182" ry="2.44077" transform="rotate(-39.6655 69.5485 113.48)" fill="#878787" fill-opacity="0.2"/>
<ellipse cx="55.8561" cy="105.136" rx="3.59182" ry="2.44077" transform="rotate(-39.6655 55.8561 105.136)" fill="#B77D00" fill-opacity="0.37"/>
<ellipse cx="66.4323" cy="95.4245" rx="3.59182" ry="2.44077" transform="rotate(-39.6655 66.4323 95.4245)" fill="#B77D00" fill-opacity="0.37"/>
<ellipse cx="64.5016" cy="83.533" rx="3.59182" ry="2.44077" transform="rotate(-39.6655 64.5016 83.533)" fill="#B77D00" fill-opacity="0.37"/>
<g filter="url(#filter1_i_1_608)">
<path d="M104.071 39.7839C111.77 34.3706 108.615 22.0936 101.403 15.7397C94.198 9.36494 83.6849 6.07119 82.6892 6.77596C81.6934 7.48073 79.0647 21.4143 85.2509 31.1539C91.4371 40.8935 99.367 43.0966 104.071 39.7839Z" fill="url(#paint1_linear_1_608)"/>
</g>
<path d="M103.784 39.5653L104.861 38.7487C108.297 43.32 110.258 45.0624 110.279 45.0691L109.39 46.0842C109.307 46.0229 107.318 44.2601 103.784 39.5653Z" fill="#318C1C"/>
<path d="M95.022 15.2668C94.944 15.1153 94.9486 14.9214 95.0437 14.7678C95.2001 14.5304 95.5109 14.4574 95.7412 14.6C97.2278 15.5239 99.3879 17.1461 101.289 19.6512C103.576 22.671 104.887 26.1945 105.191 30.132C105.215 30.4157 105.003 30.6469 104.72 30.6711C104.436 30.6954 104.205 30.4834 104.181 30.1997C103.552 21.8124 98.2961 17.3603 95.2252 15.4583C95.1276 15.404 95.0575 15.3356 95.022 15.2668Z" fill="url(#paint2_linear_1_608)"/>
<g filter="url(#filter2_f_1_608)">
<ellipse cx="110.135" cy="45.7927" rx="4.54204" ry="1.20565" fill="#744500" fill-opacity="0.6"/>
</g>
<path d="M84.9966 160.687C61.6138 160.687 51.2054 143.971 48.7113 132.963C48.5194 132.124 49.047 131.261 49.8864 131.069C50.7258 130.877 51.5892 131.405 51.781 132.244C54.3471 143.516 66.0745 161.359 93.6543 156.754C94.5176 156.61 95.333 157.186 95.4769 158.049C95.6208 158.912 95.0452 159.728 94.1819 159.872C90.9203 160.447 87.8505 160.687 84.9966 160.687Z" fill="#1D1D1D"/>
<path d="M92.0491 164.716C87.4445 164.716 84.9264 162.366 84.4947 159.92C84.039 157.402 85.6698 153.972 91.7374 152.581C92.5767 152.389 93.4401 152.917 93.632 153.756C93.8238 154.596 93.2962 155.459 92.4568 155.651C88.8115 156.49 87.3965 158.169 87.6124 159.368C87.8522 160.735 90.1305 161.91 93.536 161.479C94.3994 161.383 95.1908 161.982 95.2868 162.846C95.4067 163.709 94.7831 164.5 93.9198 164.596C93.2722 164.668 92.6487 164.716 92.0491 164.716Z" fill="#1D1D1D"/>
<path d="M166.522 84.5542C164.244 84.5542 161.726 84.7461 158.896 85.1778C158.033 85.2977 157.433 86.1131 157.577 86.9764C157.697 87.8398 158.512 88.4394 159.376 88.2955C171.799 86.4009 180.001 89.1828 182.471 96.1137C184.03 100.479 183.262 106.33 180.36 112.206C177.458 118.13 172.758 123.31 167.482 126.427C166.738 126.859 166.474 127.842 166.93 128.586C167.362 129.329 168.345 129.593 169.089 129.137C174.868 125.732 180.025 120.072 183.19 113.597C186.452 106.978 187.267 100.215 185.421 95.0585C183.958 90.8616 179.545 84.5542 166.522 84.5542Z" fill="#1D1D1D"/>
<path d="M152.637 76.4001C151.87 76.4001 151.198 76.9517 151.078 77.7431C150.958 78.6065 151.534 79.3979 152.397 79.5418C157.482 80.3093 157.577 86.7365 157.577 87.0243C157.577 87.8877 158.297 88.5832 159.16 88.5832C160.024 88.5832 160.743 87.8877 160.743 87.0004C160.743 83.7388 159.112 77.3594 152.901 76.4001C152.781 76.4241 152.709 76.4001 152.637 76.4001Z" fill="#1D1D1D"/>
<g filter="url(#filter3_f_1_608)">
<path d="M91.5634 183.708C94.1392 190.527 104.859 193.142 109.897 193.597C122.922 193.597 128.851 186.099 130.188 182.35C154.984 175.617 163.823 147.538 166.392 136.244C146.122 162.234 91.8012 170.529 65.9258 169.524C66.5875 174.392 83.2932 181.008 91.5634 183.708Z" fill="#EBAD1E"/>
</g>
<g filter="url(#filter4_d_1_608)">
<g filter="url(#filter5_i_1_608)">
<circle cx="90.0979" cy="90.4454" r="15.4895" fill="#FAFAFA"/>
</g>
<g filter="url(#filter6_i_1_608)">
<rect x="81.8584" y="82.2064" width="16.4699" height="16.4699" rx="8.23497" fill="#2C2F36"/>
</g>
</g>
<g filter="url(#filter7_d_1_608)">
<g filter="url(#filter8_i_1_608)">
<circle cx="127.621" cy="90.4454" r="15.4895" fill="#FAFAFA"/>
</g>
<g filter="url(#filter9_i_1_608)">
<rect x="119.382" y="82.2064" width="16.4699" height="16.4699" rx="8.23497" fill="#2C2F36"/>
</g>
</g>
<g filter="url(#filter10_ii_1_608)">
<rect x="80.168" y="111.115" width="56.9488" height="7.68357" rx="3.84178" fill="url(#paint3_linear_1_608)"/>
</g>
<path d="M11.4126 219.778H6.94262L7.62262 218.638V232.728H5.45262V218.638L6.20262 219.778H1.67262V217.978H11.4126V219.778ZM21.1336 232.728V228.838C21.1336 228.664 21.1336 228.454 21.1336 228.208C21.1336 227.961 21.1336 227.711 21.1336 227.458C21.1336 227.198 21.1336 226.981 21.1336 226.808C21.1336 225.854 20.9369 225.131 20.5436 224.638C20.1569 224.144 19.5202 223.898 18.6336 223.898C18.0402 223.898 17.5269 224.014 17.0936 224.248C16.6602 224.481 16.3236 224.801 16.0836 225.208C15.8502 225.614 15.7336 226.078 15.7336 226.598L14.7136 226.178C14.7136 225.371 14.9069 224.651 15.2936 224.018C15.6869 223.378 16.2236 222.871 16.9036 222.498C17.5902 222.124 18.3736 221.938 19.2536 221.938C20.5336 221.938 21.5269 222.321 22.2336 223.088C22.9469 223.848 23.3036 224.908 23.3036 226.268C23.3036 226.614 23.3036 227.024 23.3036 227.498C23.3036 227.964 23.3036 228.474 23.3036 229.028V232.728H21.1336ZM13.5636 232.728V217.098H15.7336V232.728H13.5636ZM26.814 228.178V226.488H34.634L34.334 226.988C34.334 226.948 34.334 226.908 34.334 226.868C34.334 226.821 34.334 226.781 34.334 226.748C34.334 226.208 34.2174 225.711 33.984 225.258C33.7507 224.798 33.4007 224.431 32.934 224.158C32.474 223.878 31.8974 223.738 31.204 223.738C30.5107 223.738 29.9007 223.888 29.374 224.188C28.854 224.481 28.4474 224.901 28.154 225.448C27.8674 225.988 27.724 226.638 27.724 227.398C27.724 228.171 27.864 228.838 28.144 229.398C28.424 229.951 28.8274 230.378 29.354 230.678C29.8807 230.978 30.5107 231.128 31.244 231.128C31.7574 231.128 32.2007 231.078 32.574 230.978C32.954 230.871 33.264 230.731 33.504 230.558C33.7507 230.384 33.9374 230.198 34.064 229.998C34.1907 229.791 34.264 229.588 34.284 229.388H36.444C36.404 229.821 36.2607 230.251 36.014 230.678C35.774 231.098 35.4307 231.481 34.984 231.828C34.544 232.168 34.004 232.441 33.364 232.648C32.7307 232.848 32.0007 232.948 31.174 232.948C30.0674 232.948 29.0974 232.714 28.264 232.248C27.4307 231.781 26.7807 231.134 26.314 230.308C25.8474 229.474 25.614 228.521 25.614 227.448C25.614 226.354 25.8507 225.394 26.324 224.568C26.7974 223.741 27.454 223.098 28.294 222.638C29.134 222.171 30.0974 221.938 31.184 221.938C32.2907 221.938 33.2474 222.171 34.054 222.638C34.8674 223.104 35.494 223.748 35.934 224.568C36.374 225.388 36.594 226.331 36.594 227.398C36.594 227.524 36.5907 227.671 36.584 227.838C36.5774 228.004 36.5674 228.118 36.554 228.178H26.814ZM45.6728 232.728L43.3928 217.978H45.6328L47.4828 232.018L47.1528 232.008L50.0928 217.978H52.8828L55.8128 232.008L55.4828 232.018L57.3328 217.978H59.5828L57.2828 232.728H53.9428L51.3728 219.658H51.6128L49.0228 232.728H45.6728ZM64.7436 232.938C63.9436 232.938 63.2402 232.811 62.6336 232.558C62.0336 232.304 61.5669 231.941 61.2336 231.468C60.9002 230.994 60.7336 230.424 60.7336 229.758C60.7336 229.044 60.9202 228.454 61.2936 227.988C61.6736 227.521 62.1936 227.161 62.8536 226.908C63.5202 226.648 64.2769 226.478 65.1236 226.398C66.3836 226.271 67.2702 226.148 67.7836 226.028C68.3036 225.908 68.5636 225.711 68.5636 225.438C68.5636 225.431 68.5636 225.424 68.5636 225.418C68.5636 224.878 68.3336 224.468 67.8736 224.188C67.4136 223.908 66.7569 223.768 65.9036 223.768C65.0036 223.768 64.3069 223.928 63.8136 224.248C63.3269 224.561 63.0836 225.061 63.0836 225.748H60.9536C60.9536 224.934 61.1636 224.244 61.5836 223.678C62.0102 223.111 62.5969 222.681 63.3436 222.388C64.0902 222.088 64.9469 221.938 65.9136 221.938C66.8002 221.938 67.6069 222.074 68.3336 222.348C69.0669 222.614 69.6502 223.014 70.0836 223.548C70.5169 224.081 70.7336 224.744 70.7336 225.538C70.7336 225.678 70.7336 225.818 70.7336 225.958C70.7336 226.091 70.7336 226.228 70.7336 226.368V230.608C70.7336 230.854 70.7436 231.094 70.7636 231.328C70.7836 231.554 70.8202 231.758 70.8736 231.938C70.9336 232.144 71.0036 232.314 71.0836 232.448C71.1702 232.581 71.2402 232.674 71.2936 232.728H69.1336C69.0936 232.688 69.0336 232.604 68.9536 232.478C68.8802 232.344 68.8136 232.191 68.7536 232.018C68.6936 231.851 68.6469 231.661 68.6136 231.448C68.5869 231.228 68.5736 230.991 68.5736 230.738L68.9736 231.018C68.7736 231.404 68.4702 231.741 68.0636 232.028C67.6636 232.314 67.1802 232.538 66.6136 232.698C66.0536 232.858 65.4302 232.938 64.7436 232.938ZM65.1936 231.138C65.8136 231.138 66.3769 231.041 66.8836 230.848C67.3969 230.648 67.8069 230.348 68.1136 229.948C68.4202 229.541 68.5736 229.031 68.5736 228.418V226.658L69.0836 227.328C68.6569 227.494 68.1336 227.631 67.5136 227.738C66.9002 227.838 66.2669 227.921 65.6136 227.988C64.7136 228.068 64.0369 228.224 63.5836 228.458C63.1302 228.684 62.9036 229.064 62.9036 229.598C62.9036 230.111 63.0902 230.498 63.4636 230.758C63.8436 231.011 64.4202 231.138 65.1936 231.138ZM80.9282 232.728V227.828C80.9282 227.541 80.9282 227.298 80.9282 227.098C80.9282 226.898 80.9282 226.711 80.9282 226.538C80.9282 226.018 80.8482 225.561 80.6882 225.168C80.5282 224.768 80.2649 224.458 79.8982 224.238C79.5316 224.011 79.0416 223.898 78.4282 223.898C77.8882 223.898 77.3982 224.031 76.9582 224.298C76.5249 224.564 76.1782 224.928 75.9182 225.388C75.6649 225.841 75.5382 226.358 75.5382 226.938L74.6082 226.478C74.6082 225.618 74.8116 224.848 75.2182 224.168C75.6249 223.481 76.1682 222.938 76.8482 222.538C77.5349 222.138 78.2849 221.938 79.0982 221.938C79.9382 221.938 80.6549 222.101 81.2482 222.428C81.8482 222.748 82.3049 223.208 82.6182 223.808C82.9382 224.401 83.0982 225.111 83.0982 225.938C83.0982 226.244 83.0982 226.584 83.0982 226.958C83.0982 227.331 83.0982 227.691 83.0982 228.038V232.728H80.9282ZM73.3682 232.728V222.108H75.5382V232.728H73.3682ZM93.3892 232.728V227.828C93.3892 227.541 93.3892 227.298 93.3892 227.098C93.3892 226.898 93.3892 226.711 93.3892 226.538C93.3892 226.018 93.3092 225.561 93.1492 225.168C92.9892 224.768 92.7258 224.458 92.3592 224.238C91.9925 224.011 91.5025 223.898 90.8892 223.898C90.3492 223.898 89.8592 224.031 89.4192 224.298C88.9858 224.564 88.6392 224.928 88.3792 225.388C88.1258 225.841 87.9992 226.358 87.9992 226.938L87.0692 226.478C87.0692 225.618 87.2725 224.848 87.6792 224.168C88.0858 223.481 88.6292 222.938 89.3092 222.538C89.9958 222.138 90.7458 221.938 91.5592 221.938C92.3992 221.938 93.1158 222.101 93.7092 222.428C94.3092 222.748 94.7658 223.208 95.0792 223.808C95.3992 224.401 95.5592 225.111 95.5592 225.938C95.5592 226.244 95.5592 226.584 95.5592 226.958C95.5592 227.331 95.5592 227.691 95.5592 228.038V232.728H93.3892ZM85.8292 232.728V222.108H87.9992V232.728H85.8292ZM101.97 232.938C101.17 232.938 100.467 232.811 99.8601 232.558C99.2601 232.304 98.7935 231.941 98.4601 231.468C98.1268 230.994 97.9601 230.424 97.9601 229.758C97.9601 229.044 98.1468 228.454 98.5201 227.988C98.9001 227.521 99.4201 227.161 100.08 226.908C100.747 226.648 101.503 226.478 102.35 226.398C103.61 226.271 104.497 226.148 105.01 226.028C105.53 225.908 105.79 225.711 105.79 225.438C105.79 225.431 105.79 225.424 105.79 225.418C105.79 224.878 105.56 224.468 105.1 224.188C104.64 223.908 103.983 223.768 103.13 223.768C102.23 223.768 101.533 223.928 101.04 224.248C100.553 224.561 100.31 225.061 100.31 225.748H98.1801C98.1801 224.934 98.3901 224.244 98.8101 223.678C99.2368 223.111 99.8235 222.681 100.57 222.388C101.317 222.088 102.173 221.938 103.14 221.938C104.027 221.938 104.833 222.074 105.56 222.348C106.293 222.614 106.877 223.014 107.31 223.548C107.743 224.081 107.96 224.744 107.96 225.538C107.96 225.678 107.96 225.818 107.96 225.958C107.96 226.091 107.96 226.228 107.96 226.368V230.608C107.96 230.854 107.97 231.094 107.99 231.328C108.01 231.554 108.047 231.758 108.1 231.938C108.16 232.144 108.23 232.314 108.31 232.448C108.397 232.581 108.467 232.674 108.52 232.728H106.36C106.32 232.688 106.26 232.604 106.18 232.478C106.107 232.344 106.04 232.191 105.98 232.018C105.92 231.851 105.873 231.661 105.84 231.448C105.813 231.228 105.8 230.991 105.8 230.738L106.2 231.018C106 231.404 105.697 231.741 105.29 232.028C104.89 232.314 104.407 232.538 103.84 232.698C103.28 232.858 102.657 232.938 101.97 232.938ZM102.42 231.138C103.04 231.138 103.603 231.041 104.11 230.848C104.623 230.648 105.033 230.348 105.34 229.948C105.647 229.541 105.8 229.031 105.8 228.418V226.658L106.31 227.328C105.883 227.494 105.36 227.631 104.74 227.738C104.127 227.838 103.493 227.921 102.84 227.988C101.94 228.068 101.263 228.224 100.81 228.458C100.357 228.684 100.13 229.064 100.13 229.598C100.13 230.111 100.317 230.498 100.69 230.758C101.07 231.011 101.647 231.138 102.42 231.138ZM110.015 227.748V226.388H117.085V227.748H110.015ZM125.579 232.938C124.753 232.938 123.986 232.731 123.279 232.318C122.573 231.898 121.999 231.324 121.559 230.598C121.126 229.871 120.909 229.048 120.909 228.128C120.909 228.101 120.909 228.081 120.909 228.068C120.909 228.048 120.909 228.028 120.909 228.008L122.169 227.978C122.169 227.991 122.169 228.008 122.169 228.028C122.169 228.041 122.169 228.058 122.169 228.078C122.169 228.624 122.309 229.118 122.589 229.558C122.876 229.991 123.246 230.334 123.699 230.588C124.153 230.841 124.639 230.968 125.159 230.968C126.013 230.968 126.729 230.678 127.309 230.098C127.896 229.511 128.189 228.611 128.189 227.398C128.189 226.178 127.899 225.281 127.319 224.708C126.739 224.128 126.019 223.838 125.159 223.838C124.639 223.838 124.153 223.964 123.699 224.218C123.246 224.464 122.876 224.804 122.589 225.238C122.309 225.664 122.169 226.154 122.169 226.708L120.909 226.658C120.909 225.731 121.126 224.914 121.559 224.208C121.999 223.494 122.573 222.938 123.279 222.538C123.986 222.138 124.753 221.938 125.579 221.938C126.439 221.938 127.236 222.151 127.969 222.578C128.703 222.998 129.293 223.614 129.739 224.428C130.193 225.241 130.419 226.231 130.419 227.398C130.419 228.591 130.199 229.601 129.759 230.428C129.319 231.254 128.733 231.881 127.999 232.308C127.266 232.728 126.459 232.938 125.579 232.938ZM119.989 232.728V217.098H122.169V232.728H119.989ZM133.591 228.178V226.488H141.411L141.111 226.988C141.111 226.948 141.111 226.908 141.111 226.868C141.111 226.821 141.111 226.781 141.111 226.748C141.111 226.208 140.995 225.711 140.761 225.258C140.528 224.798 140.178 224.431 139.711 224.158C139.251 223.878 138.675 223.738 137.981 223.738C137.288 223.738 136.678 223.888 136.151 224.188C135.631 224.481 135.225 224.901 134.931 225.448C134.645 225.988 134.501 226.638 134.501 227.398C134.501 228.171 134.641 228.838 134.921 229.398C135.201 229.951 135.605 230.378 136.131 230.678C136.658 230.978 137.288 231.128 138.021 231.128C138.535 231.128 138.978 231.078 139.351 230.978C139.731 230.871 140.041 230.731 140.281 230.558C140.528 230.384 140.715 230.198 140.841 229.998C140.968 229.791 141.041 229.588 141.061 229.388H143.221C143.181 229.821 143.038 230.251 142.791 230.678C142.551 231.098 142.208 231.481 141.761 231.828C141.321 232.168 140.781 232.441 140.141 232.648C139.508 232.848 138.778 232.948 137.951 232.948C136.845 232.948 135.875 232.714 135.041 232.248C134.208 231.781 133.558 231.134 133.091 230.308C132.625 229.474 132.391 228.521 132.391 227.448C132.391 226.354 132.628 225.394 133.101 224.568C133.575 223.741 134.231 223.098 135.071 222.638C135.911 222.171 136.875 221.938 137.961 221.938C139.068 221.938 140.025 222.171 140.831 222.638C141.645 223.104 142.271 223.748 142.711 224.568C143.151 225.388 143.371 226.331 143.371 227.398C143.371 227.524 143.368 227.671 143.361 227.838C143.355 228.004 143.345 228.118 143.331 228.178H133.591ZM155.36 232.938C154.32 232.938 153.423 232.774 152.67 232.448C151.923 232.121 151.343 231.628 150.93 230.968C150.523 230.301 150.32 229.478 150.32 228.498C150.32 228.371 150.32 228.261 150.32 228.168C150.32 228.074 150.32 227.968 150.32 227.848H152.49C152.49 227.961 152.49 228.061 152.49 228.148C152.49 228.228 152.49 228.331 152.49 228.458C152.49 229.364 152.733 230.031 153.22 230.458C153.707 230.878 154.417 231.088 155.35 231.088C156.303 231.088 157.03 230.928 157.53 230.608C158.03 230.281 158.28 229.758 158.28 229.038C158.28 228.524 158.123 228.094 157.81 227.748C157.503 227.394 157.077 227.091 156.53 226.838C155.99 226.584 155.367 226.348 154.66 226.128C153.867 225.881 153.15 225.568 152.51 225.188C151.87 224.801 151.36 224.321 150.98 223.748C150.607 223.168 150.42 222.461 150.42 221.628C150.42 220.808 150.627 220.111 151.04 219.538C151.453 218.964 152.027 218.531 152.76 218.238C153.493 217.938 154.333 217.788 155.28 217.788C156.287 217.788 157.163 217.944 157.91 218.258C158.663 218.564 159.247 219.031 159.66 219.658C160.08 220.278 160.29 221.061 160.29 222.008C160.29 222.141 160.29 222.258 160.29 222.358C160.29 222.451 160.29 222.568 160.29 222.708H158.11C158.11 222.594 158.11 222.491 158.11 222.398C158.11 222.304 158.11 222.204 158.11 222.098C158.11 221.231 157.873 220.604 157.4 220.218C156.933 219.831 156.24 219.638 155.32 219.638C154.427 219.638 153.737 219.794 153.25 220.108C152.77 220.421 152.53 220.928 152.53 221.628C152.53 222.148 152.683 222.581 152.99 222.928C153.303 223.274 153.73 223.571 154.27 223.818C154.817 224.064 155.437 224.304 156.13 224.538C157.01 224.831 157.767 225.161 158.4 225.528C159.04 225.894 159.533 226.351 159.88 226.898C160.227 227.444 160.4 228.134 160.4 228.968C160.4 229.808 160.193 230.524 159.78 231.118C159.367 231.711 158.783 232.164 158.03 232.478C157.277 232.784 156.387 232.938 155.36 232.938ZM167.303 232.908C166.949 232.908 166.596 232.871 166.243 232.798C165.896 232.724 165.576 232.591 165.283 232.398C164.996 232.198 164.766 231.914 164.593 231.548C164.419 231.181 164.333 230.701 164.333 230.108C164.333 229.968 164.333 229.821 164.333 229.668C164.333 229.514 164.333 229.358 164.333 229.198V223.908H161.783V222.108H163.123C163.409 222.108 163.633 222.098 163.793 222.078C163.959 222.051 164.079 221.994 164.153 221.908C164.233 221.814 164.283 221.668 164.303 221.468C164.323 221.268 164.333 220.994 164.333 220.648V218.598H166.503V222.108H169.753V223.908H166.503V228.618C166.503 228.751 166.503 228.884 166.503 229.018C166.503 229.151 166.503 229.274 166.503 229.388C166.503 229.921 166.566 230.341 166.693 230.648C166.826 230.954 167.126 231.108 167.593 231.108C167.793 231.108 167.983 231.091 168.163 231.058C168.343 231.024 168.479 230.988 168.573 230.948V232.718C168.453 232.764 168.283 232.808 168.063 232.848C167.843 232.888 167.589 232.908 167.303 232.908ZM175.193 232.938C174.393 232.938 173.689 232.811 173.083 232.558C172.483 232.304 172.016 231.941 171.683 231.468C171.349 230.994 171.183 230.424 171.183 229.758C171.183 229.044 171.369 228.454 171.743 227.988C172.123 227.521 172.643 227.161 173.303 226.908C173.969 226.648 174.726 226.478 175.573 226.398C176.833 226.271 177.719 226.148 178.233 226.028C178.753 225.908 179.013 225.711 179.013 225.438C179.013 225.431 179.013 225.424 179.013 225.418C179.013 224.878 178.783 224.468 178.323 224.188C177.863 223.908 177.206 223.768 176.353 223.768C175.453 223.768 174.756 223.928 174.263 224.248C173.776 224.561 173.533 225.061 173.533 225.748H171.403C171.403 224.934 171.613 224.244 172.033 223.678C172.459 223.111 173.046 222.681 173.793 222.388C174.539 222.088 175.396 221.938 176.363 221.938C177.249 221.938 178.056 222.074 178.783 222.348C179.516 222.614 180.099 223.014 180.533 223.548C180.966 224.081 181.183 224.744 181.183 225.538C181.183 225.678 181.183 225.818 181.183 225.958C181.183 226.091 181.183 226.228 181.183 226.368V230.608C181.183 230.854 181.193 231.094 181.213 231.328C181.233 231.554 181.269 231.758 181.323 231.938C181.383 232.144 181.453 232.314 181.533 232.448C181.619 232.581 181.689 232.674 181.743 232.728H179.583C179.543 232.688 179.483 232.604 179.403 232.478C179.329 232.344 179.263 232.191 179.203 232.018C179.143 231.851 179.096 231.661 179.063 231.448C179.036 231.228 179.023 230.991 179.023 230.738L179.423 231.018C179.223 231.404 178.919 231.741 178.513 232.028C178.113 232.314 177.629 232.538 177.063 232.698C176.503 232.858 175.879 232.938 175.193 232.938ZM175.643 231.138C176.263 231.138 176.826 231.041 177.333 230.848C177.846 230.648 178.256 230.348 178.563 229.948C178.869 229.541 179.023 229.031 179.023 228.418V226.658L179.533 227.328C179.106 227.494 178.583 227.631 177.963 227.738C177.349 227.838 176.716 227.921 176.063 227.988C175.163 228.068 174.486 228.224 174.033 228.458C173.579 228.684 173.353 229.064 173.353 229.598C173.353 230.111 173.539 230.498 173.913 230.758C174.293 231.011 174.869 231.138 175.643 231.138ZM189.407 232.938C188.581 232.938 187.814 232.731 187.107 232.318C186.401 231.898 185.827 231.324 185.387 230.598C184.954 229.871 184.737 229.048 184.737 228.128C184.737 228.101 184.737 228.081 184.737 228.068C184.737 228.048 184.737 228.028 184.737 228.008L185.997 227.978C185.997 227.991 185.997 228.008 185.997 228.028C185.997 228.041 185.997 228.058 185.997 228.078C185.997 228.624 186.137 229.118 186.417 229.558C186.704 229.991 187.074 230.334 187.527 230.588C187.981 230.841 188.467 230.968 188.987 230.968C189.841 230.968 190.557 230.678 191.137 230.098C191.724 229.511 192.017 228.611 192.017 227.398C192.017 226.178 191.727 225.281 191.147 224.708C190.567 224.128 189.847 223.838 188.987 223.838C188.467 223.838 187.981 223.964 187.527 224.218C187.074 224.464 186.704 224.804 186.417 225.238C186.137 225.664 185.997 226.154 185.997 226.708L184.737 226.658C184.737 225.731 184.954 224.914 185.387 224.208C185.827 223.494 186.401 222.938 187.107 222.538C187.814 222.138 188.581 221.938 189.407 221.938C190.267 221.938 191.064 222.151 191.797 222.578C192.531 222.998 193.121 223.614 193.567 224.428C194.021 225.241 194.247 226.231 194.247 227.398C194.247 228.591 194.027 229.601 193.587 230.428C193.147 231.254 192.561 231.881 191.827 232.308C191.094 232.728 190.287 232.938 189.407 232.938ZM183.817 232.728V217.098H185.997V232.728H183.817ZM196.679 232.728V222.108H198.819V232.728H196.679ZM197.759 219.908C197.386 219.908 197.063 219.808 196.789 219.608C196.523 219.401 196.389 219.118 196.389 218.758C196.389 218.404 196.523 218.128 196.789 217.928C197.063 217.721 197.386 217.618 197.759 217.618C198.126 217.618 198.443 217.721 198.709 217.928C198.983 218.128 199.119 218.404 199.119 218.758C199.119 219.118 198.983 219.401 198.709 219.608C198.443 219.808 198.126 219.908 197.759 219.908ZM203.998 217.098V232.728H201.858V217.098H203.998ZM206.933 232.728V222.108H209.073V232.728H206.933ZM208.013 219.908C207.64 219.908 207.317 219.808 207.043 219.608C206.777 219.401 206.643 219.118 206.643 218.758C206.643 218.404 206.777 218.128 207.043 217.928C207.317 217.721 207.64 217.618 208.013 217.618C208.38 217.618 208.697 217.721 208.963 217.928C209.237 218.128 209.373 218.404 209.373 218.758C209.373 219.118 209.237 219.401 208.963 219.608C208.697 219.808 208.38 219.908 208.013 219.908ZM213.612 230.878H219.732V232.728H211.242V230.958L217.272 223.888L217.302 223.958H211.472V222.108H219.632V223.878L213.642 230.928L213.612 230.878ZM222.263 228.178V226.488H230.083L229.783 226.988C229.783 226.948 229.783 226.908 229.783 226.868C229.783 226.821 229.783 226.781 229.783 226.748C229.783 226.208 229.667 225.711 229.433 225.258C229.2 224.798 228.85 224.431 228.383 224.158C227.923 223.878 227.347 223.738 226.653 223.738C225.96 223.738 225.35 223.888 224.823 224.188C224.303 224.481 223.897 224.901 223.603 225.448C223.317 225.988 223.173 226.638 223.173 227.398C223.173 228.171 223.313 228.838 223.593 229.398C223.873 229.951 224.277 230.378 224.803 230.678C225.33 230.978 225.96 231.128 226.693 231.128C227.207 231.128 227.65 231.078 228.023 230.978C228.403 230.871 228.713 230.731 228.953 230.558C229.2 230.384 229.387 230.198 229.513 229.998C229.64 229.791 229.713 229.588 229.733 229.388H231.893C231.853 229.821 231.71 230.251 231.463 230.678C231.223 231.098 230.88 231.481 230.433 231.828C229.993 232.168 229.453 232.441 228.813 232.648C228.18 232.848 227.45 232.948 226.623 232.948C225.517 232.948 224.547 232.714 223.713 232.248C222.88 231.781 222.23 231.134 221.763 230.308C221.297 229.474 221.063 228.521 221.063 227.448C221.063 226.354 221.3 225.394 221.773 224.568C222.247 223.741 222.903 223.098 223.743 222.638C224.583 222.171 225.547 221.938 226.633 221.938C227.74 221.938 228.697 222.171 229.503 222.638C230.317 223.104 230.943 223.748 231.383 224.568C231.823 225.388 232.043 226.331 232.043 227.398C232.043 227.524 232.04 227.671 232.033 227.838C232.027 228.004 232.017 228.118 232.003 228.178H222.263ZM234.462 232.728V222.108H236.632V225.498L236.052 225.238C236.099 224.804 236.209 224.391 236.382 223.998C236.555 223.604 236.785 223.254 237.072 222.948C237.365 222.634 237.725 222.388 238.152 222.208C238.579 222.028 239.072 221.938 239.632 221.938C240.059 221.938 240.402 221.971 240.662 222.038C240.929 222.104 241.092 222.158 241.152 222.198L240.692 224.238C240.625 224.191 240.489 224.131 240.282 224.058C240.082 223.984 239.802 223.948 239.442 223.948C238.895 223.948 238.442 224.044 238.082 224.238C237.722 224.431 237.435 224.688 237.222 225.008C237.009 225.328 236.855 225.678 236.762 226.058C236.675 226.431 236.632 226.808 236.632 227.188V232.728H234.462Z" fill="black"/>
<defs>
<filter id="filter0_iii_1_608" x="45.4738" y="36.8646" width="130.366" height="162.402" filterUnits="userSpaceOnUse" color-interpolation-filters="sRGB">
<feFlood flood-opacity="0" result="BackgroundImageFix"/>
<feBlend mode="normal" in="SourceGraphic" in2="BackgroundImageFix" result="shape"/>
<feColorMatrix in="SourceAlpha" type="matrix" values="0 0 0 0 0 0 0 0 0 0 0 0 0 0 0 0 0 0 127 0" result="hardAlpha"/>
<feMorphology radius="2.70941" operator="erode" in="SourceAlpha" result="effect1_innerShadow_1_608"/>
<feOffset dx="7.11221" dy="4.40279"/>
<feGaussianBlur stdDeviation="8.12823"/>
<feComposite in2="hardAlpha" operator="arithmetic" k2="-1" k3="1"/>
<feColorMatrix type="matrix" values="0 0 0 0 0.682806 0 0 0 0 0.0652778 0 0 0 0 0.783333 0 0 0 0.14 0"/>
<feBlend mode="normal" in2="shape" result="effect1_innerShadow_1_608"/>
<feColorMatrix in="SourceAlpha" type="matrix" values="0 0 0 0 0 0 0 0 0 0 0 0 0 0 0 0 0 0 127 0" result="hardAlpha"/>
<feOffset dy="-6.09618"/>
<feGaussianBlur stdDeviation="5.24949"/>
<feComposite in2="hardAlpha" operator="arithmetic" k2="-1" k3="1"/>
<feColorMatrix type="matrix" values="0 0 0 0 0.943639 0 0 0 0 0.223611 0 0 0 0 0.958333 0 0 0 0.44 0"/>
<feBlend mode="normal" in2="effect1_innerShadow_1_608" result="effect2_innerShadow_1_608"/>
<feColorMatrix in="SourceAlpha" type="matrix" values="0 0 0 0 0 0 0 0 0 0 0 0 0 0 0 0 0 0 127 0" result="hardAlpha"/>
<feOffset dx="-3.72544" dy="5.41882"/>
<feGaussianBlur stdDeviation="5.24949"/>
<feComposite in2="hardAlpha" operator="arithmetic" k2="-1" k3="1"/>
<feColorMatrix type="matrix" values="0 0 0 0 1 0 0 0 0 1 0 0 0 0 1 0 0 0 0.59 0"/>
<feBlend mode="normal" in2="effect2_innerShadow_1_608" result="effect3_innerShadow_1_608"/>
</filter>
<filter id="filter1_i_1_608" x="81.2764" y="6.68216" width="30.0474" height="35.9371" filterUnits="userSpaceOnUse" color-interpolation-filters="sRGB">
<feFlood flood-opacity="0" result="BackgroundImageFix"/>
<feBlend mode="normal" in="SourceGraphic" in2="BackgroundImageFix" result="shape"/>
<feColorMatrix in="SourceAlpha" type="matrix" values="0 0 0 0 0 0 0 0 0 0 0 0 0 0 0 0 0 0 127 0" result="hardAlpha"/>
<feOffset dx="2.78767" dy="1.39384"/>
<feGaussianBlur stdDeviation="3.87176"/>
<feComposite in2="hardAlpha" operator="arithmetic" k2="-1" k3="1"/>
<feColorMatrix type="matrix" values="0 0 0 0 0 0 0 0 0 0 0 0 0 0 0 0 0 0 0.25 0"/>
<feBlend mode="normal" in2="shape" result="effect1_innerShadow_1_608"/>
</filter>
<filter id="filter2_f_1_608" x="103.988" y="42.9821" width="12.2939" height="5.62124" filterUnits="userSpaceOnUse" color-interpolation-filters="sRGB">
<feFlood flood-opacity="0" result="BackgroundImageFix"/>
<feBlend mode="normal" in="SourceGraphic" in2="BackgroundImageFix" result="shape"/>
<feGaussianBlur stdDeviation="0.802485" result="effect1_foregroundBlur_1_608"/>
</filter>
<filter id="filter3_f_1_608" x="49.8761" y="120.194" width="132.565" height="89.4522" filterUnits="userSpaceOnUse" color-interpolation-filters="sRGB">
<feFlood flood-opacity="0" result="BackgroundImageFix"/>
<feBlend mode="normal" in="SourceGraphic" in2="BackgroundImageFix" result="shape"/>
<feGaussianBlur stdDeviation="8.02485" result="effect1_foregroundBlur_1_608"/>
</filter>
<filter id="filter4_d_1_608" x="68.1221" y="69.8352" width="43.9511" height="43.9515" filterUnits="userSpaceOnUse" color-interpolation-filters="sRGB">
<feFlood flood-opacity="0" result="BackgroundImageFix"/>
<feColorMatrix in="SourceAlpha" type="matrix" values="0 0 0 0 0 0 0 0 0 0 0 0 0 0 0 0 0 0 127 0" result="hardAlpha"/>
<feOffset dy="1.36554"/>
<feGaussianBlur stdDeviation="3.24316"/>
<feColorMatrix type="matrix" values="0 0 0 0 0 0 0 0 0 0 0 0 0 0 0 0 0 0 0.25 0"/>
<feBlend mode="normal" in2="BackgroundImageFix" result="effect1_dropShadow_1_608"/>
<feBlend mode="normal" in="SourceGraphic" in2="effect1_dropShadow_1_608" result="shape"/>
</filter>
<filter id="filter5_i_1_608" x="74.6084" y="73.3514" width="30.9785" height="32.5834" filterUnits="userSpaceOnUse" color-interpolation-filters="sRGB">
<feFlood flood-opacity="0" result="BackgroundImageFix"/>
<feBlend mode="normal" in="SourceGraphic" in2="BackgroundImageFix" result="shape"/>
<feColorMatrix in="SourceAlpha" type="matrix" values="0 0 0 0 0 0 0 0 0 0 0 0 0 0 0 0 0 0 127 0" result="hardAlpha"/>
<feOffset dy="-1.60451"/>
<feGaussianBlur stdDeviation="4.01127"/>
<feComposite in2="hardAlpha" operator="arithmetic" k2="-1" k3="1"/>
<feColorMatrix type="matrix" values="0 0 0 0 0 0 0 0 0 0 0 0 0 0 0 0 0 0 0.25 0"/>
<feBlend mode="normal" in2="shape" result="effect1_innerShadow_1_608"/>
</filter>
<filter id="filter6_i_1_608" x="81.8584" y="82.2064" width="16.4697" height="16.4699" filterUnits="userSpaceOnUse" color-interpolation-filters="sRGB">
<feFlood flood-opacity="0" result="BackgroundImageFix"/>
<feBlend mode="normal" in="SourceGraphic" in2="BackgroundImageFix" result="shape"/>
<feColorMatrix in="SourceAlpha" type="matrix" values="0 0 0 0 0 0 0 0 0 0 0 0 0 0 0 0 0 0 127 0" result="hardAlpha"/>
<feMorphology radius="14.1018" operator="dilate" in="SourceAlpha" result="effect1_innerShadow_1_608"/>
<feOffset dx="4.90497" dy="-14.7149"/>
<feGaussianBlur stdDeviation="5.51809"/>
<feComposite in2="hardAlpha" operator="arithmetic" k2="-1" k3="1"/>
<feColorMatrix type="matrix" values="0 0 0 0 0.462111 0 0 0 0 0.203767 0 0 0 0 0.504167 0 0 0 0.35 0"/>
<feBlend mode="normal" in2="shape" result="effect1_innerShadow_1_608"/>
</filter>
<filter id="filter7_d_1_608" x="105.646" y="69.8352" width="43.9511" height="43.9516" filterUnits="userSpaceOnUse" color-interpolation-filters="sRGB">
<feFlood flood-opacity="0" result="BackgroundImageFix"/>
<feColorMatrix in="SourceAlpha" type="matrix" values="0 0 0 0 0 0 0 0 0 0 0 0 0 0 0 0 0 0 127 0" result="hardAlpha"/>
<feOffset dy="1.36554"/>
<feGaussianBlur stdDeviation="3.24316"/>
<feColorMatrix type="matrix" values="0 0 0 0 0 0 0 0 0 0 0 0 0 0 0 0 0 0 0.25 0"/>
<feBlend mode="normal" in2="BackgroundImageFix" result="effect1_dropShadow_1_608"/>
<feBlend mode="normal" in="SourceGraphic" in2="effect1_dropShadow_1_608" result="shape"/>
</filter>
<filter id="filter8_i_1_608" x="112.132" y="73.3515" width="30.9785" height="32.5834" filterUnits="userSpaceOnUse" color-interpolation-filters="sRGB">
<feFlood flood-opacity="0" result="BackgroundImageFix"/>
<feBlend mode="normal" in="SourceGraphic" in2="BackgroundImageFix" result="shape"/>
<feColorMatrix in="SourceAlpha" type="matrix" values="0 0 0 0 0 0 0 0 0 0 0 0 0 0 0 0 0 0 127 0" result="hardAlpha"/>
<feOffset dy="-1.60451"/>
<feGaussianBlur stdDeviation="4.01127"/>
<feComposite in2="hardAlpha" operator="arithmetic" k2="-1" k3="1"/>
<feColorMatrix type="matrix" values="0 0 0 0 0 0 0 0 0 0 0 0 0 0 0 0 0 0 0.25 0"/>
<feBlend mode="normal" in2="shape" result="effect1_innerShadow_1_608"/>
</filter>
<filter id="filter9_i_1_608" x="119.382" y="82.2064" width="16.4697" height="16.4699" filterUnits="userSpaceOnUse" color-interpolation-filters="sRGB">
<feFlood flood-opacity="0" result="BackgroundImageFix"/>
<feBlend mode="normal" in="SourceGraphic" in2="BackgroundImageFix" result="shape"/>
<feColorMatrix in="SourceAlpha" type="matrix" values="0 0 0 0 0 0 0 0 0 0 0 0 0 0 0 0 0 0 127 0" result="hardAlpha"/>
<feMorphology radius="14.1018" operator="dilate" in="SourceAlpha" result="effect1_innerShadow_1_608"/>
<feOffset dx="4.90497" dy="-14.7149"/>
<feGaussianBlur stdDeviation="5.51809"/>
<feComposite in2="hardAlpha" operator="arithmetic" k2="-1" k3="1"/>
<feColorMatrix type="matrix" values="0 0 0 0 0.462111 0 0 0 0 0.203767 0 0 0 0 0.504167 0 0 0 0.35 0"/>
<feBlend mode="normal" in2="shape" result="effect1_innerShadow_1_608"/>
</filter>
<filter id="filter10_ii_1_608" x="80.168" y="111.115" width="56.9492" height="7.68357" filterUnits="userSpaceOnUse" color-interpolation-filters="sRGB">
<feFlood flood-opacity="0" result="BackgroundImageFix"/>
<feBlend mode="normal" in="SourceGraphic" in2="BackgroundImageFix" result="shape"/>
<feColorMatrix in="SourceAlpha" type="matrix" values="0 0 0 0 0 0 0 0 0 0 0 0 0 0 0 0 0 0 127 0" result="hardAlpha"/>
<feMorphology radius="11.9547" operator="dilate" in="SourceAlpha" result="effect1_innerShadow_1_608"/>
<feOffset dy="12.6553"/>
<feGaussianBlur stdDeviation="3.16382"/>
<feComposite in2="hardAlpha" operator="arithmetic" k2="-1" k3="1"/>
<feColorMatrix type="matrix" values="0 0 0 0 0.3625 0 0 0 0 0.3625 0 0 0 0 0.3625 0 0 0 0.97 0"/>
<feBlend mode="normal" in2="shape" result="effect1_innerShadow_1_608"/>
<feColorMatrix in="SourceAlpha" type="matrix" values="0 0 0 0 0 0 0 0 0 0 0 0 0 0 0 0 0 0 127 0" result="hardAlpha"/>
<feMorphology radius="11.9547" operator="dilate" in="SourceAlpha" result="effect2_innerShadow_1_608"/>
<feOffset dx="4.15817" dy="-4.06777"/>
<feGaussianBlur stdDeviation="4.67794"/>
<feComposite in2="hardAlpha" operator="arithmetic" k2="-1" k3="1"/>
<feColorMatrix type="matrix" values="0 0 0 0 0.462111 0 0 0 0 0.203767 0 0 0 0 0.504167 0 0 0 0.35 0"/>
<feBlend mode="normal" in2="effect1_innerShadow_1_608" result="effect2_innerShadow_1_608"/>
</filter>
<radialGradient id="paint0_radial_1_608" cx="0" cy="0" r="1" gradientUnits="userSpaceOnUse" gradientTransform="translate(108.904 171.938) rotate(84.5862) scale(22.0089 34.0873)">
<stop stop-color="#FFBB0C"/>
<stop offset="1" stop-color="#FFC907"/>
</radialGradient>
<linearGradient id="paint1_linear_1_608" x1="104.095" y1="17.7982" x2="83.6906" y2="28.3128" gradientUnits="userSpaceOnUse">
<stop stop-color="#008B0E"/>
<stop offset="1" stop-color="#038B00" stop-opacity="0"/>
</linearGradient>
<linearGradient id="paint2_linear_1_608" x1="95.9415" y1="14.9014" x2="105.219" y2="28.6458" gradientUnits="userSpaceOnUse">
<stop stop-color="white"/>
<stop offset="1" stop-color="white" stop-opacity="0"/>
</linearGradient>
<linearGradient id="paint3_linear_1_608" x1="108.642" y1="111.115" x2="108.642" y2="118.798" gradientUnits="userSpaceOnUse">
<stop stop-color="#201721"/>
<stop offset="1" stop-color="#2B1F2C"/>
</linearGradient>
</defs>
</svg>
